<?xml version="1.0" encoding="utf-8"?>
<svg xmlns="http://www.w3.org/2000/svg" fill="none" viewBox="0 0 244 52">
  <path d="m57.25 20.84-.06.22c-1 3.62-3.34 4.39-5.13 4.39-3.71 0-5.4-2.97-5.4-5.73 0-1.5.48-2.89 1.35-3.93A5.1 5.1 0 0 1 52.06 14c1.08 0 3.68.27 4.6 2.72l.08.23h-1.9l-.03-.14c-.15-1.03-.67-2.25-2.28-2.25-2.32 0-3.53 2.59-3.53 5.14 0 1.3.31 2.48.88 3.34a3.06 3.06 0 0 0 2.65 1.46c1.37 0 3.2-.61 4.1-3.54l.04-.12h.58Zm4.62-1.12c0-2.42 1.04-5.02 3.3-5.02 2.28 0 3.31 2.6 3.31 5.02 0 1.33-.3 2.57-.84 3.48-.42.7-1.18 1.55-2.46 1.55-2.27 0-3.3-2.6-3.3-5.03Zm3.3-5.57c-1.73 0-3.2.6-4.23 1.74a5.68 5.68 0 0 0-1.42 3.83c0 2.69 1.77 5.58 5.66 5.58 1.74 0 3.2-.6 4.23-1.75a5.7 5.7 0 0 0 1.41-3.83c0-2.68-1.76-5.57-5.64-5.57Zm16.33 7.69c0 2.27-2.18 3.46-4.34 3.46-2.01 0-4.18-1.03-4.18-3.28 0-1.21 1.02-1.99 1.72-1.99.31 0 .54.16.62.42.26.8-.09 1.08-.42 1.36-.3.26-.62.53-.62 1.27 0 1.02 1.22 1.55 2.42 1.55 1.32 0 2.74-.64 2.74-2.03 0-1.51-1.36-2.04-2.8-2.6-1.59-.63-3.23-1.27-3.23-3.28 0-1.77 1.85-2.57 3.57-2.57 1.05 0 2.48.5 3.04 1.35.26.4.31.85.13 1.29l-.04.1h-2.16l.17-.26c.33-.5.4-.94.23-1.28-.24-.45-.86-.65-1.37-.65-.98 0-1.78.63-1.78 1.4 0 1.16 1.24 1.63 2.67 2.18 1.7.65 3.63 1.39 3.63 3.56Zm13.77-6.72v8.55c0 .8.5.92.8.92h.17v.56h-4.1v-.56h.17c.3 0 .8-.12.8-.92v-7.53l-4.22 9.24-4.2-9.2v7.49c0 .8.5.92.8.92h.17v.56h-2.5v-.56h.16c.3 0 .8-.12.8-.92v-8.5c-.23-.26-.4-.3-.8-.32h-.17v-.55h3.05l.04.1 3.52 7.7 3.57-7.8h2.91v.54l-.28.01c-.5.02-.69.06-.69.27Zm10.01 2.1v-.17c0-.18-.39-2.2-1.38-2.2h-2.86v4.63h1.2c1.04 0 1.37-.89 1.37-1l.01-.17h.57v2.89h-.58v-.17c0-.12-.33-1-1.38-1h-1.2v4.56h2.87c1 0 1.38-2.02 1.38-2.2v-.16h.5v2.92H97.9v-.56h.17c.3 0 .8-.12.8-.92v-7.9c0-.8-.5-.92-.8-.92h-.17v-.55h7.89v2.92h-.51Zm11.5-2.92v2.92h-.5v-.17c-.01-.18-.55-2.2-1.88-2.2h-1.2v8.82c0 .8.5.92.8.92h.17v.56h-4.1v-.56h.16c.3 0 .8-.12.8-.92v-8.82h-1.2c-1.33 0-1.86 2.02-1.88 2.2v.17h-.5V14.3h9.33Zm3.66 5.42c0-2.42 1.04-5.02 3.3-5.02 2.28 0 3.31 2.6 3.31 5.02 0 1.33-.3 2.57-.84 3.48-.42.7-1.18 1.55-2.46 1.55-2.27 0-3.3-2.6-3.3-5.03Zm3.3-5.57c-1.73 0-3.2.6-4.23 1.74a5.68 5.68 0 0 0-1.42 3.83c0 2.69 1.77 5.58 5.66 5.58 1.74 0 3.2-.6 4.23-1.75a5.7 5.7 0 0 0 1.41-3.83c0-2.68-1.76-5.57-5.64-5.57Zm15.69 8.07v2.93h-7.88v-.56h.16c.3 0 .8-.12.8-.92v-7.9c0-.8-.5-.92-.8-.92h-.16v-.55h4.1v.55h-.17c-.3 0-.8.12-.8.93v8.81h2.87c1 0 1.37-2.02 1.38-2.2v-.16h.5Zm4.67-2.5c0-2.42 1.04-5.02 3.3-5.02 2.28 0 3.31 2.6 3.31 5.02 0 1.33-.3 2.57-.84 3.48-.42.7-1.19 1.55-2.46 1.55-2.27 0-3.3-2.6-3.3-5.03Zm3.3-5.57c-1.74 0-3.2.6-4.23 1.74a5.68 5.68 0 0 0-1.42 3.83c0 2.69 1.77 5.58 5.66 5.58 1.74 0 3.2-.6 4.23-1.75a5.7 5.7 0 0 0 1.4-3.83c0-2.68-1.76-5.57-5.63-5.57Zm17.97 6.97v2.55c0 .8.5.92.8.92h.17v.56h-3.14v-.33c-.67.42-1.38.63-2.1.63-3.71 0-5.4-2.97-5.4-5.73 0-1.5.48-2.89 1.35-3.93A5.1 5.1 0 0 1 161.1 14c1.08 0 3.68.27 4.6 2.72.13.37.1.73-.08 1a.88.88 0 0 1-.75.36c-.55 0-.99-.4-.99-.9-.14-2.27-1.5-2.62-2.31-2.62-2.32 0-3.53 2.65-3.53 5.27 0 1.32.31 2.53.88 3.41.63.99 1.55 1.5 2.65 1.5.51 0 1.09-.19 1.63-.55v-3.07c0-.2-.07-.37-.2-.5-.17-.17-.62-.44-1.72-.43h-.21v-.55h5.27v.55h-.17c-.3 0-.8.12-.8.93Zm14.43-6.82v.55h-.17c-.6 0-1 .17-1.24.53l-3.35 4.94v3.85c0 .37.46.42.96.42h.17v.56h-4.42v-.56h.17c.5 0 .95-.05.95-.42v-3.54l-3.46-5.25c-.3-.47-.85-.53-1.24-.53H168v-.55h4.85l-.04.55h-.16c-.33 0-.75.1-.83.23-.02.04 0 .1.04.17l2.93 4.44 3.04-4.5c.07-.1.08-.16.06-.18-.01-.04-.13-.16-.8-.16h-.17v-.55h2.89Zm17.75 6.54-.06.22c-1 3.62-3.34 4.39-5.13 4.39-3.71 0-5.4-2.97-5.4-5.73 0-1.5.48-2.89 1.35-3.93a5.1 5.1 0 0 1 4.05-1.79c1.08 0 3.68.27 4.6 2.72l.08.23h-1.9l-.03-.14c-.15-1.03-.67-2.25-2.28-2.25-2.32 0-3.53 2.59-3.53 5.14 0 1.3.3 2.48.88 3.34a3.06 3.06 0 0 0 2.65 1.46c1.37 0 3.2-.61 4.1-3.54l.04-.12h.58Zm9.66 1.38v2.93h-7.88v-.56h.17c.3 0 .8-.12.8-.92v-7.9c0-.8-.5-.92-.8-.92h-.17v-.55h4.1v.55h-.17c-.3 0-.8.12-.8.93v8.81h2.87c1 0 1.38-2.02 1.38-2.2v-.16h.5Zm4.97-6.44v7.89c0 .8.5.92.8.92h.17v.56h-4.1v-.56h.16c.3 0 .8-.12.8-.92v-7.9c0-.8-.5-.92-.8-.92h-.17v-.55h4.1v.55h-.16c-.3 0-.8.12-.8.93ZM225 14.3v.55h-.16c-.3 0-.8.12-.8.93v9.37h-.42l-7.28-9.26v7.78c0 .8.5.92.8.92h.17v.56h-2.5v-.56h.16c.3 0 .8-.12.8-.92v-8.5c-.24-.26-.4-.3-.8-.32h-.16v-.55h2.96l5.7 7.25v-5.77c0-.8-.5-.93-.8-.93h-.17v-.55h2.5Zm4.81 1.48v7.89c0 .8.5.92.8.92h.17v.56h-4.1v-.56h.16c.3 0 .8-.12.8-.92v-7.9c0-.8-.5-.92-.8-.92h-.17v-.55h4.1v.55h-.16c-.3 0-.8.12-.8.93Zm13.71 5.06-.06.22c-1 3.62-3.34 4.39-5.13 4.39-3.7 0-5.4-2.97-5.4-5.73 0-1.5.48-2.89 1.35-3.93a5.11 5.11 0 0 1 4.06-1.79c1.07 0 3.67.27 4.59 2.72l.08.23h-1.9l-.03-.14c-.15-1.03-.66-2.25-2.28-2.25-2.32 0-3.53 2.59-3.53 5.14 0 1.3.31 2.48.88 3.34a3.06 3.06 0 0 0 2.65 1.46c1.37 0 3.2-.61 4.1-3.54l.04-.12h.58ZM48.27 37.72h-.75s-.18 0-.18-.33v-1.86h.93c1.32 0 1.84.3 1.84 1.07 0 .76-.59 1.12-1.84 1.12Zm-.93-3.92c0-.3.2-.31.25-.32 1.14 0 1.84.05 1.84.88 0 .8-.76.91-1.58.91h-.51V33.8Zm1.94 1.52c.44-.2.66-.52.66-.97 0-1.12-1.35-1.12-2.16-1.12h-1.12v.17s.21.02.21.43v3.55c0 .4-.2.42-.2.42v.17h1.84c.9 0 2.11-.14 2.11-1.38 0-.9-.64-1.18-1.34-1.27Zm6.2-1.92s-.27.02-.56.47l-1.2 1.8v1.72c0 .4.21.4.22.4v.18h-.88v-.17s.2-.02.2-.42v-1.7l-1.2-1.8c-.3-.46-.56-.48-.57-.48v-.17h.89v.17s-.02 0-.03.02c0 .02-.03.1.14.35l1.09 1.62 1.08-1.62c.17-.26.13-.34.13-.35 0-.02-.03-.02-.03-.02v-.17h.71v.17Zm7.48 3.19c0 .92-.72 1.37-2.2 1.38h-.01c-1.51 0-1.9-.83-1.96-1v-.02l.28-1.1.05.43c.01.06.2 1.44 1.64 1.44.76 0 1.65-.3 1.65-1.12 0-.64-.76-.8-1.58-.96-.91-.18-1.85-.37-1.85-1.27 0-1.08 1.49-1.14 1.78-1.14.96 0 1.55.37 1.57.39l.03.02.22 1.06-.24-.34s-.61-.88-1.58-.88c-.38 0-1.27.1-1.27.9 0 .54.72.68 1.49.83.93.18 1.98.39 1.98 1.38Zm5.18-3.19s-.25.03-.41.45l-1.66 4.07-.08.19-.08-.2-1.65-4.06c-.18-.42-.42-.44-.43-.44v-.18h.9v.18s-.03 0-.05.03c-.01.03-.04.12.05.35l1.36 3.32 1.35-3.32c.1-.23.06-.32.05-.35a.08.08 0 0 0-.06-.03v-.18h.71v.18Zm4.39 3.95.16.05-.12.57H69.1v-.17s.2-.02.2-.42v-3.56c0-.4-.2-.42-.2-.42v-.17h3.46l.12.57-.16.05s-.16-.37-1.18-.37h-1.37c-.06 0-.2.04-.2.34v1.36h1.07c.53 0 .63-.28.64-.29l.16-.48v1.84l-.16-.52c0-.01-.11-.3-.64-.3h-1.07v1.96c0 .21.07.33.2.33h1.37c1.02 0 1.18-.36 1.18-.37Zm5.01-2.67-.33-.71c0-.02-.24-.49-1.22-.49h-.13c-.03 0-.2.02-.2.34v3.57c0 .39.2.4.2.4v.18H75v-.17s.2-.02.2-.42v-3.56c0-.22-.07-.34-.2-.34h-.12c-.98 0-1.21.47-1.22.49l-.32.65.31-1.39h3.58l.32 1.45Zm4.3 1.9-.3 1.39h-3.29v-.17s.2-.02.2-.42v-3.56c0-.4-.2-.42-.2-.42v-.17h.88v.17s-.2.02-.2.42v3.57c0 .3.15.33.2.33h1.18c.97 0 1.2-.47 1.22-.49l.31-.65Zm2.06-.66.77-1.85.25.59.53 1.26h-1.56Zm2.65 1.43-1.7-4.07-.08-.18-.08.18-1.7 4.07c-.18.42-.42.45-.43.45v.17h.71v-.17s-.03 0-.05-.04c-.02-.03-.05-.12.05-.35l.12-.29.4-.93h1.77l.51 1.22c.1.23.07.32.06.35-.02.03-.06.04-.06.04v.17h.9v-.17s-.24-.03-.42-.45Zm4.95-3.95c-.01 0-.21.02-.21.41v4.37l-.16-.25-2.59-4.06a1.3 1.3 0 0 0-.1-.14.6.6 0 0 0 0 .08v3.57c0 .4.2.42.21.42v.17h-.71v-.17s.2-.02.2-.42v-3.56c0-.4-.2-.42-.2-.42v-.17h1.02v.17s-.02 0-.03.02c0 .02-.03.1.13.35.2.3 1.38 2.2 1.93 3.08v-3.03c0-.4-.2-.42-.2-.42v-.17h.7v.17Zm2.28 2.52.78-1.85.24.59.53 1.26h-1.55Zm2.66 1.43-1.71-4.07-.08-.18-.08.18-1.7 4.07c-.17.42-.41.45-.42.45v.17h.7l.01-.17s-.03 0-.05-.04c-.02-.03-.05-.12.05-.35l.12-.29.39-.93h1.77l.52 1.22c.1.23.07.32.05.35-.02.03-.05.04-.05.04v.17h.9v-.17s-.25-.03-.42-.45Zm7.78-2.67-.33-.71c0-.02-.24-.49-1.22-.49h-.13c-.03 0-.2.02-.2.34v3.57c0 .39.2.4.2.4v.18h-.87v-.17s.2-.02.2-.42v-3.56c0-.22-.06-.34-.2-.34h-.12c-.97 0-1.21.47-1.22.49l-.32.65.31-1.39h3.58l.32 1.45Zm4.8 1.91c0 .92-.72 1.37-2.2 1.38h-.01c-1.51 0-1.9-.83-1.96-1v-.02l.28-1.1.06.43c0 .06.2 1.44 1.63 1.44.77 0 1.66-.3 1.66-1.12 0-.64-.77-.8-1.58-.96-.92-.18-1.86-.37-1.86-1.27 0-1.08 1.49-1.14 1.79-1.14.96 0 1.54.37 1.56.39l.04.02.21 1.06-.23-.34c-.01 0-.62-.88-1.58-.88-.39 0-1.28.1-1.28.9 0 .54.73.68 1.49.83.93.18 1.98.39 1.98 1.38Zm1.77 1.21v.17h-.89v-.17s.21-.02.21-.42v-3.56c0-.4-.2-.42-.2-.42v-.17h.87v.17s-.2.02-.2.42v3.57c0 .4.2.4.2.4Zm4.68.01v.17h-.98v-.17c0-.03-.03-.13-.24-.36-.5-.55-1.08-1.15-1.32-1.4l-.51.62v.72c0 .39.2.41.2.41v.17h-.87v-.17s.2-.02.2-.42v-3.55c0-.4-.2-.42-.2-.43v-.17h.87v.17s-.2.03-.2.42v2.42l2.05-2.47c.23-.28.2-.36.2-.36v-.18h.72v.17s-.27.03-.64.48c-.15.16-.67.79-1.2 1.43l-.32.38c.24.25.96 1 1.55 1.65.41.45.69.47.69.47Zm4.8-.01v.17h-.88v-.17s.2-.02.2-.42V35.7h-2.48v1.68c0 .4.2.4.2.4v.18h-.88v-.17s.21-.02.21-.42v-3.56c0-.4-.2-.42-.2-.42v-.17h.87v.17s-.2.02-.2.42v1.62h2.48v-1.62c0-.4-.2-.42-.2-.42v-.17h.87v.17s-.2.02-.2.42v3.57c0 .4.2.4.2.4Zm3.23-.1c-1.02 0-1.84-.94-1.84-2.11s.82-2.12 1.84-2.12c1.01 0 1.84.95 1.84 2.12 0 1.17-.83 2.11-1.84 2.11Zm0-4.5a2.37 2.37 0 0 0 0 4.75 2.37 2.37 0 0 0 0-4.75Zm7.54.2c-.01 0-.25.03-.42.45l-1.66 4.07-.08.19-.07-.2-1.66-4.06c-.17-.42-.41-.44-.42-.44v-.18h.9v.18s-.03 0-.05.03c-.02.03-.05.12.04.35l1.36 3.32 1-2.45.35-.87c.1-.23.07-.32.05-.35a.08.08 0 0 0-.06-.03v-.18h.71v.18Zm5.06 3.19c0 .92-.73 1.37-2.21 1.38h-.01c-1.52 0-1.9-.83-1.96-1l-.01-.02.29-1.1.05.43c.01.06.2 1.44 1.64 1.44.76 0 1.65-.3 1.65-1.12 0-.64-.76-.8-1.58-.96-.9-.18-1.85-.37-1.85-1.27 0-1.08 1.48-1.14 1.78-1.14.96 0 1.55.37 1.57.39l.03.02.22 1.06-.24-.34s-.61-.88-1.58-.88c-.38 0-1.27.1-1.27.9 0 .54.72.68 1.49.83.93.18 1.98.39 1.98 1.38Zm4.6 1.22v.17h-.99v-.17c0-.03-.02-.13-.24-.36a97.82 97.82 0 0 0-1.31-1.4l-.52.62v.72c0 .39.2.41.2.41v.17h-.87v-.17s.2-.02.2-.42v-3.55c0-.4-.2-.42-.2-.43v-.17h.88v.17s-.2.03-.2.42v2.42l2.04-2.47c.24-.28.2-.36.2-.36v-.18h.72v.17s-.27.03-.64.48c-.13.15-.6.7-1.08 1.29l-.44.52 1.55 1.65c.42.45.7.47.7.47Zm2.28-1.89.78-1.85.31.75.47 1.1h-1.56Zm2.66 1.43-1.7-4.07-.09-.18-.07.18-1.7 4.07c-.18.42-.42.45-.43.45v.17h.71v-.17s-.03 0-.05-.04c-.02-.03-.05-.12.05-.35l.12-.29.4-.93h1.77l.51 1.22c.1.23.07.32.06.35a.07.07 0 0 1-.06.04v.17h.9v-.17s-.24-.03-.42-.45ZM151 33.4s-.26.02-.55.47l-1.2 1.8v1.72c0 .4.21.4.22.4v.18h-.88v-.17s.2-.02.2-.42v-1.7l-1.2-1.8c-.3-.46-.56-.48-.57-.48v-.17h.88v.17l-.02.02c0 .02-.03.1.14.35l1.09 1.62 1.08-1.62c.17-.26.13-.34.13-.35 0-.02-.03-.02-.03-.02v-.17h.71v.17Zm2.3 2.52.78-1.85.24.59.53 1.26h-1.55Zm2.66 1.43-1.71-4.07-.08-.18-.08.18-1.7 4.07c-.17.42-.41.45-.42.45v.17h.7l.01-.17s-.03 0-.05-.04c-.02-.03-.05-.12.05-.35l.12-.29.39-.93h1.78l.51 1.22c.1.23.07.32.05.35a.08.08 0 0 1-.05.04v.17h.9v-.17s-.25-.03-.42-.45ZM33.97 21.64Zm3.73 4.97c-.33.46-1.04.53-1.2.57 0 0-2.71.37-7.9.17a27.82 27.82 0 0 0-3.08-10.71 19.47 19.47 0 0 0-2.37-3.51l.07-.23c.26-.86.29-1.76.25-2.62-.02-.43-.06-.86-.09-1.28a3.9 3.9 0 0 1 .08-1.2 4.45 4.45 0 0 1 1.69-3.09c.32-.26.65-.48 1.01-.64a5.22 5.22 0 0 1 2.24-.44 14.09 14.09 0 0 1 1.4 1.22 31.12 31.12 0 0 1 2.22 2.62c.23.3.48.6.67.9.1.15.19.34.32.51.11.17.26.33.33.45.08.12.12.26.13.4.01.13-.03.3-.06.51v.05-.03.05l-.01.06v.11a4.12 4.12 0 0 0 .01.7c.04.3.1.61.25.91.14.3.35.55.55.76a6.4 6.4 0 0 0 2.17 1.55c.28.12.54.2.7.36.16.16.25.4.26.65.03.25-.05.47-.2.7a3.4 3.4 0 0 1-.11.16l-.14.15-.29.33c-.09.12-.19.23-.26.4a1 1 0 0 0 .02.73c.04.08.1.16.16.2l.34.28.01.02c-.25.09-.49.24-.66.46a28.63 28.63 0 0 1-1.49 1.9c-.17.2-.34.37-.55.54l-.32.27-.09.14-.02.09c0 .05.03.1.08.14.08.06.12.05.15.05l.21-.02c.22-.02.44.08.67.21l.7.39c.45.22.89.44 1.4.57-.02.2.01.42.1.61.08.22.22.38.31.5.2.27.4.54.49.79.2.5.13 1.2-.15 1.6Zm-5.67 1.55a4.53 4.53 0 0 0-2.57 1.88c-.2.29-.38.6-.52.94-.13.34-.21.67-.31.99a9.55 9.55 0 0 1-.78 1.82c-.15.29-.34.58-.49.9-.33.6-.58 1.24-.82 1.9a16 16 0 0 0-.65 2.65 10.62 10.62 0 0 0-4.9.38 7.84 7.84 0 0 0-4.69 3.77c-.34.6-.61 1.22-.8 1.88a5.74 5.74 0 0 0-.22 2.02 4.51 4.51 0 0 0 2.19 3.54c-.22.4-.76.7-1.32.71-2.17.09-3.8-.5-4.74-1.29-.3-.24-.57-.5-.83-.78l-.04-.04a9.94 9.94 0 0 1-1.43-2.12 7.62 7.62 0 0 1-.87-4.37 7.24 7.24 0 0 1 1.9-3.96 11.82 11.82 0 0 1 2.6-2.19l.5-.3.5-.33a7.27 7.27 0 0 0 1.73-1.72 8.8 8.8 0 0 0 1.13-2.15c.27-.77.4-1.58.43-2.36.02-.4.05-.79.03-1.2a10.87 10.87 0 0 0-1.92-5.55 9.98 9.98 0 0 0-3.5-3.09 10.37 10.37 0 0 1 4.77 7.53c.06.38.09.75.1 1.13.01.36-.04.75-.07 1.13a8 8 0 0 1-.47 2.19 9.03 9.03 0 0 1-1.07 1.96 6.52 6.52 0 0 1-2.04 1.84c-.17.11-.34.21-.5.33a12.15 12.15 0 0 0-2.73 2.33 7.67 7.67 0 0 0-1.95 4.35c-.05.56-.03 1.11.05 1.65A36.28 36.28 0 0 1 5.5 33.81c-.22-2.97-.17-5.93.17-8.89.37-3.2 1.02-6.34 2.27-9.33a13.9 13.9 0 0 1 3.08-4.87c2.06-1.98 4.5-2.02 6.6-.1.85.79 1.53 1.7 2.09 2.7.34.62.65 1.25.93 1.9a5.6 5.6 0 0 1-1.45.44c-.83.14-1.68.15-2.54.18-1.7.06-3.46.25-5.06.98a4.79 4.79 0 0 0-1.84 1.83 6.2 6.2 0 0 0-.79 2.45 9.45 9.45 0 0 0 .98 4.99 18.23 18.23 0 0 0 2.86 4.23 18.19 18.19 0 0 1-2.8-4.27 9.33 9.33 0 0 1-.89-4.93c.11-.83.37-1.65.8-2.37a4.57 4.57 0 0 1 1.78-1.71c.37-.2.77-.3 1.19-.41.4-.11.82-.2 1.24-.26.83-.13 1.68-.17 2.53-.18.86-.02 1.72-.01 2.59-.14a6.08 6.08 0 0 0 1.56-.45c1.22 2.91 1.84 6 2.21 9.15.13 1.08-.53 2-1.5 2.32-.23.08-.48.11-.7.16v.5s10.93.3 11.38.3h.22l-.39.13Zm-3.25 12.46a5 5 0 0 1 2.05 3.27c.12.64.1 1.33-.22 1.85-.32.54-.95.83-1.58.9-.63.06-1.3-.06-1.82-.4-.5-.35-.77-.97-.9-1.6a9.76 9.76 0 0 1-.17-1.98v-.52a9.66 9.66 0 0 1 .04-1.5c.03-.36.07-.72.13-1.08.89.2 1.74.54 2.47 1.06Zm9.72-15.85c-.15-.4-.36-.67-.56-.95-.11-.15-.2-.25-.23-.36-.03-.08-.1-.2-.09-.41a.8.8 0 0 0 .29-.4c.1-.28.09-.61-.05-.89a.82.82 0 0 0-.32-.35 1 1 0 0 0-.45-.1 4.5 4.5 0 0 0-.82.02c-.54.06-1.06.2-1.59.32.54-.04 1.07-.14 1.6-.15.27 0 .53 0 .8.03.12.02.24.04.32.1.1.06.16.14.2.25.19.4-.02 1.07-.44.94-.48-.1-.97-.35-1.43-.6l-.71-.37c-.21-.1-.46-.24-.75-.24l.1-.1c.21-.17.41-.39.57-.6a26.34 26.34 0 0 0 1.35-2.01c.14-.22.35-.4.59-.52l.3.27c.05.05.08.08.1.14a.6.6 0 0 1 .05.18c.04.26-.04.54-.16.79-.12.24-.34.44-.52.66a8.1 8.1 0 0 0-.52.69c.18-.23.37-.44.57-.64.2-.21.43-.38.59-.65.13-.26.24-.55.22-.87a.85.85 0 0 0-.06-.23l-.06-.12a1.2 1.2 0 0 0-.08-.09l-.3-.3-.32-.3c-.09-.08-.12-.18-.14-.3a.73.73 0 0 1 .05-.36c.04-.1.14-.2.23-.3l.3-.3.16-.17c.05-.06.1-.11.14-.18a1.4 1.4 0 0 0 .3-.91c0-.32-.11-.66-.35-.92-.25-.26-.57-.35-.8-.48a6.58 6.58 0 0 1-1.98-1.5 2.4 2.4 0 0 1-.44-.63c-.1-.22-.15-.48-.17-.74a3.64 3.64 0 0 1-.02-.4l.01-.2.03-.23v.04c.02-.17.08-.37.07-.63 0-.25-.08-.49-.2-.7l-.36-.48c-.1-.14-.17-.3-.29-.48-.22-.36-.45-.65-.68-.97a25.99 25.99 0 0 0-2.25-2.7 15.65 15.65 0 0 0-1.8-1.55 14.87 14.87 0 0 0-13.57-2 12.25 12.25 0 0 0-8.4 10.37 12.31 12.31 0 0 1 4.58-7.7 13 13 0 0 1 4-2.1 14.4 14.4 0 0 1 8.94-.03c1.21.39 2.36.93 3.42 1.62a5.54 5.54 0 0 0-2.74 1.22 5.3 5.3 0 0 0-.92 1c-.54.74-.8 1.64-.93 2.5l-.07.65c-.02.25 0 .47.01.69l.11 1.27a7.4 7.4 0 0 1-.17 2.4 14.4 14.4 0 0 0-2.63-2.26 9.94 9.94 0 0 0-7.8-1.58c-2.88.61-5.1 2.28-6.9 4.49C2.5 16.9 1.05 21.08.36 25.54.19 26.58.12 27.63 0 28.67v3.3c.03.16.06.33.07.5.2 3.25.87 6.4 2.13 9.4a18.95 18.95 0 0 0 5.23 7.44 10.24 10.24 0 0 0 5.91 2.61c2.1.14 4.22.05 6.33.06l.3-.03a1.88 1.88 0 0 0 1.4-2.26 1.9 1.9 0 0 0-2.15-1.4c-.92.19-1.5.88-1.57 1.88-.02.25-.08.46-.17.64a4.45 4.45 0 0 1-2.13-3.53c-.05-.67.05-1.34.24-1.99a8.48 8.48 0 0 1 2.01-3.46 8.43 8.43 0 0 1 3.44-2.04 10.43 10.43 0 0 1 4.81-.32 15.3 15.3 0 0 0-.15 2.7v.5c.02.67.05 1.37.2 2.05a4 4 0 0 0 .37 1c.16.33.41.62.72.83.63.41 1.37.53 2.09.44a2.4 2.4 0 0 0 1.82-1.07c.39-.65.37-1.41.24-2.09a5.28 5.28 0 0 0-2.2-3.43 6.5 6.5 0 0 0-2.6-1.08c.15-.87.37-1.74.67-2.58.24-.62.48-1.24.81-1.82.15-.29.33-.57.5-.88a12.48 12.48 0 0 0 .83-1.9c.11-.33.2-.66.32-.95a4.35 4.35 0 0 1 1.1-1.55 3.93 3.93 0 0 1 1.64-.9 17.06 17.06 0 0 1 2.94-.65c.33-.05.67-.08 1.03-.15a10.27 10.27 0 0 0 1.02-.29c.34-.13.7-.25 1.02-.6.28-.35.4-.75.43-1.13.03-.37 0-.78-.15-1.15Z" fill="#162113"/>
</svg>