<?xml version="1.0" encoding="utf-8"?>
<svg xmlns="http://www.w3.org/2000/svg" fill="none" viewBox="0 0 250 250">
  <path fill="#DC8452" d="M192.5 99.8c-6.4-22-30-37.5-41-42.5-3.5-1.7-9.5-9 24.5 6.5s32.5 59.5 29.5 77.5-20 24.5-13 16.5 8-30.5 0-58Zm-58-53C100.9 46 61 73.8 50 83.3s7.5-23 43-36.5 83.5 1 41.5 0Z"/>
  <path stroke="#000" d="M119 52.8c14.8-.8 48.2 3.3 63 26.5 18.5 29 21 64.5 10.5 76s13.5-6 14-25.5 0-56-42-72.5-52 9-64.5 6 11-17 35.5-2"/>
  <path fill="#F2BA78" d="M43.5 110.4c.8 11.6.7 35.6-5.9 39-8.2 4.4.7-54.5 6-39Z"/>
  <path stroke="#000" d="M195 166.8c-24 22.3-84 56.5-132 14.5-60-52.5-6 25.5 42 27.5s59-27 71.5-34.5 16 3.5 25.5-7.5M45.5 151.3c-6.8-19.7-10.8-64.4 28-86 48.5-27 63-13.5 66.5-19.5s-30.5-9-60 8-37.5 48-34.5 60-3.5 48-8.5 30.5 8-41.5 15-47.5"/>
  <path fill="#DC8452" d="M68.5 99.8c-14 3.6-16.5 23-11 45.5s49 53 21 26.5-10-53-3-59 10.5-17.5-7-13Z"/>
  <path stroke="#000" d="M170 81.3c11.7 13.3 31.1 46.4 15.5 72-19.5 32-44 40.5-57.5 38.5s14.5-9 24.5-12.5 49-29 41-60.5-27-34-36.5-37.5"/>
  <path stroke="#000" d="M125.5 177.8c-10.2 4.3-34.9 8.5-52.5-9.5-22-22.5-20.5-50.5-8.5-64.5s22.5-4 13.5 6.5-19.5 24.5-13.5 37.5 10.5 35 37 36c21.2.8 31.8-7 34.5-11"/>
  <path fill="#F2BA78" d="M159 96.3c-14.8-16.4-48.5-23-33-22s35.5 16 44.5 29 11.5 37.5 0 31.5 7-18-11.5-38.5Zm-87 4c-6 0-9.5 6.7-10.5 10-1 4-2.4 10.5 0 4.5 3-7.5 9.5-7 15-9s3-5.5-4.5-5.5Z"/>
  <path stroke="#000" d="M79 82.8a69 69 0 0 1 66-2.5c26.5 13.5 34.5 37.5 33 48.5s-12 8.5-12.5 0 6-21.9-14-39S101 70.3 74 80.3"/>
  <path fill="#D3F4F7" d="M81 118.8c1.2-13.6 6-17 22.5-24.5s24.1-7.6 36.5 0c15.5 9.5 11 14.5 17 38.5s-7.5 25.5-26 34-33-1.5-40-8.5-11.5-22.5-10-39.5Z"/>
  <path stroke="#000" stroke-linecap="round" d="M73 108.3c8.5 9 32.4 26.7 46 25.5 17-1.5 39-18.9 40.5-27.4m0 0c1.5-8.5-26.5-23-36-24s-45 16-47 22.4c-2 6.5-2 47.5 3.5 54.5s26.5 16 35 16.5 43.5-8 49.5-19 .5-50.4-5-50.4Zm0 0c-5.5 0-9.2 12.4-23.5 18.4-14.3 6-21 9-22.5 5s5.5-9.5 5.5 12.5 2 39.5-4 36-7-9.5-19-7"/>
  <path fill="#DC8452" d="M165.5 105.3c-2.4-9.2-14.3-18.8-20-22.5-3-4.5 17.5 12.2 21 17.5 6 9 2 16.5-1 5ZM84 193.8c18 12.4 45.5 6 57.5 3s-10.5 15-38 12.5-50-26-56-29.5-15-17-7-15 21 13.5 43.5 29Z"/>
  <path fill="#F2BA78" d="M179 162.3c-8.4 9.6-38 22.5-50 24.5s2.5 5.5 23.5 0 37-36.5 26.5-24.5Z"/>
  <path fill="#EE533D" d="M188.5 146.8c9.2-15.6-3.8-44.5-11.5-57-1.5-6 11.5 12 18 32s-18 44.5-6.5 25Z"/>
  <path fill="#DC8452" d="M117.5 55.8c3.6 1.6-6.5 5.5-12.5 7s-7-4.5-3.5-7 11.5-2 16 0Z"/>
  <path fill="#F2BA78" d="M52.5 180.8c-5.6-3.6-12.5-9-11.5-12s6.5 6 15.5 9.5 19 11 19 14-16-7-23-11.5Zm152.7-56.1c0 6.7-1.8 14.2-4.7 16.8-2.9 2.5 1.5-8.8-.5-18.2-2-9.5-4-28-.5-23a53.6 53.6 0 0 1 5.7 24.4ZM135 43.3c-4.8-2-20 0-20 0-4 1-10 5.5-5.5 4.5s12.5-2.5 18.5-2.5 13 .5 7-2Z"/>
</svg>