<?xml version="1.0" encoding="utf-8"?>
<svg xmlns="http://www.w3.org/2000/svg" fill="none" viewBox="0 0 250 250">
  <path fill="#FAC6A7" d="M74.2 90c-32-19.5-25.9-31.5 0-31.5s33.8-30.4 60-23c6 1.7 29 14.5 50 17.5s25.5 30.5-4.5 47 2.6 90.6 0 110.5c-2.6 20-86.2 11-91-10.5-4.8-21.5 17.5-90.5-14.5-110Z"/>
  <path stroke="#000" stroke-linecap="round" d="M123.2 176.5c0 .7.4 2.2 1.8 2.2 1.5 0 1.9-1.5 1.9-2.2m-48.5-69.9c0 8.9 6 15.2 16.3 14.8 10.4-.4 19.2-13.3 20.4-19.6m55.1 4.8c0 8.9-6 15.2-16.3 14.8-10.4-.4-19.2-13.3-20.4-19.6"/>
  <path stroke="#000" stroke-linecap="round" stroke-linejoin="round" d="M123 133.3a34.8 34.8 0 0 1 1.5 28.4"/>
  <path fill="#FBE0D1" d="M127.3 141.5c0-3-2.8-4 4.6-4.3 7.4-.4-.8-3.7-2-5-1.4-1.9 2.1-6.3 0-6-3.5.8-2.6-5.8-6.5-3.4-4 2.3-.2 4.6-2 5.4-2.5 1.2-2.3-4.7-5.4-2-3.1 2.8-5.5 4.4-2.8 7 2.8 2.8 4.2.6 4.7 2 .6 1.5-5 2-2 5.5 3.2 3.5 11.4 6.4 11.4.8Z"/>
  <path stroke="#000" stroke-linecap="round" stroke-linejoin="round" d="M123 134.6c.6 5.3-4.7 7.1-7.4 7.4-3.3.3 1.6-8.1 5.2-8.2 3.7-.2-2.4 3.5-8.2.2-5.7-3.3 7.2-3.1 9-1.6 1.8 1.5-5.6.4-7.3-6-1.7-6.4 7.6.8 8.6 4.5s-4-3.2-.5-8.4c3.4-5.2 6 4.4 2.8 8.4s-.1-3.7 5.3-6.9c5.4-3.1 1.6 8.2-4 9.4-5.7 1.2 1.7-4 6.9.4 5.1 4.3-3 4.5-7.6 1.5-4.3-3 2-2 1.4 6.2-.8 9-7.2-1-4.2-7Z"/>
  <path stroke="#000" stroke-linecap="round" d="M55.9 54a84.5 84.5 0 0 1 58.4-2.9c11.1 4.8 17.4 1.9 24.4 0 7-1.8 35.5-9.6 47.7-4.8 12.3 4.8 16.3 10 18.5 28.5 2.3 18.5-11 13-18.5 17-7.4 4-17.3-5.2-7.4-4.8 10 .4 1.2 4-4.8 21.4-5.9 17.4-10.4 34.1-5 55.1s19 44.9 3 54c-16 9.1-72.5 7-85-1.5s-6.5-26.5 0-52.5-13.6-45.8-11.7-58.4c1.8-12.6-2.3-6.6-8.2-9.6-5.9-3-5.1-7 1.5-6.3 6.7.7 1.9 8.1-8.5 6.3-10.4-1.9-16.8-7-16.3-13.3.9-11 6.7-31.1 16.3-31.1 15.2 0 45.1-10.4 47.7-17.8 2.6-7.4 27-8.8 32.6-1.4 5.5 7.4 21.4 14.4 33.6 15.9 12.2 1.5-10.7-1.5-16.2 2.2"/>
</svg>