<?xml version="1.0" encoding="utf-8"?>
<svg xmlns="http://www.w3.org/2000/svg" fill="none" viewBox="0 0 250 250">
  <path fill="#DEBEA6" d="M123 156.8c-5 3.1-27 5.1-37.2 5.7-5 1.8 7 4.9 17.7 4.9 10.6 0 19.4-4 19.4-1.3 0 2.6 3.6 13.2 9.3 21.6 5.8 8.5 18.6-23 21.7-34 3.1-11.1-4-21.3-5.7-22.2-1.8-.9-19 21.3-25.3 25.3Z"/>
  <path stroke="#000" stroke-linecap="round" d="M90.2 166.5c10.2-6.2 27-7.5 33.2-8.4 6.2-.9 20.3-26.1 23.4-25.7 3.1.5 10.2 6.6 6.2 16-4 9.2-18.6 27.8-16.8 39.3 1.8 11.6-5.7-7-9.3-13.7-3.5-6.6-3.5-10-12-7.5-13.7 4-38.9-3.1-24.7-3.5 14.1-.5 31-5.4 34.5-9.3"/>
  <path fill="#C67E57" d="M131.7 92.4c-6.8-10.3-10.8-24.8-13.3-33.2-1-3-6.6-6.2-18.6-1.3-12 4.8-15.5 24.3-15.5 34.5s-3 12-9.7 17.7c-6.7 5.8-10.2 13.3 0 18.2 10.1 4.8 1.3 25.2 9.7 37.6 8.4 12.4-11.5 26.6-20 25.7-8.3-1-21.6-22.6-26.5-38.1-4.8-15.5 14.6-39.4 26.6-51.4 12-12 22.6-47.8 30-54.4 7.6-6.6 43.5-13.3 63-4.4 19.4 8.8 33.6 37.6 34.5 61 .9 23.5 26.1 40.3 35 52.3 8.8 12-.5 14.2 0 40.3.4 26.1-70.4 31.4-99.7 27.4-29.2-4-24.3-25.2-6.2-36.7 18.2-11.5 34.1-44.7 33.3-54-1-9.3-14.2-28.4-22.6-41.2Z"/>
  <path stroke="#000" stroke-linecap="round" d="M85.3 175.8c.5 2.5-.3 7.8-6.6 8.8-8 1.4-1.8-5.3 1.7-2.6 3.6 2.6-5.7 2.6-16.8 7.5-11 4.9-41.6-27.9-28.3-53.6C48.6 110.3 62.7 99.2 68 88.6 73.4 78 83.5 45.2 99.5 44.3c16-.9 55.8-14.2 75.7 15 19.9 29.3 21.7 28 21.7 51 0 12.8 5.7 21.5 19.4 41.6 5.8 8.4 17.8 12.4 13.3 30-4.4 17.8 10.2 28-13.3 34.2-23.4 6.2-65 6.6-77.9 12.8-12.8 6.2-38-15-23-29.6 15-14.7-12.8 22-10.2 6.2 2.7-16 42.5-41.2 46-61.1 3.6-20-15-18.2-19.4-43-4.4-24.8-16-46.5-26.6-44.3a31.4 31.4 0 0 0-22.1 33.7c2.2 17.7-13.3 21.7-15 28.8-1.8 7 13.2 4.4 10.6 16.3-2.7 12-1.4 31 6.6 31s-2.8 2.7-2.2 8.9c.6 6.2 4 6.6 4.9 2.2"/>
  <path fill="#E7C9B3" d="M94.6 65.6c3.9-4.3 12.3-6.5 16-7.1 1.7-.4 5.7 0 7 4.8 1.4 5 9.8 31.5 19.5 42.5 9.7 11.1 13.7 25.3 11 24.8-2.6-.4-17.6 16.9-22 22.6-4.5 5.8-36 7.1-41.2 7.1-5.3 0-5.8-18.6-4-21.7 1.8-3 1.8-8 1.3-10.2-.4-2.2-13.7-7.5-11.5-10.2 1-1.2 1.5-3.1 5.3-7.2 4.4-4.7 12-12 11-18.9a31 31 0 0 1 7.6-26.5Z"/>
  <path stroke="#000" stroke-linecap="round" d="M89.7 105.4c2.8.2 10.2 0 12.9-3"/>
  <path fill="#000" d="M108.5 60.3a.5.5 0 0 0-.3-1l.3 1Zm-22 18.2.5.1-.5-.1Zm34.7 77.8-.2-.5.2.5Zm-26-89a.5.5 0 1 0 .6.9l-.6-.8Zm13-8a40 40 0 0 0-12.5 6 24.6 24.6 0 0 0-9.7 13l1 .3a24 24 0 0 1 9.3-12.4c4.3-3.1 9-5.1 12.2-6l-.3-.9ZM86 78.3c-1.8 6.8-.9 10.7-.3 13.8.4 1.6.6 3 .4 4.5-.1 1.4-.7 3-2 5.1l.8.6c1.4-2.2 2-4 2.2-5.6.2-1.7 0-3.2-.4-4.8-.6-3-1.5-6.7.3-13.3l-1-.2Zm-16 41.4 1 1.3 1.6 1.5c1.3 1 2.8 2.2 4.2 3.5 1.4 1.3 2.7 2.5 3.5 3.7.8 1.2 1 2.2.6 3l.9.4c.7-1.3.2-2.7-.7-4-.8-1.2-2.2-2.6-3.7-3.9l-4.1-3.5-1.6-1.4-.7-1-1 .4Zm10.9 13c-1.1 2-1.7 3.4-1.7 4.7 0 1.4.6 2.4 1.8 3.4l.6-.8c-1-.8-1.4-1.6-1.4-2.6s.5-2.3 1.6-4.3l-1-.5Zm.1 8 .4.5v.5c0 .2 0 .4-.2.7l-.3 1a8.2 8.2 0 0 0 0 6.5l.9-.4c-1-2.7-.5-4.5 0-5.8l.4-1 .2-.9v-1c-.2-.3-.4-.6-.8-.8l-.6.8Zm0 9.3c1 2.7.4 5.4 0 7.8a8.1 8.1 0 0 0 0 3.4c.4 1 1.1 1.8 2.5 2.3l.3-1c-1-.3-1.6-.9-1.8-1.6-.2-.8-.1-1.7 0-3 .4-2.2 1-5.3-.1-8.3l-1 .4Zm2.5 13.5c.7.3 1.6.4 2.8.4l4-.3c3.2-.3 7-1 10.8-1.7 7.7-1.6 15.9-3.7 20.3-5l-.3-1a255.3 255.3 0 0 1-30.8 6.7 36 36 0 0 1-4 .3 8 8 0 0 1-2.5-.3l-.3 1Zm38-6.6c2.2-.7 4.4-2.5 6.7-4.7s4.7-5 7-7.6c2.4-2.7 4.7-5.4 7-7.4s4.5-3.4 6.6-3.8l-.2-1c-2.3.4-4.7 2-7 4a73.3 73.3 0 0 0-7.1 7.5c-2.4 2.7-4.7 5.4-7 7.6a17.4 17.4 0 0 1-6.4 4.4l.3 1Zm27.3-23.5c1.1-.1 2-.5 2.6-1 .5-.6.7-1.4.6-2.2a8 8 0 0 0-1.2-2.7c-.5-1-1.3-2.1-2.2-3.3l-6.8-8c-2.6-3-5.3-6.2-7.7-9.7l-.8.6c2.4 3.5 5.1 6.8 7.7 9.7 2.6 3 5 5.7 6.8 8l2.2 3.2c.5 1 .9 1.7 1 2.3 0 .6 0 1-.3 1.4-.4.3-1 .6-2 .8v1Zm-14.8-27a56 56 0 0 1-6.3-13.9c-1.9-5.5-3.6-11.6-5.3-17.2A75.9 75.9 0 0 0 117 61c-1-1.7-2-3.1-3.3-4a4.6 4.6 0 0 0-4-.8l.2 1c1.2-.4 2.2-.1 3.2.6 1 .8 2.1 2 3 3.7a75 75 0 0 1 5.5 14c1.7 5.6 3.4 11.8 5.2 17.3a61 61 0 0 0 6.5 14.2l.8-.6Zm-24.5-50.2a19 19 0 0 0-10 6l-2.2 3a11 11 0 0 1-2 2.2l.5.8c1-.6 1.6-1.4 2.3-2.4.7-.9 1.3-1.9 2.2-2.9a18 18 0 0 1 9.5-5.7l-.3-1Zm-25.4 45.5c-2.7 4.2-6.4 8-9.4 11a48.2 48.2 0 0 0-4.6 5.5 2 2 0 0 0 0 1.5l.9-.4v-.7l.9-1.4 3.5-3.9c3-3 6.7-6.7 9.5-11l-.8-.6Z"/>
  <path stroke="#000" stroke-linecap="round" d="M84 141.3c3 0 5.4.2 7.5-.5"/>
  <path stroke="#000" stroke-dasharray="4 4" stroke-linecap="round" d="M65.5 113c4.5-1 13.1-8.5 13.5-16.5"/>
  <path stroke="#000" stroke-linecap="round" stroke-linejoin="round" d="M54.5 96c2.5 3.5 5 6.3 10.7 10m0 0c7.2 4.5-1.8-1-3.5 0m3.5 0c7.2 4.5-1.4-1-1.6-3.4M60.5 88c2.5 3.5 5 6.3 10.7 10m0 0c7.2 4.5-1.8-1-3.5 0m3.5 0c7.2 4.5-1.4-1-1.6-3.4"/>
  <path fill="#FBDE76" d="M188 94.2c-6.2-5.4-4.1-15.5-14.5-20-10.5-4.3 1.2 13.2 5 18.8 3.7 5.5 17.7 11.2-1.1 10.3-18.8-1-17 6.7-9.5 8.5 7.5 1.7 23.2-6.2 17 4.8-6.4 11.1-1 20.6 3 19.6 3.8-1 1.9-19 7.2-15.7 5.3 3.2-4.8-17.9 6.9-6.6 11.6 11.3 17.7.6 7.9-4-9.9-4.5-8.2-12.5-5.4-13.9 2.8-1.4 10.8-7.6 1.9-8.6-9-1-10.5 13.4-18.3 6.8Z"/>
  <path stroke="#000" stroke-linecap="round" stroke-linejoin="round" d="M205 124.8c-8.3-1.4-23-8.3-13.4-18.2 12-12.3 27.4 6.9 27.2 15.5-.2 8.6-25-9.1-26.7-19.4-1.8-10.2 10-20.7 22.3-19.9 12.3.9-16 22.3-25.8 19.9-9.8-2.4-21.4-23.3-17.7-30.6 3.8-7.3 24.4 23.4 18.4 35.1m0 0c-6 11.8-28.6 6.8-31.7 1.3-3-5.5 26-14.2 31.7-1.3Zm0 0c5.7 13 2.7 39.2-5 30-8.3-9.7-.2-26.7 8-28.2 8-1.6-.8 24.3 9.7 36.3 10.5 12 24.3 5.7 24 4.5"/>
  <path fill="#E5BAFF" d="M76.7 37c-6.5-.6-10.9 13-10.5 10.3 2.5-14.9-9.4-15.5-2.3-14.5 7.5 1 10.7-18.6 8.5-6.8-2.2 11.5 12.7 12 4.3 11Z"/>
  <path fill="#000" d="M63.3 49H63h.4Zm10.5-10.2v-.4.4Zm-4.3-11H69h.5ZM61 34.5v.5-.5ZM62.9 49v.8h.8v-.1a25.2 25.2 0 0 0 .5-1l2.2-3.7c1-1.5 2-3 3.3-4 1.3-1.2 2.7-1.8 4-1.7l.2-1c-1.8-.1-3.5.7-4.8 1.9a19 19 0 0 0-3.5 4.2c-1 1.5-1.7 3-2.2 3.9a24.7 24.7 0 0 1-.4.7h.7l.1.3v-.2l-1-.1Zm10.9-9.7 2.1.3a6.3 6.3 0 0 0 .6 0c.1 0 .2 0 .3-.2a.5.5 0 0 0 0-.7h-.2l-.3-.2a19.2 19.2 0 0 1-2-1 9.4 9.4 0 0 1-3.4-3.2 8.9 8.9 0 0 1-1-6.4l-.9-.2a9.6 9.6 0 0 0 4.7 10.7 14.2 14.2 0 0 0 2.2 1l.2.1-.1-.2a.5.5 0 0 1 .3-.7H76l-2.1-.2-.1 1ZM70 28l.6-3a13 13 0 0 0 0-1v-.2a.5.5 0 0 0-.5-.2l-.3.1v.1l-.1.2-.1.2-.3.7a42 42 0 0 1-.9 2.1c-.7 1.6-1.7 3.6-3 5-1.2 1.5-2.7 2.4-4.3 2.1l-.2 1c2.2.3 4-.9 5.3-2.4a21.3 21.3 0 0 0 4-7.4l.3-.7v-.2c.1 0 .1 0 0 0 0 0 0 .2-.2.2a.5.5 0 0 1-.5-.2l-.1-.2s0-.1 0 0l-.1.5-.6 3.1 1 .2Zm-9 6-1.8-.2h-.8a.5.5 0 0 0-.1.7l.1.2.2.2.4.3 1 1c1.8 1.8 4 5.5 3 12.8l1 .1c1.2-7.5-1.2-11.6-3.1-13.6l-1.2-1.1-.4-.3c0-.1 0 0 0 0v.2l-.1.3-.2.1h.2l1.8.3.2-1Z"/>
  <path fill="#FFBABA" d="M56.3 45.7c-3.2 2.7.9 10.7-.1 9.4-5.6-7.8-11.3-2.8-7.6-5.5 3.8-3-3.6-13.2.7-6.9 4.2 6.2 11.1-.4 7 3Z"/>
  <path fill="#000" d="m55.7 57.2-.5.3.5-.3Zm0-9.4-.2-.4.3.4Zm-6.9-3-.4.3.4-.3Zm-.7 6.9.3.4-.3-.4Zm7.1 5.8h.2l.1.2.3.1a.5.5 0 0 0 .5-.5v-.4l-.2-.4-.7-2.6a12 12 0 0 1-.4-3.3c.1-1 .4-1.8 1.1-2.4l-.6-.8c-1 .8-1.4 2-1.5 3.2 0 1.1.1 2.4.4 3.5.2 1.1.6 2.1.8 2.7v.4l.1.1V57a.5.5 0 0 1 .8-.2l-.9.6Zm.9-9.3 1-.8a4.1 4.1 0 0 0 .3-.3h.1a.5.5 0 0 0-.5-.8l-.2.1a12 12 0 0 1-1.4.5c-.8.2-1.8.3-2.9 0-1-.2-2.2-1-3.1-2.4l-.9.6a6.5 6.5 0 0 0 3.8 2.8c1.2.3 2.5.2 3.4 0a9.2 9.2 0 0 0 1.5-.6s.1 0 0 0H57a.5.5 0 0 1-.2-.8 3 3 0 0 1-.2 0l-1 1 .6.7Zm-6.8-3.7L48 43a8.5 8.5 0 0 0-.3-.4v-.1a.5.5 0 0 0-.5-.1l-.3.2v.6l.3.4.5 1.4c.4 1 .8 2.3.9 3.5 0 1.2-.2 2.2-1 2.8l.7.8c1.1-.9 1.4-2.3 1.3-3.7a13.8 13.8 0 0 0-1.5-5.2l-.2-.4v-.1c0 .1 0 .3-.2.4a.5.5 0 0 1-.5.2l-.1-.1H47l.2.3 1.1 1.6.9-.6Zm-1.5 6.8-1 .7-.2.2-.1.1v.2a.5.5 0 0 0 .3.6h1.6c1.5 0 4.1.6 6.8 4.4l.9-.6c-3-4-5.9-4.8-7.7-4.9a8 8 0 0 0-1 0H47v.1c.1 0 .2 0 .3.2a.5.5 0 0 1 0 .5h.1l1-.7-.6-.8Z"/>
  <path fill="#FFDD9B" d="M74.9 57.4c-3.4.5-3.8 8-4 6.5-.7-7.8-6.7-6.5-3-7 3.9-.4 2.8-10.7 3.3-4.5.5 6.1 8 4.3 3.7 5Z"/>
  <path fill="#000" d="M69.8 65.2h-.5.5Zm3.9-6.5-.1-.5v.5Zm-3.7-5h-.5.5Zm-3.4 4.5.1.5v-.5Zm2.7 7v.4s.1.2.3.2a.5.5 0 0 0 .7-.1v-.4l.2-.3c0-.5.2-1.3.5-2.2l1-2.4c.6-.7 1.1-1.1 1.8-1.2l-.2-1c-1 .1-1.8.8-2.3 1.6-.6.8-1 1.8-1.3 2.7l-.5 2.3v.3h-.1l.2-.1a.5.5 0 0 1 .6.2h-1Zm4.5-6 1-.2a3.5 3.5 0 0 0 .4 0v-.1a.5.5 0 0 0 0-.9H75a9.6 9.6 0 0 1-1.1-.3 4 4 0 0 1-2-1.1 4.4 4.4 0 0 1-1.3-3l-1 .1a5.2 5.2 0 0 0 4 5 7.7 7.7 0 0 0 1.3.2l-.2-.1a.5.5 0 0 1 .3-.8h-.2c-.2 0-.6 0-1.1.2l.2 1Zm-3.3-5.5-.1-1.7a7.1 7.1 0 0 0 0-.4l-.1-.1a.5.5 0 0 0-.3-.3h-.4l-.2.2v.4l-.1.4-.2 1.2a9 9 0 0 1-.8 2.8c-.4.9-1 1.4-1.7 1.5l.1 1c1.2-.1 2-1 2.5-2a11.3 11.3 0 0 0 1-4.4l.1-.4c0-.1 0 0 0 0l-.3.3a.5.5 0 0 1-.5-.1l-.1-.2v.2l.1 1.6h1Zm-4 4-.9.1-.3.1-.3.2a.5.5 0 0 0 0 .7h.3v.1l.3.1.7.4c1 .6 2.6 2.1 3 5.9l1-.1c-.4-4-2.2-5.9-3.5-6.7l-.8-.4h-.2l.1.2a.5.5 0 0 1-.2.5h1l-.1-1Z"/>
</svg>