<?xml version="1.0" encoding="utf-8"?>
<svg xmlns="http://www.w3.org/2000/svg" fill="none" viewBox="0 0 250 250">
  <path fill="#E79080" d="M46.2 130c-13.4 6.5-16.4 4.8-17.7-1.3-1.3-6 4.3-17.7 23.3-41.8a82.7 82.7 0 0 1 35.7-24.2c9.6-2.5 12.7 2.8 24 3 5.4.2 11.4-3.8 17-3 30.8 4.1 64.5 50.7 72.8 61.2 8.3 10.6-9.5 18.8-23.8 2.6-20.9-23.7-50.4-24.7-69-25.7-18.7-1-45.5 21-62.3 29.2Z"/>
  <path fill="#EDA091" d="M52.7 149.9c-14.8-7.8-16.5-18-15.5-22 0-3 8 .8 16.8 0 9.7-1 20.7-6.6 29.7-6.6 17.2 0 19.3 6.6 36.8 1.6 17.6-5 39 .8 50.8 5 11.8 4.1 29.2-1.8 27.6 8.4-1.6 10.2-39.3 24.6-55.6 28.7-16.2 4.2-25.6-3.5-43.7 0-18 3.5-28.4-5.4-46.9-15.1Z"/>
  <path stroke="#000" stroke-linecap="round" stroke-linejoin="round" d="M25 128.3c9-16.8 29.5-52 40.4-58.7 13.5-8.3 25.8-12.4 30.8-11 5 1.4 18.1 4.1 28.2 0 10-4.2 42.8 20.6 51 28 8.4 7.3 25.1 31 25.9 38 .8 7-9 11-17.4 3.7-8.4-7.3-19.1-21.2-44-26.8-25-5.6-34.6-3.2-48.2 0-13.6 3.2-34.3 21.7-43.4 25.5-9.1 3.9-28.6-.3-15.5 11.8C46 151 66 171.4 94.2 169.3c28.3-2.3 31.5 2.8 48.7-1.5 17.2-4.3 56-17.8 55.9-34-.2-16-4.8-.3-28.8-5.4-23.9-5-33.6-9-47-6.4-13.4 2.8-31.6-2.7-45.7 0-14 2.8-30.3 10-44.5 6.4-14.2-3.7-.5-13.4 6-20"/>
  <path fill="#fff" d="M97.4 137.3c-8.5.7-27-1.2-35-2.2-2.6-.3-6 0 0 2.2 6 2.1 45.5 3 51.5 1.8s10.5 0 19 1.3c8.5 1.2 31.5.6 30-1.3-1.5-1.8-17.5 0-26.5-1.8-9-1.9-28.5-1-39 0Zm-1.9-71.1C82.6 64.4 71.1 73.3 67 78c-2.3 2.3 0 3.8 6-2.3 6-6 16-7.2 20-7.2 4.1 0 17.7 1.5 27.2 1.5 9.6 0 8.9-1.5 16.9 0 8 1.6 19 10.7 17 8-2-2.7-13.8-13.3-22.8-11.8a110 110 0 0 1-35.7 0Z"/>
  <path fill="#8FB5ED" d="M158.4 174.2c3.4-5.6-1.7-20.6-7.7-22.2-6.1-1.7-34.6 17.3-50.4 28-15.9 10.7-4.4 16.4 1.5 18.6 5.9 2.3 53.1-18.9 56.6-24.4Z"/>
  <path fill="#000" d="M222.8 102.4a.5.5 0 0 1 1 0h-1Zm12 25.7.3-.4-.2.4ZM81 199.3l-.3-.4.3.4Zm-24.7 16.4.2.4a.5.5 0 0 1-.5-.8l.3.4ZM87 198l.2.4-.3-.4Zm105.7-64.8a.5.5 0 1 1-.9-.4l1 .4Zm31-31c0 3.1.7 8 2.4 13 1.7 4.9 4.6 9.6 9 12.4l-.6.8a24.2 24.2 0 0 1-9.3-12.9 44 44 0 0 1-2.5-13.2h1Zm11.3 25.4a7 7 0 0 0 3.2 1.1c.7 0 1-.3 1.2-.7.3-.5.3-1.2 0-2.1-.3-1-.9-1.9-1.8-2.8-3.5-3.8-11.9-7-26 0l-.4-.9c14.4-7 23.3-4 27.2.2 1 1 1.6 2.1 2 3.2.3 1 .3 2 0 2.8-.4.8-1.2 1.3-2.2 1.3a7 7 0 0 1-3.7-1.3l.5-.8Zm-23.3-4.5a96.6 96.6 0 0 0-14.4 8.2c-2.8 2-3.7 3.6-3.7 5 0 .7.1 1.4.4 2.1l1.4 2.6a24 24 0 0 1 2.9 7.3l-1 .2a23 23 0 0 0-2.8-7l-1.4-2.7a6 6 0 0 1-.5-2.6c0-1.8 1.3-3.6 4-5.7 3-2.2 7.5-4.8 14.6-8.3l.5 1Zm-13.4 25.2c.2.8.2 1.4.2 2 0 .5-.1 1-.4 1.3-.2.3-.6.5-1 .5-.5 0-.9-.1-1.3-.3a13 13 0 0 1-3-2.2 58.4 58.4 0 0 1-9.7-12.9c-.8-1.5-1.5-3-1.9-4.3a5.7 5.7 0 0 1-.2-3.3l1 .3c-.2.6-.2 1.5.2 2.8a57.3 57.3 0 0 0 11.3 16.7c1 1 2 1.6 2.7 2l.8.2.3-.1.2-.8c0-.4 0-1-.2-1.7l1-.2ZM181 129.1c.2-.5.5-.8.9-1a2 2 0 0 1 1.3-.2c.9.1 2 .7 3 1.5a33 33 0 0 1 6.8 7.7c2 3.3 3.6 7 3.8 10.3a9 9 0 0 1-1 4.8c-.8 1.4-2 2.6-3.9 3.6l-.4-1a8 8 0 0 0 3.4-3.1 8 8 0 0 0 .9-4.2 29.6 29.6 0 0 0-10.2-17.2c-1-.9-2-1.3-2.6-1.4h-.7l-.3.5-1-.3Zm11 26.7a2702.7 2702.7 0 0 1-70.1 34l-9.6 4.2c-2.6 1-4.7 1.7-6 1.9l-.1-1c1.1-.2 3-.8 5.7-1.9l9.6-4a2704.6 2704.6 0 0 0 70-34l.4.8ZM106.4 196c-2.4.4-4.4.3-6.1 0-.9 0-1.7-.3-2.5-.4l-2.4-.4c-3.3-.4-7.1 0-14.3 4.5l-.5-.8c7.3-4.5 11.4-5.1 14.9-4.7.9 0 1.7.2 2.5.4l2.4.5c1.7.2 3.5.3 5.8 0l.2.9Zm-25.3 3.7a603.3 603.3 0 0 0-24 16c-.2 0-.3.2-.5.3h-.1l-.3-.3-.3-.4.2-.2a375.2 375.2 0 0 1 8.8-6c5-3.3 11.2-7.4 15.7-10.2l.5.8Zm-25 16-.1-.5h.2a99.8 99.8 0 0 0 2.8-1.4l7.7-3.8c6-3.3 13.7-7.6 20-12.3l.5.8a156.6 156.6 0 0 1-30 17.2 62.6 62.6 0 0 1-.8.4l-.2-.4Zm30.6-18c1.2-1 2.2-2.3 3-4 1-1.7 1.6-3.6 2.3-5.5.6-1.9 1.3-3.8 2.2-5.5.8-1.7 1.9-3.2 3.3-4.3l.6.8c-1.2 1-2.2 2.3-3 4-.9 1.6-1.5 3.4-2.2 5.4-.7 1.9-1.4 3.8-2.2 5.5-1 1.8-2 3.3-3.5 4.4l-.5-.8Zm10.8-19.3a1124.5 1124.5 0 0 1 70.8-43 113.8 113.8 0 0 1 13.6-5.9 7 7 0 0 1 1.2-.2c.4 0 .8 0 1 .2l-.3.9h-.6a23 23 0 0 0-4.4 1.2c-2.6 1-6 2.6-10 4.7a1127.4 1127.4 0 0 0-70.6 43l-.7-.9Zm86.7-49c1.7.8 2.8 2 3.7 3.4.4.6.8 1.3 1 1.9l1 1.6c.3.5.6.8.9 1 .3.2.6.2 1 .2s1-.3 1.7-.8l2.6-2.3.7.7c-1 1-2 1.8-2.8 2.4-.7.5-1.4.9-2 1-.7 0-1.3 0-1.8-.4-.4-.3-.8-.8-1.1-1.3l-1-1.6a24 24 0 0 0-1-1.9 7.4 7.4 0 0 0-3.3-3l.4-.8Zm11.9 5 2.3-2.7a5 5 0 0 0 .8-1.7v-.6c-.2 0-.4-.2-.7-.1-.8 0-2 .4-3 1a7.6 7.6 0 0 0-2.8 3l-.9-.4a8.6 8.6 0 0 1 3-3.3 7.2 7.2 0 0 1 3.6-1.3c.5 0 1 0 1.4.4.4.4.5 1 .4 1.5a6 6 0 0 1-1 2c-.6.8-1.3 1.8-2.4 2.9l-.7-.7Z"/>
  <path fill="#FAD8D2" d="M147.6 61.8c-4.6-.5-7.8 9-7.5 7.2 1.8-10.5-6.6-11-1.6-10.3 5.3.8 7.6-13.1 6-4.7-1.6 8.1 9 8.4 3 7.8Z"/>
  <path fill="#000" d="m138.1 70.3-.5-.1h.5Zm7.4-7.3v-.5.5Zm-3-7.8h-.6.5Zm-6 4.8-.1.5V60Zm1.1 10.2v.4l.1.3h.7l.1-.1.2-.3.2-.4 1.5-2.7c.6-1 1.4-2 2.3-2.8.9-.7 1.8-1.2 2.8-1v-1c-1.3-.2-2.5.4-3.5 1.3-1 .8-1.8 2-2.5 3l-1.5 2.7a20.7 20.7 0 0 1-.2.5h.2c.1-.1.3 0 .4 0l.2.3-1-.2Zm7.9-6.7 1.5.2a4.5 4.5 0 0 0 .4 0c.1 0 .3 0 .4-.2a.5.5 0 0 0-.1-.7h-.1l-.3-.1a13.2 13.2 0 0 1-1.4-.7 6.5 6.5 0 0 1-2.4-2.3 6 6 0 0 1-.6-4.4l-1-.2c-.4 2.2 0 3.8.8 5.1a6.6 6.6 0 0 0 2.7 2.6 10.1 10.1 0 0 0 1.5.8h.2c-.1 0-.2 0-.2-.2a.5.5 0 0 1 .4-.7h-.2c-.3 0-.8 0-1.5-.2l-.1 1Zm-2.6-8.2.5-2.2a10 10 0 0 0 0-.5v-.3l-.2-.2h-.6v.2l-.2.1v.2l-.2.5-.6 1.4c-.5 1.2-1.2 2.5-2.1 3.5-1 1-2 1.6-3 1.5l-.1 1c1.5.2 2.8-.7 3.8-1.8a15.2 15.2 0 0 0 3-5.3V53l.1-.1s-.1.2-.3.2a.5.5 0 0 1-.5-.2v-.2l-.1.4-.5 2.1 1 .2Zm-6.4 4.2-1.3-.2a2 2 0 0 0-.4 0l-.3.1-.2.4v.2l.2.2.1.1.3.2.8.8c1.1 1.2 2.7 3.8 1.9 8.9l1 .1c.9-5.4-.8-8.3-2.2-9.7l-.9-.8-.2-.2c-.1-.1 0 0 0 0v.2a.5.5 0 0 1-.3.5c-.1 0 0 0 0 0l1.4.2.1-1Z"/>
</svg>