<?xml version="1.0" encoding="utf-8"?>
<svg xmlns="http://www.w3.org/2000/svg" fill="none" viewBox="0 0 250 250">
  <path fill="#594948" d="M208.3 48.1c14.6 13 9.5 27 5.1 32.5-4.2 9.8-13.6-23.7-51-32.5-37.5-8.8-40.8 40-53.2 39.5-12.4-.5-30 19.6-20.4 60.4 3.3 14.2 28.2 49.8 20.4 63.4-14.5 25.4-83.7 12.7-79 7 4.5-5.5 2.8-26.6 9.6-45.2 4.1-11.3 18.7-19.2 18.6-29.1-.6-26-5.5-92.6 47.2-112.8 52.6-20.1 84.3.5 102.7 16.8Z"/>
  <path fill="#E7C9B3" d="M117.2 68.5c17.1-20.9 39-25.6 66.3-18 27.3 7.4 33.3 25.7 35.3 51.8 2.1 26-15.4 26-15 45.4.6 19.3-13.3 21.7-22.4 34.8-9 13.2-3.8 5.7-42.3-10-38.4-15.8-36.1-21.4-39.2-39C96.8 116 89 132 73.3 112.3c-15.7-19.6 5.7-28 15.8-21.1 10 7 6.7 3.3 28-22.7Z"/>
  <path fill="#CF807B" d="M186.7 147.3a47.4 47.4 0 0 0-21.2 4c-2.7 2.4 10.9.5 15.3 1.5 4.5 1 6.6 6 7.4 9 .7 3.1 1.8 4.4 2.5 4 .8-.2 4.6-5.7 4-9.8-.5-4-2-4.2-3.6-4.6-1.6-.5-1-3-4.4-4.2Z"/>
  <path fill="#DE908B" d="M182.7 158c-4.3-3-14.7-6-16-5.7a37 37 0 0 0 11.1 13.2c5.4 4 11.4 4.4 11.9 2.8 1-3.3-1.6-6.4-7-10.3Z"/>
  <path fill="#E7C9B3" d="M113.8 161.4c-14.6-4.8-17.3-26-16.7-36.2 0-5-4.4 6.2-6.8 13.7-2.3 7.5 11.4 34.9 18.4 43.6 7 8.8 8.7 21.7 14.4 19.9 5.7-1.8 20.1 8 24-1.8 3.9-9.8 26.3-5.7 26-9.8-.2-4.1-41-23.5-59.3-29.4Z"/>
  <path stroke="#000" stroke-linecap="round" d="M93.7 105.9c-4.4 7-2.6-1.6-7.2-11.4-4.7-9.8-14.5-7-15.2 4.4-.8 11.4 13.6 13.2 19.8 15.8 6.2 2.5 5.2 5.9 2.6 13.9s-12.9-3-18-8c-5.2-4.9-11.2-19.6-7-30.4 4.1-10.9 22.7-4.7 27.6 2.8 4.9 7.5 3.3 51.6 5.7 60.1 2.3 8.5 47 26 64 35.1 17 9 13.1.5 15-3.3a94.6 94.6 0 0 1 14.9-18.9c5.4-5.1 7.2-19 7.2-23.5 0-4.3.3-4.9 1.6-8.5 1.2-3.6 5.1-7.2 6.4-11.6 1.3-4.4 6.7-5.7 7-10.3.2-4.7-1.3-21.4-3.1-32.8-1.5-9-2-12.6-10.3-20.4A57.5 57.5 0 0 0 159 47c-25 3.5-46.2 24.2-57 38.6-10.9 14.5-8.3 3.9-14.2 0"/>
  <path stroke="#000" stroke-linecap="round" d="M94.7 116.7c1.3.5 3.9 2.4 3.6 6.5-.2 5.1-4 28.1 7.3 34.6 11.3 6.4 60.9 28.6 66.8 31.2 6 2.6.5 7.7-10.8 5.7-11.4-2.1-15.3 4.9-12.2 10.3 3.1 5.4-22.7-6.5-37.6 6.4-15 13 22.7 8.3 2-16.7-20.6-25-22.5-57.3-19-63.3 3.4-5.9 7.2-9.5 3.5-17"/>
  <path fill="#D9AA93" d="M158.5 123a84.3 84.3 0 0 0-30-27c-3.5-1.7-11.6-1.5-5.9 17.1 5.7 18.6 47.7 26.6 35.9 9.8Z"/>
  <path fill="#CF807B" d="M165.4 101.3a45 45 0 0 1-11.8-10.6c-2.1-2.6-.6-10.6 0-7.5.5 3 8 14.3 13.6 17 8.3 4 14 .8 11.1 2.3-2.8 1.6-7.7 1.6-12.9-1.3Z"/>
  <path stroke="#000" stroke-dasharray="4 4" stroke-linecap="round" stroke-linejoin="round" d="M122.4 98.5c.7-4.5 14 .2 24.4 10 9.3 8.8 17.6 18.5 13.6 21.5"/>
  <path stroke="#000" stroke-linecap="round" d="M156.1 89.9a22 22 0 0 0 22.7 12.6"/>
  <path fill="#CF807B" d="M204.4 127.3c-1.8-1.6-3.4-4.9-2.9-5.5.6-.6 1.4 2.3 4.4 4.6 3 2.3 5.4 1.2 4.2 1.7-1.3.5-3.8.8-5.7-.8Z"/>
  <path stroke="#000" stroke-linecap="round" d="M202.3 122.4a7.8 7.8 0 0 0 6.7 6"/>
  <path fill="#ECD2BF" d="M200 114.7c-.8-4 4.7-10 8-11.6 2.3-1.4 0-.8-3.9 0-3.8.7-11 9.2-7 13.4 4.2 4.1 3 18.8 4.2 20.1 1.3 1.3 4.6-5.7 2.8-10.8-1.8-5.2-3-6.2-4-11.1Z"/>
  <path stroke="#000" stroke-linecap="round" d="M208.5 103.3c-1.6.7-8.6 7-8.2 10.3.5 4.2 5.9 17.3 3.6 22-1.6 3-5.7 4.1-9.6 4.1"/>
</svg>