<?xml version="1.0" encoding="utf-8"?>
<svg xmlns="http://www.w3.org/2000/svg" fill="none" viewBox="0 0 252 250">
  <path fill="#A197DE" fill-rule="evenodd" d="M134 44c-36.8-.4-53.5 16.5-57.5 35s-2 29.5 6 62 30.2 76 77 52.5c40-20 41-82.9 41.5-101.4S180 44.5 134 44Zm-49.5 57.6c5.3-9.5 17.6-15 32-9.5 18 7 3.4 19.3-7 21-11.8 2-30.3-2-25-11.5ZM152 91.5c15.2-2.8 26.5 6 23 13s-13.7 9.5-25 5.5c-11.4-4-16-15.1 2-18.5Zm-34.8 46.8c2.2-4.2 7.3-6.6 13.2-7.8 7.4-1.5 20.7 6.7 19.5 8.3-1.2 1.7-35 3.8-32.7-.5Zm29.3 28.7c-16.5 6.5-29 3-33.5-5s9-10 21-10 29 8.5 12.5 15Z" clip-rule="evenodd"/>
  <path stroke="#000" stroke-linecap="round" d="M78 71.5c7-23.5 30.9-34.8 52.5-34 27 1 52.5 11.5 65.5 31.5s-4 93-30 115a46 46 0 0 1-62 1C80.7 166.4 56 71.5 84 62.5s0 19.5 0 34 42 16.5 36 0-40.5-9-38.5 12"/>
  <path stroke="#000" stroke-linecap="round" d="M133 128.5a26 26 0 0 0-15.5 6c-4.5 3.5 10 4 15.5 4s19 0 14.5-4-9-6-14.5-6Zm-1 21c-7 0-25 3-20 10s15 9 20 9 16-2 21-9.5-14-9.5-21-9.5Zm26.5-61c-10.5-.5-15.5 4.5-17 11s16 12.5 29.5 6.5-2-17-12.5-17.5Z"/>
  <path fill="#F9DC78" d="M207.4 130.6c-2.4-6.5 14-23.7 18.5-26.6 4.5-3 1.8 3.6-.3 8.3-2 4.6-2.3 9.4 6.6 4.5 8.8-4.8 7.6-1.3 1.4 12-6.2 13.3-23.4 10-26.2 1.8Z"/>
  <path stroke="#000" stroke-linecap="round" d="M221.6 139c-15 4.2-13.7-11.7-6.3-25 9.2-16.8 13.2-20.7 14-17.6 1 3-3.4 44.4-18.8 41-15.3-3.3 31-29.6 39-29.5 7.8 0-25 35.7-42.4 32.7s-19.6 66.7-53.4 78.5"/>
  <path fill="#F978E4" d="M46.2 122.3c4.6 5.1-4 27.3-7.1 31.7-3 4.4-3-2.7-2.9-7.8.2-5.1-1.4-9.6-7.8-1.8s-6.6 4.2-5.8-10.5c.8-14.7 18-18 23.6-11.6Z"/>
  <path stroke="#000" stroke-linecap="round" d="M35.2 120c14.2-6.6 15.4 9.3 10.3 23.7-6.4 18-9.6 22.5-11 19.6-1.4-2.9-3.7-44.4 12-43.6 15.6.9-25.8 34.3-33.6 35.5-7.9 1.3 18.7-39.2 36.4-39.1 17.6.1 8.5-69 40-86.2"/>
</svg>