<?xml version="1.0" encoding="utf-8"?>
<svg xmlns="http://www.w3.org/2000/svg" width="250" height="250" viewBox="0 0 250 250" fill="none">
<path d="M228.475 158.064C237.832 156.149 240.213 153.225 238.801 151.618C237.389 150.011 217.475 153.274 211.662 156.63C205.849 159.986 200.384 159.75 203.598 156.926C206.811 154.102 222.758 112.925 219.167 112.576C215.575 112.228 203.099 126.697 200.826 142.057C198.553 157.417 195.145 163.26 190.898 167.649C186.65 172.039 190.009 143.458 190.174 133.675C190.339 123.892 183.758 130.113 182.998 158.162C182.239 186.212 170.961 189.332 169.377 172.324C167.792 155.317 171.387 121.271 161.058 162.111C150.729 202.95 167.819 196.474 189.063 199.71C210.307 202.945 211.003 195.762 188.921 191.073C166.838 186.384 180.991 174.822 196.883 179.694C212.775 184.567 224.973 178.008 213.819 173.791C202.666 169.574 196.587 171.631 200.875 164.795C205.164 157.96 216.778 160.458 228.475 158.064Z" fill="#FF4572"/>
<path d="M44.2474 228.924C85.3311 228.786 181.161 210.861 209.001 143.635C243.802 59.6028 177.84 156.782 204.088 161.973C230.336 167.163 240.017 156.245 241.092 152.234C242.167 148.223 202.421 149.856 193.455 169.565C184.489 189.273 165.979 168.959 207.669 171.531C249.359 174.103 187.006 193.633 182.567 166.647C178.128 139.662 186.398 127.137 189.038 124.16C191.678 121.182 196.668 166.741 181.174 181.015C165.68 195.289 150.956 172.304 163.259 142.434C175.562 112.564 173.919 176 167.481 190.858C161.043 205.716 135.667 174.349 190.26 188.363C244.854 202.377 179.841 208.91 154.956 182.588" stroke="black" stroke-linecap="round"/>
<path d="M190.512 48.0987C205.168 61.1031 200.059 75.1912 195.673 80.6097C191.412 90.4146 181.998 56.8716 144.584 48.0987C107.171 39.3259 103.816 88.0925 91.4313 87.5764C79.0462 87.0604 61.4989 107.186 71.0458 147.954C74.3852 162.214 99.2341 197.769 91.4302 211.428C76.9243 236.818 7.778 224.099 12.4755 218.395C16.9607 212.948 15.2412 191.798 22.0223 173.24C26.1641 161.906 40.7963 153.965 40.6006 144.084C40.0845 118.023 35.1821 51.453 87.819 31.3272C140.456 11.2013 172.193 31.8432 190.512 48.0987Z" fill="#9F9CA5"/>
<path d="M99.4289 68.4829C116.562 47.6346 138.39 42.938 165.741 50.4207C193.091 57.9034 199.026 76.2229 201.09 102.283C203.154 128.344 185.609 128.344 186.125 147.696C186.641 167.047 172.708 169.37 163.677 182.529C154.646 195.689 159.806 188.206 121.361 172.466C82.9152 156.727 85.2374 151.051 82.1411 133.505C79.0448 115.959 71.3042 131.957 55.5648 112.347C39.8253 92.7372 61.2413 84.2224 71.3042 91.189C81.3672 98.1557 78.0129 94.5433 99.4289 68.4829Z" fill="#E7C9B3"/>
<path d="M168.941 147.251C166.196 146.395 150.419 148.712 147.737 151.214C145.055 153.715 158.635 151.799 163.096 152.802C167.556 153.805 169.693 158.838 170.409 161.894C171.124 164.95 172.238 166.171 172.994 165.863C173.749 165.556 177.535 160.138 177.01 156.035C176.485 151.932 174.923 151.775 173.345 151.361C171.766 150.946 172.372 148.321 168.941 147.251Z" fill="#CF807B"/>
<path d="M164.966 158.017C160.631 154.921 150.259 152.083 148.969 152.341C148.276 152.479 153.85 160.89 160.064 165.5C165.418 169.472 171.455 169.891 171.933 168.338C172.965 164.984 170.385 161.887 164.966 158.017Z" fill="#DE908B"/>
<path d="M96.0735 161.371C81.4178 156.624 78.7859 135.311 79.302 125.248C79.302 120.271 74.9155 131.44 72.5933 138.923C70.2711 146.406 83.9464 173.756 90.913 182.529C97.8797 191.302 99.6858 204.203 105.362 202.397C111.039 200.591 125.488 210.396 129.359 200.591C133.229 190.786 155.677 194.914 155.419 190.786C155.161 186.658 114.393 167.306 96.0735 161.371Z" fill="#E7C9B3"/>
<path d="M75.9483 105.897C71.4995 112.863 73.3681 104.349 68.7236 94.5438C64.0792 84.7389 54.2743 87.5772 53.5002 98.9302C52.7262 110.283 67.1755 112.089 73.3681 114.67C79.5606 117.25 78.5287 120.604 75.9483 128.603C73.3679 136.602 63.0472 125.507 57.8868 120.604C52.7263 115.702 46.7917 100.994 50.9201 90.1574C55.0485 79.3204 73.6262 85.513 78.5287 92.9957C83.4311 100.478 81.883 144.6 84.2052 153.115C86.5274 161.63 131.166 179.176 148.195 188.206C165.225 197.237 161.354 188.723 163.161 184.852C164.967 180.982 172.707 171.177 178.126 166.016C183.544 160.856 185.351 146.923 185.351 142.536C185.351 138.15 185.608 137.633 186.899 134.021C188.189 130.409 192.059 126.796 193.349 122.41C194.639 118.024 200.058 116.734 200.316 112.089C200.574 107.445 199.026 90.6734 197.22 79.3204C195.775 70.2379 195.155 66.6773 186.899 58.9365C178.642 51.1957 161.251 43.9195 141.228 46.8094C116.2 50.4217 95.0423 71.0637 84.2052 85.513C73.3681 99.9623 75.9483 89.3834 70.0138 85.513" stroke="black" stroke-linecap="round"/>
<path d="M76.9795 116.732C78.2696 117.162 80.7983 119.055 80.5918 123.183C80.3338 128.343 76.4635 151.308 87.8165 157.758C99.1696 164.209 148.71 186.399 154.645 188.979C160.579 191.559 155.161 196.72 143.808 194.656C132.455 192.591 128.584 199.558 131.681 204.977C134.777 210.395 108.974 198.526 94.0091 211.427C79.0437 224.328 116.715 219.684 96.0733 194.656C75.4314 169.627 73.5601 137.374 76.9795 131.44C80.3989 125.505 84.2042 121.893 80.5918 114.41" stroke="black" stroke-linecap="round"/>
<path d="M147.678 101.251C142.517 98.413 137.874 93.2531 135.81 90.6728C133.746 88.0926 135.294 80.0938 135.81 83.1901C136.326 86.2864 143.868 97.4698 149.484 100.219C157.741 104.261 163.418 100.993 160.579 102.541C157.741 104.089 152.838 104.089 147.678 101.251Z" fill="#F89797"/>
<path d="M138.39 89.8984C140.54 94.8009 148.091 104.193 161.096 102.542" stroke="black" stroke-linecap="round"/>
<path d="M186.671 127.293C184.842 125.718 183.282 122.428 183.795 121.805C184.308 121.183 185.16 124.073 188.121 126.373C191.083 128.673 193.539 127.574 192.317 128.085C191.094 128.596 188.5 128.869 186.671 127.293Z" fill="#F89797"/>
<path d="M184.576 122.41C184.92 124.13 186.744 127.725 191.285 128.345" stroke="black" stroke-linecap="round"/>
<path d="M182.254 114.669C181.428 110.747 186.984 104.778 190.253 103.058C192.575 101.677 190.253 102.284 186.382 103.058C182.512 103.832 175.287 112.346 179.416 116.475C183.544 120.603 182.254 135.311 183.544 136.601C184.834 137.891 188.189 130.924 186.382 125.764C184.576 120.603 183.286 119.571 182.254 114.669Z" fill="#ECD2BF"/>
<path d="M190.768 103.316C189.134 104.004 182.099 110.335 182.512 113.637C183.028 117.766 188.446 130.925 186.124 135.569C184.576 138.666 180.448 139.698 176.577 139.698" stroke="black" stroke-linecap="round"/>
<path d="M87.2468 116C88.7468 108.5 86.2477 106.999 90.2474 101.5C94.2471 96.0004 108.247 106 104.747 113.5C101.247 121 104.247 118 111.247 118.5C118.247 119 130.247 134 130.247 142C130.247 150 140.747 155 143.247 158.5C145.747 162 142.247 176.5 136.247 175C130.247 173.5 120.747 165.5 115.247 160.5C109.747 155.5 96.2474 153.5 91.2475 144.5C86.2475 135.5 85.7468 123.5 87.2468 116Z" stroke="black" stroke-linecap="round" stroke-dasharray="4 4"/>
<path d="M161.776 61.3332C161.929 61.1027 161.988 61.0631 162.153 60.995C162.319 60.927 162.685 61.0652 162.839 61.2602C162.993 61.4552 162.84 61.6858 162.77 61.7758C162.699 61.8659 162.21 62.0654 162.033 61.9712C161.855 61.877 161.623 61.5636 161.776 61.3332Z" fill="#DBB090"/>
<path d="M164.234 60.6391C164.329 60.4953 164.366 60.4706 164.469 60.4281C164.572 60.3856 164.801 60.4719 164.897 60.5936C164.993 60.7153 164.898 60.8593 164.854 60.9154C164.81 60.9716 164.505 61.0962 164.394 61.0374C164.283 60.9786 164.138 60.783 164.234 60.6391Z" fill="#DBB090"/>
<path d="M163.557 61.4918C163.631 61.3509 163.66 61.3272 163.742 61.2876C163.823 61.248 164.008 61.3401 164.087 61.4641C164.166 61.5881 164.092 61.7292 164.058 61.784C164.024 61.8389 163.782 61.955 163.693 61.8933C163.603 61.8317 163.484 61.6327 163.557 61.4918Z" fill="#DBB090"/>
<path d="M162.781 62.7461C162.881 62.6527 162.918 62.6356 163.023 62.6042C163.127 62.5727 163.351 62.6141 163.443 62.6841C163.534 62.754 163.434 62.8475 163.388 62.8844C163.342 62.9212 163.034 63.0136 162.926 62.9831C162.818 62.9525 162.681 62.8396 162.781 62.7461Z" fill="#DBB090"/>
<path d="M162.924 59.6227C163.157 59.7674 163.218 59.8344 163.365 60.0317C163.511 60.2289 163.833 60.9915 163.555 60.9316C163.278 60.8717 162.787 60.3471 162.726 60.0974C162.664 59.8477 162.692 59.4779 162.924 59.6227Z" fill="#DBB090"/>
<path d="M161.463 62.6079C161.548 62.3757 161.582 62.3377 161.681 62.2761C161.78 62.2146 162.137 62.3466 162.084 62.7157C162.032 63.0848 161.759 63.3996 161.646 63.2906C161.533 63.1816 161.378 62.8402 161.463 62.6079Z" fill="#DBB090"/>
<path d="M161.796 59.2035C161.996 59.3765 161.775 59.6369 161.821 59.8149C161.868 59.9929 161.763 60.8252 161.563 60.9787C161.364 61.1322 161.324 60.9844 161.246 60.9054C161.169 60.8263 161.108 59.9192 161.216 59.7361C161.323 59.553 161.595 59.0306 161.796 59.2035Z" fill="#DBB090"/>
<path d="M167.501 72.9441C167.969 72.6191 168.115 72.5889 168.497 72.5871C168.878 72.5852 169.526 73.1396 169.704 73.6371C169.883 74.1345 169.415 74.4598 169.211 74.5782C169.006 74.6966 167.879 74.6987 167.584 74.3775C167.289 74.0564 167.033 73.2691 167.501 72.9441Z" fill="#DBB090"/>
<path d="M172.954 73.5263C173.246 73.3234 173.338 73.3046 173.576 73.3035C173.814 73.3023 174.218 73.6483 174.33 73.9588C174.441 74.2693 174.149 74.4723 174.021 74.5462C173.894 74.6201 173.19 74.6214 173.006 74.4209C172.822 74.2205 172.663 73.7292 172.954 73.5263Z" fill="#DBB090"/>
<path d="M171.001 74.641C171.247 74.4267 171.322 74.4038 171.515 74.3913C171.707 74.3789 172.018 74.7016 172.093 75.0031C172.169 75.3046 171.923 75.5191 171.816 75.5982C171.709 75.6773 171.14 75.712 171.001 75.5226C170.861 75.3333 170.755 74.8554 171.001 74.641Z" fill="#DBB090"/>
<path d="M168.568 76.4588C168.835 76.3569 168.922 76.3534 169.155 76.3743C169.387 76.3953 169.814 76.6513 169.951 76.8582C170.088 77.065 169.822 77.167 169.703 77.2022C169.585 77.2373 168.898 77.1741 168.7 77.0303C168.502 76.8866 168.301 76.5608 168.568 76.4588Z" fill="#DBB090"/>
<path d="M170.997 70.5394C171.368 71.001 171.446 71.1784 171.609 71.6744C171.771 72.1704 171.9 73.8952 171.379 73.5618C170.858 73.2284 170.223 71.8307 170.269 71.3002C170.315 70.7696 170.626 70.0779 170.997 70.5394Z" fill="#DBB090"/>
<path d="M165.993 75.1549C166.323 74.7729 166.419 74.7267 166.662 74.6853C166.904 74.6439 167.538 75.1794 167.178 75.8506C166.818 76.5219 166.051 76.9159 165.897 76.6169C165.743 76.318 165.662 75.5368 165.993 75.1549Z" fill="#DBB090"/>
<path d="M168.999 68.8443C169.287 69.3357 168.66 69.6645 168.632 70.0447C168.604 70.4249 167.823 71.9498 167.313 72.0895C166.803 72.2292 166.823 71.9126 166.721 71.6994C166.619 71.4861 167.117 69.6869 167.46 69.4176C167.803 69.1484 168.711 68.3529 168.999 68.8443Z" fill="#DBB090"/>
<path d="M101.919 109.66C101.867 109.868 101.833 109.912 101.725 110.007C101.618 110.103 101.297 110.106 101.123 110.01C100.949 109.913 101.001 109.705 101.03 109.621C101.058 109.537 101.377 109.257 101.54 109.274C101.703 109.292 101.971 109.452 101.919 109.66Z" fill="#DBB090"/>
<path d="M100.231 110.847C100.198 110.977 100.177 111.005 100.11 111.064C100.043 111.123 99.8426 111.126 99.734 111.065C99.6255 111.005 99.6578 110.875 99.6757 110.823C99.6935 110.77 99.8922 110.595 99.994 110.607C100.096 110.618 100.263 110.717 100.231 110.847Z" fill="#DBB090"/>
<path d="M100.506 110.047C100.49 110.169 100.474 110.194 100.423 110.245C100.371 110.296 100.203 110.282 100.107 110.215C100.011 110.149 100.028 110.027 100.038 109.978C100.049 109.929 100.201 109.778 100.288 109.797C100.374 109.816 100.523 109.925 100.506 110.047Z" fill="#DBB090"/>
<path d="M100.745 108.929C100.695 109.024 100.671 109.047 100.6 109.098C100.529 109.15 100.345 109.183 100.254 109.159C100.164 109.134 100.214 109.039 100.239 109C100.264 108.961 100.474 108.808 100.566 108.8C100.658 108.792 100.795 108.834 100.745 108.929Z" fill="#DBB090"/>
<path d="M101.525 111.205C101.306 111.167 101.24 111.136 101.071 111.036C100.902 110.936 100.437 110.479 100.668 110.445C100.898 110.41 101.424 110.648 101.543 110.81C101.661 110.971 101.745 111.244 101.525 111.205Z" fill="#DBB090"/>
<path d="M101.798 108.661C101.799 108.851 101.784 108.888 101.725 108.96C101.667 109.031 101.355 109.037 101.29 108.758C101.225 108.478 101.345 108.177 101.463 108.223C101.581 108.27 101.797 108.471 101.798 108.661Z" fill="#DBB090"/>
<path d="M102.511 111.19C102.308 111.123 102.404 110.874 102.317 110.759C102.231 110.645 102.074 110.019 102.184 109.853C102.293 109.687 102.366 109.782 102.448 109.817C102.53 109.852 102.835 110.485 102.805 110.646C102.774 110.808 102.714 111.258 102.511 111.19Z" fill="#DBB090"/>
<path d="M95.4854 115.735C95.9012 115.346 95.9614 115.209 96.0431 114.837C96.1248 114.465 95.7185 113.715 95.2695 113.436C94.8205 113.157 94.4044 113.546 94.2458 113.722C94.0871 113.897 93.8491 114.998 94.1013 115.354C94.3535 115.709 95.0696 116.125 95.4854 115.735Z" fill="#DBB090"/>
<path d="M96.0577 110.28C96.3172 110.037 96.3548 109.952 96.4058 109.719C96.4568 109.487 96.2032 109.019 95.9229 108.845C95.6427 108.671 95.383 108.914 95.284 109.023C95.185 109.133 95.0364 109.82 95.1938 110.042C95.3512 110.264 95.7982 110.523 96.0577 110.28Z" fill="#DBB090"/>
<path d="M94.5583 111.956C94.8194 111.761 94.8575 111.693 94.91 111.507C94.9625 111.321 94.7121 110.95 94.4331 110.813C94.1541 110.676 93.8928 110.871 93.7931 110.959C93.6934 111.047 93.5403 111.596 93.6962 111.772C93.8521 111.948 94.2972 112.152 94.5583 111.956Z" fill="#DBB090"/>
<path d="M92.272 113.955C92.4275 113.716 92.4494 113.63 92.4776 113.399C92.5058 113.167 92.3449 112.696 92.1714 112.519C91.9979 112.341 91.8422 112.581 91.7831 112.689C91.7239 112.797 91.6418 113.482 91.7409 113.706C91.8399 113.93 92.1164 114.195 92.272 113.955Z" fill="#DBB090"/>
<path d="M98.569 112.822C98.1954 112.362 98.0383 112.249 97.5873 111.986C97.1364 111.723 95.4769 111.236 95.6937 111.815C95.9105 112.394 97.1442 113.308 97.6726 113.374C98.201 113.44 98.9426 113.281 98.569 112.822Z" fill="#DBB090"/>
<path d="M93.0071 116.748C93.4499 116.504 93.5152 116.42 93.6064 116.192C93.6977 115.964 93.307 115.231 92.5752 115.443C91.8434 115.654 91.2974 116.322 91.5574 116.535C91.8174 116.748 92.5644 116.991 93.0071 116.748Z" fill="#DBB090"/>
<path d="M99.8078 115.131C99.3877 114.747 98.9347 115.291 98.5571 115.238C98.1796 115.186 96.5247 115.631 96.2813 116.1C96.0379 116.569 96.3517 116.616 96.5388 116.76C96.7259 116.905 98.5895 116.795 98.9246 116.516C99.2598 116.237 100.228 115.516 99.8078 115.131Z" fill="#DBB090"/>
<path d="M99.9778 105.186C99.5576 104.801 99.1046 105.346 98.7271 105.293C98.3495 105.24 96.6947 105.685 96.4512 106.155C96.2078 106.624 96.5216 106.67 96.7087 106.815C96.8958 106.96 98.7594 106.85 99.0946 106.571C99.4297 106.292 100.398 105.57 99.9778 105.186Z" fill="#DBB090"/>
<path d="M180.646 70.6312C180.429 71.1578 180.431 71.3075 180.511 71.6802C180.591 72.0529 181.272 72.5666 181.796 72.6342C182.32 72.7019 182.538 72.1751 182.609 71.9498C182.681 71.7244 182.441 70.6237 182.064 70.4046C181.687 70.1855 180.863 70.1047 180.646 70.6312Z" fill="#DBB090"/>
<path d="M182.387 75.8316C182.251 76.1603 182.252 76.2537 182.302 76.4863C182.352 76.719 182.777 77.0395 183.104 77.0818C183.432 77.124 183.567 76.7953 183.612 76.6546C183.657 76.5139 183.507 75.827 183.272 75.6902C183.036 75.5535 182.522 75.503 182.387 75.8316Z" fill="#DBB090"/>
<path d="M183.056 73.6845C182.9 73.9706 182.893 74.0487 182.923 74.2394C182.952 74.4302 183.334 74.6643 183.644 74.6733C183.955 74.6822 184.112 74.396 184.166 74.2747C184.22 74.1533 184.132 73.5902 183.917 73.4947C183.702 73.3992 183.213 73.3984 183.056 73.6845Z" fill="#DBB090"/>
<path d="M184.308 70.918C184.265 71.2004 184.281 71.2869 184.351 71.5094C184.421 71.7319 184.763 72.0936 184.995 72.1833C185.226 72.2729 185.269 71.9904 185.278 71.8675C185.286 71.7445 185.077 71.0871 184.894 70.9244C184.711 70.7618 184.35 70.6355 184.308 70.918Z" fill="#DBB090"/>
<path d="M179.049 74.5624C179.579 74.8256 179.769 74.8638 180.288 74.9158C180.808 74.9678 182.52 74.7237 182.083 74.2863C181.645 73.849 180.144 73.5291 179.635 73.6881C179.127 73.8471 178.518 74.2992 179.049 74.5624Z" fill="#DBB090"/>
<path d="M182.481 68.684C182.179 69.0889 182.154 69.1928 182.166 69.4382C182.178 69.6837 182.837 70.1881 183.415 69.6924C183.993 69.1967 184.213 68.3625 183.888 68.2764C183.563 68.1902 182.783 68.279 182.481 68.684Z" fill="#DBB090"/>
<path d="M176.963 72.974C177.505 73.1496 177.691 72.4662 178.057 72.3576C178.422 72.2489 179.744 71.1578 179.771 70.6299C179.797 70.1021 179.493 70.1899 179.262 70.1358C179.032 70.0818 177.382 70.9545 177.193 71.3473C177.003 71.7401 176.422 72.7983 176.963 72.974Z" fill="#DBB090"/>
<path d="M180.933 82.0951C181.475 82.2707 181.661 81.5873 182.027 81.4787C182.392 81.37 183.713 80.2789 183.74 79.751C183.767 79.2231 183.462 79.3109 183.232 79.2569C183.002 79.2029 181.352 80.0756 181.162 80.4684C180.973 80.8612 180.391 81.9194 180.933 82.0951Z" fill="#DBB090"/>
<path d="M99.1954 126.165C99.0318 125.392 100.522 125.077 103.422 124.059C106.321 123.042 107.811 122.727 109.629 123.957C111.446 125.188 107.557 125.203 105.403 126.062C103.249 126.922 99.359 126.938 99.1954 126.165Z" fill="#DBB090"/>
<path d="M104.519 127.248C105.117 127.483 105.198 127.582 105.297 127.869C105.396 128.155 104.739 128.843 104.049 129.157C103.358 129.471 102.76 129.236 102.533 129.124C102.307 129.013 102.02 128.165 102.421 127.828C102.821 127.49 103.921 127.013 104.519 127.248Z" fill="#DBB090"/>
<path d="M105.127 130.251C105.493 130.452 105.541 130.534 105.595 130.766C105.65 130.999 105.225 131.539 104.788 131.777C104.351 132.016 103.985 131.815 103.847 131.72C103.709 131.626 103.552 130.939 103.809 130.675C104.067 130.411 104.762 130.05 105.127 130.251Z" fill="#DBB090"/>
<path d="M102.168 130.409C102.618 130.538 102.68 130.596 102.759 130.764C102.838 130.933 102.364 131.352 101.857 131.55C101.351 131.747 100.901 131.618 100.73 131.555C100.56 131.493 100.329 130.995 100.62 130.788C100.911 130.58 101.719 130.279 102.168 130.409Z" fill="#DBB090"/>
<path d="M99.5926 129.319C99.8104 129.483 99.8377 129.548 99.8653 129.73C99.8928 129.913 99.6217 130.327 99.3504 130.505C99.0792 130.682 98.8613 130.518 98.7796 130.442C98.6979 130.366 98.6185 129.826 98.7811 129.625C98.9438 129.424 99.3748 129.155 99.5926 129.319Z" fill="#DBB090"/>
<path d="M109.294 128.003C108.705 128.449 108.462 128.572 107.77 128.873C107.078 129.174 104.561 129.894 104.923 129.381C105.284 128.868 107.191 127.886 107.986 127.729C108.782 127.573 109.883 127.557 109.294 128.003Z" fill="#DBB090"/>
<path d="M100.87 126.91C101.518 127.022 101.61 127.077 101.732 127.245C101.855 127.412 101.223 128.083 100.14 128.054C99.057 128.025 98.2816 127.589 98.6847 127.366C99.0878 127.142 100.222 126.799 100.87 126.91Z" fill="#DBB090"/>
<path d="M111.636 125.103C110.833 125.069 111.243 124.482 110.911 124.284C110.579 124.085 110.022 122.827 110.477 122.41C110.931 121.993 111.159 122.279 111.481 122.309C111.803 122.34 113.002 123.409 112.864 123.772C112.726 124.135 112.438 125.136 111.636 125.103Z" fill="#DBB090"/>
<path d="M110.956 126.898C110.302 127.292 109.658 126.938 109.089 127.055C108.52 127.171 106.069 127.132 105.734 126.799C105.4 126.465 105.873 126.366 106.162 126.213C106.452 126.059 109.236 125.785 109.721 125.946C110.205 126.107 111.609 126.504 110.956 126.898Z" fill="#DBB090"/>
<path d="M132.247 163.804C132.247 162.804 133.247 162.804 135.247 162.304C137.247 161.804 138.246 161.804 139.246 163.804C140.246 165.804 137.747 164.803 136.247 165.303C134.747 165.803 132.247 164.804 132.247 163.804Z" fill="#DBB090"/>
<path d="M135.518 166.541C135.87 166.988 135.909 167.133 135.933 167.513C135.957 167.894 135.442 168.573 134.956 168.781C134.47 168.989 134.118 168.541 133.988 168.344C133.857 168.147 133.789 167.022 134.092 166.709C134.395 166.395 135.165 166.093 135.518 166.541Z" fill="#DBB090"/>
<path d="M135.501 170.419C135.708 170.764 135.728 170.878 135.731 171.18C135.735 171.482 135.388 172.039 135.075 172.22C134.763 172.401 134.555 172.056 134.479 171.903C134.403 171.751 134.396 170.858 134.597 170.599C134.798 170.34 135.293 170.074 135.501 170.419Z" fill="#DBB090"/>
<path d="M133.579 169.838C133.85 170.116 133.882 170.204 133.91 170.434C133.938 170.663 133.577 171.058 133.224 171.17C132.872 171.282 132.601 171.004 132.499 170.882C132.398 170.76 132.318 170.082 132.533 169.902C132.748 169.722 133.308 169.56 133.579 169.838Z" fill="#DBB090"/>
<path d="M132.073 167.814C132.19 168.074 132.199 168.161 132.192 168.395C132.185 168.628 131.954 169.069 131.756 169.218C131.558 169.368 131.44 169.107 131.398 168.991C131.356 168.876 131.378 168.186 131.51 167.98C131.642 167.773 131.955 167.553 132.073 167.814Z" fill="#DBB090"/>
<path d="M138.481 168.726C138.043 169.124 137.87 169.212 137.385 169.404C136.899 169.595 135.185 169.826 135.487 169.286C135.789 168.746 137.147 168.03 137.679 168.044C138.211 168.059 138.92 168.328 138.481 168.726Z" fill="#DBB090"/>
<path d="M133.221 165.165C133.622 165.473 133.674 165.566 133.73 165.805C133.785 166.045 133.288 166.709 132.597 166.39C131.905 166.07 131.467 165.328 131.756 165.156C132.045 164.985 132.82 164.858 133.221 165.165Z" fill="#DBB090"/>
<path d="M140.38 165.749C139.869 165.498 140.212 164.878 140.025 164.545C139.839 164.212 139.653 162.509 140.001 162.112C140.35 161.715 140.457 162.128 140.66 162.25C140.862 162.372 141.487 164.01 141.349 164.423C141.211 164.837 140.89 166.001 140.38 165.749Z" fill="#DBB090"/>
<path d="M139.699 167.794C139.225 168.11 138.86 167.503 138.479 167.498C138.098 167.493 136.529 166.803 136.359 166.303C136.19 165.802 136.507 165.803 136.714 165.689C136.921 165.574 138.746 165.964 139.035 166.291C139.324 166.617 140.172 167.477 139.699 167.794Z" fill="#DBB090"/>
<path d="M116.247 150.804C116.247 149.804 117.247 149.804 119.247 149.304C121.247 148.804 122.246 148.804 123.246 150.804C124.246 152.804 121.747 151.803 120.247 152.303C118.747 152.803 116.247 151.804 116.247 150.804Z" fill="#DBB090"/>
<path d="M119.518 153.541C119.87 153.988 119.909 154.133 119.933 154.513C119.957 154.894 119.442 155.573 118.956 155.781C118.47 155.989 118.118 155.541 117.988 155.344C117.857 155.147 117.789 154.022 118.092 153.709C118.395 153.395 119.165 153.093 119.518 153.541Z" fill="#DBB090"/>
<path d="M119.501 157.419C119.708 157.764 119.728 157.878 119.731 158.18C119.735 158.482 119.388 159.039 119.075 159.22C118.763 159.401 118.555 159.056 118.479 158.903C118.403 158.751 118.396 157.858 118.597 157.599C118.798 157.34 119.293 157.074 119.501 157.419Z" fill="#DBB090"/>
<path d="M117.579 156.838C117.85 157.116 117.882 157.204 117.91 157.434C117.938 157.663 117.577 158.058 117.224 158.17C116.872 158.282 116.601 158.004 116.499 157.882C116.398 157.76 116.318 157.082 116.533 156.902C116.748 156.722 117.308 156.56 117.579 156.838Z" fill="#DBB090"/>
<path d="M116.073 154.814C116.19 155.074 116.199 155.161 116.192 155.395C116.185 155.628 115.954 156.069 115.756 156.218C115.558 156.368 115.44 156.107 115.398 155.991C115.356 155.876 115.378 155.186 115.51 154.98C115.642 154.773 115.955 154.553 116.073 154.814Z" fill="#DBB090"/>
<path d="M122.481 155.726C122.043 156.124 121.87 156.212 121.385 156.404C120.899 156.595 119.185 156.826 119.487 156.286C119.789 155.746 121.147 155.03 121.679 155.044C122.211 155.059 122.92 155.328 122.481 155.726Z" fill="#DBB090"/>
<path d="M117.221 152.165C117.622 152.473 117.674 152.566 117.73 152.805C117.785 153.045 117.288 153.709 116.597 153.39C115.905 153.07 115.467 152.328 115.756 152.156C116.045 151.985 116.82 151.858 117.221 152.165Z" fill="#DBB090"/>
<path d="M124.38 152.749C123.869 152.498 124.212 151.878 124.025 151.545C123.839 151.212 123.653 149.509 124.001 149.112C124.35 148.715 124.457 149.128 124.66 149.25C124.862 149.372 125.487 151.01 125.349 151.423C125.211 151.837 124.89 153.001 124.38 152.749Z" fill="#DBB090"/>
<path d="M123.699 154.794C123.225 155.11 122.86 154.503 122.479 154.498C122.098 154.493 120.529 153.803 120.359 153.303C120.19 152.802 120.507 152.803 120.714 152.689C120.921 152.574 122.746 152.964 123.035 153.291C123.324 153.617 124.172 154.477 123.699 154.794Z" fill="#DBB090"/>
<path d="M102.488 135.544C102.125 134.612 103.057 134.249 104.739 133.057C106.422 131.866 107.353 131.503 109.011 133.004C110.668 134.505 107.976 134.48 106.759 135.49C105.543 136.5 102.85 136.476 102.488 135.544Z" fill="#DBB090"/>
<path d="M106.529 136.907C107.019 137.196 107.108 137.317 107.269 137.663C107.43 138.008 107.196 138.828 106.819 139.198C106.441 139.568 105.95 139.279 105.757 139.142C105.564 139.006 105.092 137.983 105.261 137.581C105.43 137.179 106.038 136.618 106.529 136.907Z" fill="#DBB090"/>
<path d="M107.92 140.527C108.239 140.773 108.299 140.872 108.411 141.152C108.524 141.432 108.403 142.077 108.177 142.359C107.951 142.641 107.633 142.395 107.507 142.28C107.381 142.165 107.05 141.336 107.143 141.022C107.236 140.707 107.602 140.28 107.92 140.527Z" fill="#DBB090"/>
<path d="M105.918 140.682C106.271 140.843 106.333 140.913 106.443 141.117C106.552 141.32 106.358 141.819 106.071 142.052C105.783 142.284 105.429 142.123 105.291 142.046C105.152 141.969 104.832 141.367 104.967 141.121C105.102 140.875 105.565 140.522 105.918 140.682Z" fill="#DBB090"/>
<path d="M103.781 139.343C103.985 139.543 104.025 139.622 104.103 139.842C104.18 140.062 104.126 140.556 103.995 140.767C103.865 140.978 103.66 140.778 103.579 140.686C103.498 140.593 103.269 139.942 103.317 139.702C103.365 139.462 103.577 139.144 103.781 139.343Z" fill="#DBB090"/>
<path d="M110.083 137.867C109.819 138.397 109.69 138.542 109.307 138.897C108.924 139.251 107.411 140.089 107.496 139.476C107.582 138.863 108.587 137.703 109.088 137.523C109.59 137.344 110.348 137.338 110.083 137.867Z" fill="#DBB090"/>
<path d="M103.89 136.457C104.376 136.598 104.458 136.667 104.596 136.869C104.735 137.072 104.513 137.872 103.753 137.825C102.993 137.778 102.314 137.245 102.522 136.981C102.729 136.716 103.405 136.316 103.89 136.457Z" fill="#DBB090"/>
<path d="M110.773 134.406C110.205 134.357 110.3 133.655 110.006 133.412C109.711 133.17 108.92 131.65 109.1 131.154C109.281 130.657 109.531 131.004 109.764 131.044C109.997 131.083 111.174 132.383 111.195 132.819C111.217 133.254 111.34 134.455 110.773 134.406Z" fill="#DBB090"/>
<path d="M110.879 136.558C110.553 137.025 109.992 136.592 109.635 136.726C109.278 136.859 107.566 136.785 107.226 136.38C106.887 135.975 107.183 135.862 107.334 135.68C107.485 135.498 109.328 135.199 109.716 135.399C110.103 135.598 111.206 136.092 110.879 136.558Z" fill="#DBB090"/>
<path d="M94.6899 106.226C95.0447 106.676 94.5821 107.041 93.8344 107.995C93.0867 108.95 92.6241 109.315 91.4519 108.78C90.2797 108.245 91.7911 107.784 92.3076 107.011C92.824 106.239 94.335 105.776 94.6899 106.226Z" fill="#DBB090"/>
<path d="M92.2052 106.189C91.8835 106.116 91.8142 106.065 91.6679 105.903C91.5216 105.741 91.5187 105.247 91.6698 104.976C91.8208 104.705 92.1427 104.778 92.273 104.819C92.4033 104.86 92.8341 105.341 92.8052 105.593C92.7762 105.844 92.5269 106.261 92.2052 106.189Z" fill="#DBB090"/>
<path d="M90.8365 104.439C90.6181 104.36 90.5685 104.316 90.4599 104.181C90.3513 104.047 90.3137 103.67 90.3942 103.474C90.4747 103.278 90.6932 103.358 90.7825 103.399C90.8718 103.44 91.192 103.839 91.1909 104.029C91.1899 104.219 91.0549 104.519 90.8365 104.439Z" fill="#DBB090"/>
<path d="M91.9316 103.997C91.7076 103.971 91.6614 103.944 91.5672 103.851C91.4729 103.758 91.5 103.448 91.6232 103.269C91.7464 103.09 91.9706 103.116 92.0606 103.134C92.1507 103.152 92.4281 103.428 92.3927 103.587C92.3572 103.747 92.1557 104.024 91.9316 103.997Z" fill="#DBB090"/>
<path d="M93.3464 104.36C93.1997 104.286 93.1647 104.25 93.0852 104.142C93.0057 104.034 92.9557 103.752 92.9945 103.612C93.0333 103.473 93.1801 103.547 93.2407 103.584C93.3012 103.621 93.5355 103.939 93.5478 104.08C93.5601 104.221 93.4931 104.434 93.3464 104.36Z" fill="#DBB090"/>
<path d="M90.0598 106.289C90.1217 105.95 90.1701 105.847 90.3267 105.584C90.4833 105.32 91.1942 104.591 91.2461 104.944C91.298 105.297 90.9243 106.115 90.6729 106.302C90.4214 106.49 89.998 106.628 90.0598 106.289Z" fill="#DBB090"/>
<path d="M93.7561 105.97C93.4616 105.978 93.4045 105.955 93.2938 105.868C93.1832 105.78 93.1771 105.3 93.6103 105.191C94.0435 105.083 94.51 105.257 94.437 105.44C94.3641 105.622 94.0506 105.962 93.7561 105.97Z" fill="#DBB090"/>
<path d="M90.2367 108.318C90.5623 108.245 90.6237 108.649 90.8279 108.73C91.032 108.812 91.7228 109.51 91.7024 109.816C91.6821 110.122 91.4858 109.975 91.3488 109.994C91.2118 110.013 90.3415 109.505 90.2587 109.268C90.1758 109.032 89.9111 108.391 90.2367 108.318Z" fill="#DBB090"/>
<path d="M89.8271 107.151C89.9338 106.836 90.3182 106.976 90.4963 106.839C90.6744 106.702 91.6448 106.44 91.9009 106.604C92.157 106.767 92.0098 106.882 91.9548 107.009C91.8998 107.136 90.9168 107.627 90.6673 107.585C90.4177 107.544 89.7204 107.466 89.8271 107.151Z" fill="#DBB090"/>
<path d="M174.944 79.7128C174.435 79.4506 174.704 78.9266 174.989 77.7478C175.274 76.569 175.543 76.0454 176.832 76.0459C178.12 76.0464 176.936 77.0934 176.786 78.0103C176.637 78.9272 175.454 79.975 174.944 79.7128Z" fill="#DBB090"/>
<path d="M177.22 78.7162C177.543 78.649 177.628 78.6666 177.828 78.7536C178.028 78.8405 178.236 79.2885 178.21 79.5976C178.185 79.9066 177.862 79.9739 177.727 79.9904C177.591 80.0069 177 79.7482 176.922 79.5072C176.844 79.2663 176.897 78.7833 177.22 78.7162Z" fill="#DBB090"/>
<path d="M179.192 79.7432C179.424 79.7249 179.487 79.7444 179.642 79.8219C179.796 79.8993 179.987 80.2269 179.995 80.4382C180.002 80.6496 179.771 80.6679 179.672 80.6676C179.574 80.6672 179.117 80.437 179.04 80.2637C178.962 80.0905 178.96 79.7615 179.192 79.7432Z" fill="#DBB090"/>
<path d="M178.378 80.5976C178.593 80.5286 178.646 80.5347 178.77 80.5801C178.895 80.6256 178.998 80.9184 178.961 81.1324C178.923 81.3464 178.708 81.4155 178.618 81.4365C178.529 81.4575 178.162 81.3219 178.128 81.162C178.095 81.0021 178.163 80.6667 178.378 80.5976Z" fill="#DBB090"/>
<path d="M176.941 80.8555C177.105 80.8621 177.152 80.8805 177.269 80.9454C177.386 81.0103 177.548 81.2466 177.571 81.3896C177.593 81.5327 177.429 81.5261 177.359 81.5177C177.288 81.5094 176.943 81.3169 176.874 81.1937C176.804 81.0706 176.776 80.8488 176.941 80.8555Z" fill="#DBB090"/>
<path d="M179.132 77.7369C179.216 78.071 179.214 78.1846 179.181 78.4891C179.148 78.7936 178.803 79.7522 178.61 79.4525C178.416 79.1528 178.417 78.2537 178.568 77.9786C178.719 77.7036 179.047 77.4028 179.132 77.7369Z" fill="#DBB090"/>
<path d="M175.9 79.5589C176.165 79.4294 176.227 79.4268 176.364 79.4604C176.501 79.4939 176.705 79.9286 176.356 80.207C176.007 80.4855 175.51 80.5205 175.501 80.3241C175.492 80.1276 175.636 79.6883 175.9 79.5589Z" fill="#DBB090"/>
<path d="M178.129 75.9626C177.863 76.1642 177.64 75.8221 177.42 75.8325C177.2 75.8428 176.282 75.494 176.174 75.2072C176.066 74.9203 176.305 74.9727 176.422 74.8985C176.539 74.8242 177.542 74.9262 177.715 75.107C177.888 75.2878 178.395 75.761 178.129 75.9626Z" fill="#DBB090"/>
<path d="M178.986 76.8566C179.02 77.1876 178.612 77.22 178.507 77.4183C178.401 77.6167 177.627 78.2574 177.326 78.2151C177.025 78.1727 177.112 78.0069 177.109 77.8685C177.106 77.7301 177.797 76.8761 178.042 76.8102C178.286 76.7444 178.952 76.5256 178.986 76.8566Z" fill="#DBB090"/>
<path d="M113.601 139.012C114.161 138.614 114.741 139.428 116.18 140.859C117.62 142.289 118.199 143.104 117.659 144.716C117.118 146.328 116.23 143.892 115.08 142.869C113.93 141.846 113.041 139.411 113.601 139.012Z" fill="#DBB090"/>
<path d="M113.965 142.769C113.918 143.235 113.86 143.324 113.661 143.495C113.462 143.667 112.783 143.518 112.385 143.205C111.986 142.892 112.033 142.426 112.068 142.241C112.103 142.056 112.693 141.552 113.044 141.674C113.395 141.796 114.011 142.304 113.965 142.769Z" fill="#DBB090"/>
<path d="M111.782 144.302C111.71 144.608 111.657 144.67 111.49 144.793C111.323 144.916 110.81 144.855 110.527 144.673C110.244 144.49 110.317 144.183 110.359 144.06C110.401 143.938 110.896 143.576 111.158 143.637C111.42 143.697 111.855 143.995 111.782 144.302Z" fill="#DBB090"/>
<path d="M110.994 142.502C110.995 142.834 110.964 142.895 110.852 143.01C110.74 143.124 110.309 142.987 110.042 142.744C109.775 142.502 109.774 142.17 109.784 142.039C109.793 141.908 110.126 141.573 110.352 141.676C110.577 141.779 110.992 142.171 110.994 142.502Z" fill="#DBB090"/>
<path d="M111.253 140.468C111.175 140.667 111.132 140.709 110.997 140.796C110.862 140.884 110.481 140.872 110.283 140.77C110.084 140.667 110.162 140.468 110.202 140.387C110.243 140.307 110.642 140.05 110.834 140.076C111.026 140.101 111.331 140.268 111.253 140.468Z" fill="#DBB090"/>
<path d="M114.459 146.054C113.982 145.855 113.832 145.749 113.443 145.43C113.055 145.111 111.931 143.806 112.409 143.837C112.886 143.868 114.075 144.689 114.375 145.128C114.676 145.568 114.936 146.253 114.459 146.054Z" fill="#DBB090"/>
<path d="M113.404 140.349C113.464 140.798 113.442 140.877 113.34 141.018C113.238 141.159 112.578 141.019 112.356 140.328C112.134 139.637 112.296 138.984 112.559 139.151C112.823 139.319 113.343 139.9 113.404 140.349Z" fill="#DBB090"/>
<path d="M117.225 146.414C117.07 145.897 117.616 145.929 117.694 145.645C117.773 145.361 118.619 144.53 119.043 144.656C119.468 144.782 119.298 145.034 119.347 145.247C119.397 145.461 118.842 146.623 118.53 146.675C118.218 146.728 117.38 146.93 117.225 146.414Z" fill="#DBB090"/>
<path d="M115.685 146.673C115.234 146.413 115.362 145.874 115.143 145.561C114.925 145.248 114.402 143.695 114.584 143.358C114.767 143.02 114.95 143.279 115.134 143.402C115.318 143.525 116.158 145.168 116.142 145.533C116.127 145.899 116.137 146.933 115.685 146.673Z" fill="#DBB090"/>
<path d="M124.637 157.932C125.197 157.534 125.777 158.348 127.216 159.779C128.656 161.209 129.235 162.024 128.695 163.636C128.154 165.247 127.266 162.812 126.116 161.789C124.967 160.766 124.077 158.33 124.637 157.932Z" fill="#DBB090"/>
<path d="M125.001 161.689C124.954 162.154 124.896 162.244 124.697 162.415C124.498 162.587 123.819 162.438 123.421 162.125C123.023 161.811 123.069 161.346 123.104 161.161C123.139 160.976 123.729 160.472 124.08 160.594C124.431 160.716 125.047 161.224 125.001 161.689Z" fill="#DBB090"/>
<path d="M122.818 163.221C122.746 163.528 122.693 163.59 122.526 163.712C122.359 163.835 121.846 163.775 121.563 163.593C121.281 163.41 121.353 163.103 121.395 162.98C121.437 162.858 121.932 162.496 122.194 162.556C122.456 162.617 122.891 162.915 122.818 163.221Z" fill="#DBB090"/>
<path d="M122.03 161.422C122.031 161.754 122.001 161.815 121.888 161.93C121.776 162.044 121.346 161.906 121.078 161.664C120.811 161.422 120.81 161.09 120.82 160.959C120.829 160.828 121.162 160.493 121.388 160.596C121.614 160.699 122.028 161.091 122.03 161.422Z" fill="#DBB090"/>
<path d="M122.289 159.388C122.212 159.587 122.168 159.629 122.033 159.716C121.898 159.804 121.518 159.792 121.319 159.69C121.12 159.587 121.198 159.388 121.238 159.307C121.279 159.227 121.678 158.97 121.87 158.995C122.062 159.021 122.367 159.188 122.289 159.388Z" fill="#DBB090"/>
<path d="M125.495 164.974C125.018 164.775 124.868 164.669 124.48 164.35C124.091 164.031 122.968 162.726 123.445 162.757C123.922 162.788 125.111 163.609 125.411 164.048C125.712 164.488 125.972 165.173 125.495 164.974Z" fill="#DBB090"/>
<path d="M124.44 159.269C124.5 159.718 124.478 159.797 124.376 159.938C124.274 160.079 123.614 159.939 123.392 159.248C123.17 158.557 123.332 157.904 123.595 158.071C123.859 158.239 124.38 158.82 124.44 159.269Z" fill="#DBB090"/>
<path d="M128.261 165.334C128.106 164.817 128.652 164.849 128.73 164.565C128.809 164.281 129.655 163.45 130.079 163.576C130.504 163.702 130.334 163.954 130.384 164.167C130.433 164.381 129.878 165.543 129.566 165.595C129.254 165.648 128.417 165.85 128.261 165.334Z" fill="#DBB090"/>
<path d="M126.721 165.593C126.27 165.333 126.398 164.794 126.18 164.481C125.961 164.168 125.439 162.615 125.621 162.278C125.803 161.94 125.986 162.199 126.17 162.322C126.354 162.445 127.194 164.088 127.178 164.453C127.163 164.819 127.173 165.852 126.721 165.593Z" fill="#DBB090"/>
<path d="M110.328 153.893C109.841 154.379 109.134 153.672 107.477 152.5C105.82 151.329 105.113 150.622 105.378 148.943C105.643 147.264 106.924 149.518 108.228 150.335C109.531 151.153 110.814 153.407 110.328 153.893Z" fill="#DBB090"/>
<path d="M109.345 150.25C109.313 149.783 109.356 149.685 109.524 149.483C109.692 149.281 110.386 149.315 110.831 149.557C111.275 149.8 111.307 150.267 111.303 150.455C111.299 150.643 110.802 151.238 110.435 151.176C110.068 151.114 109.376 150.716 109.345 150.25Z" fill="#DBB090"/>
<path d="M111.242 148.375C111.262 148.061 111.304 147.991 111.448 147.842C111.593 147.693 112.108 147.667 112.418 147.801C112.727 147.934 112.706 148.249 112.685 148.376C112.665 148.504 112.236 148.943 111.968 148.927C111.7 148.911 111.221 148.69 111.242 148.375Z" fill="#DBB090"/>
<path d="M112.319 150.019C112.263 149.692 112.282 149.626 112.374 149.495C112.466 149.364 112.913 149.428 113.217 149.622C113.52 149.817 113.577 150.144 113.589 150.275C113.601 150.406 113.329 150.791 113.089 150.727C112.849 150.663 112.375 150.346 112.319 150.019Z" fill="#DBB090"/>
<path d="M112.4 152.066C112.444 151.857 112.48 151.808 112.598 151.7C112.717 151.592 113.094 151.54 113.307 151.608C113.52 151.675 113.476 151.885 113.45 151.971C113.423 152.057 113.072 152.377 112.879 152.384C112.685 152.391 112.357 152.276 112.4 152.066Z" fill="#DBB090"/>
<path d="M108.312 147.091C108.815 147.208 108.98 147.287 109.417 147.537C109.853 147.787 111.178 148.887 110.702 148.936C110.226 148.985 108.917 148.373 108.548 147.99C108.179 147.606 107.808 146.974 108.312 147.091Z" fill="#DBB090"/>
<path d="M110.3 152.542C110.166 152.109 110.175 152.027 110.252 151.872C110.328 151.716 111.003 151.744 111.337 152.388C111.67 153.033 111.619 153.704 111.332 153.583C111.044 153.461 110.434 152.975 110.3 152.542Z" fill="#DBB090"/>
<path d="M105.523 147.197C105.762 147.681 105.219 147.74 105.189 148.033C105.159 148.327 104.463 149.286 104.023 149.233C103.583 149.179 103.709 148.903 103.625 148.7C103.54 148.498 103.895 147.26 104.193 147.156C104.492 147.053 105.285 146.714 105.523 147.197Z" fill="#DBB090"/>
<path d="M106.999 146.686C107.488 146.867 107.451 147.421 107.718 147.693C107.985 147.965 108.759 149.409 108.636 149.772C108.512 150.136 108.289 149.911 108.087 149.82C107.885 149.73 106.784 148.249 106.738 147.886C106.692 147.523 106.51 146.505 106.999 146.686Z" fill="#DBB090"/>
<path d="M93.4446 134.015C93.427 134.232 93.2308 134.217 92.8297 134.294C92.4287 134.371 92.2326 134.355 92.0716 133.904C91.9107 133.453 92.3834 133.71 92.6864 133.625C92.9894 133.54 93.4622 133.797 93.4446 134.015Z" fill="#DBB090"/>
<path d="M94.2408 132.653C94.0351 132.307 94.0181 132.199 94.0245 131.919C94.0309 131.64 94.4107 131.17 94.7435 131.044C95.0763 130.918 95.2822 131.264 95.3564 131.416C95.4307 131.567 95.4095 132.393 95.1911 132.606C94.9727 132.819 94.4466 132.999 94.2408 132.653Z" fill="#DBB090"/>
<path d="M93.9109 136.811C93.5921 136.274 93.5657 136.107 93.5756 135.674C93.5855 135.241 94.1742 134.513 94.69 134.318C95.2057 134.122 95.5248 134.659 95.6399 134.893C95.7549 135.128 95.7221 136.408 95.3836 136.738C95.0451 137.069 94.2298 137.347 93.9109 136.811Z" fill="#DBB090"/>
<path d="M94.4794 129.818C94.363 129.555 94.3567 129.471 94.3724 129.25C94.3882 129.029 94.6495 128.64 94.8665 128.524C95.0836 128.408 95.2001 128.672 95.241 128.787C95.282 128.903 95.234 129.557 95.0861 129.735C94.9382 129.914 94.5959 130.082 94.4794 129.818Z" fill="#DBB090"/>
<path d="M95.7143 130.347C95.552 130.129 95.5359 130.063 95.531 129.894C95.5262 129.724 95.7879 129.455 96.0269 129.392C96.2659 129.329 96.4282 129.547 96.4877 129.641C96.5471 129.736 96.5599 130.235 96.4075 130.356C96.255 130.476 95.8765 130.565 95.7143 130.347Z" fill="#DBB090"/>
<path d="M96.5879 131.907C96.5258 131.71 96.5252 131.646 96.5437 131.476C96.5622 131.305 96.7402 130.995 96.8798 130.896C97.0195 130.798 97.0816 130.995 97.1025 131.082C97.1234 131.168 97.0678 131.672 96.9687 131.816C96.8696 131.959 96.65 132.104 96.5879 131.907Z" fill="#DBB090"/>
<path d="M91.293 135.565C91.2309 135.369 91.2302 135.304 91.2488 135.134C91.2673 134.964 91.4453 134.653 91.5849 134.555C91.7245 134.456 91.7867 134.653 91.8076 134.74C91.8285 134.827 91.7729 135.33 91.6738 135.474C91.5747 135.618 91.3551 135.762 91.293 135.565Z" fill="#DBB090"/>
<path d="M92.568 136.876C92.2639 136.953 92.2007 136.945 92.0707 136.887C91.9407 136.829 91.9698 136.476 92.1322 136.221C92.2946 135.966 92.5989 135.889 92.7213 135.866C92.8437 135.843 93.2263 136.015 93.1823 136.208C93.1382 136.4 92.8721 136.799 92.568 136.876Z" fill="#DBB090"/>
<path d="M92.4158 130.898C92.7286 130.631 92.8476 130.575 93.1791 130.461C93.5105 130.347 94.6546 130.269 94.4235 130.648C94.1925 131.027 93.2548 131.479 92.9046 131.44C92.5545 131.401 92.1029 131.166 92.4158 130.898Z" fill="#DBB090"/>
<path d="M96.4099 134.701C96.7228 134.434 96.8417 134.378 97.1732 134.264C97.5047 134.15 98.6487 134.072 98.4177 134.451C98.1866 134.83 97.2489 135.282 96.8988 135.242C96.5486 135.203 96.097 134.969 96.4099 134.701Z" fill="#DBB090"/>
<path d="M95.674 133.783C95.4278 133.536 95.3992 133.465 95.3766 133.287C95.3541 133.109 95.7211 132.65 96.1581 132.92C96.5951 133.191 96.8405 133.757 96.6396 133.867C96.4387 133.977 95.9201 134.029 95.674 133.783Z" fill="#DBB090"/>
<path d="M90.5366 132.209C90.8586 132.421 90.5958 132.856 90.6989 133.109C90.802 133.362 90.8243 134.618 90.5708 134.89C90.3174 135.162 90.2713 134.854 90.1448 134.754C90.0183 134.654 89.7031 133.423 89.8187 133.128C89.9343 132.832 90.2146 131.998 90.5366 132.209Z" fill="#DBB090"/>
<path d="M91.5582 131.516C91.8892 131.309 92.0942 131.773 92.3453 131.797C92.5963 131.821 93.5898 132.409 93.672 132.785C93.7543 133.16 93.5452 133.142 93.402 133.215C93.2589 133.287 92.0782 132.904 91.9068 132.65C91.7355 132.396 91.2273 131.722 91.5582 131.516Z" fill="#DBB090"/>
<path d="M169.62 60.3775C169.546 60.1722 169.731 60.1053 170.064 59.8689C170.397 59.6325 170.582 59.5656 170.916 59.9093C171.249 60.253 170.712 60.2147 170.472 60.4177C170.231 60.6206 169.694 60.5828 169.62 60.3775Z" fill="#DBB090"/>
<path d="M169.461 61.9453C169.791 62.175 169.852 62.266 169.962 62.5231C170.072 62.7801 169.921 63.3649 169.67 63.6177C169.42 63.8704 169.089 63.6407 168.959 63.5338C168.828 63.4269 168.505 62.6664 168.615 62.3819C168.726 62.0974 169.13 61.7156 169.461 61.9453Z" fill="#DBB090"/>
<path d="M168.037 58.0274C168.55 58.3834 168.643 58.5246 168.813 58.923C168.984 59.3214 168.75 60.2277 168.362 60.6194C167.974 61.0111 167.461 60.6551 167.259 60.4894C167.057 60.3238 166.556 59.1451 166.727 58.7042C166.898 58.2632 167.524 57.6715 168.037 58.0274Z" fill="#DBB090"/>
<path d="M170.419 64.6261C170.634 64.8174 170.675 64.8916 170.752 65.0992C170.829 65.3069 170.753 65.7694 170.603 65.9646C170.454 66.1599 170.239 65.9685 170.153 65.88C170.068 65.7916 169.841 65.1772 169.901 64.9532C169.962 64.7291 170.204 64.4348 170.419 64.6261Z" fill="#DBB090"/>
<path d="M169.077 64.6564C169.315 64.7874 169.357 64.8408 169.431 64.9927C169.506 65.1446 169.38 65.4983 169.188 65.6549C168.997 65.8115 168.759 65.6805 168.666 65.6191C168.572 65.5577 168.353 65.1082 168.442 64.9354C168.531 64.7626 168.839 64.5254 169.077 64.6564Z" fill="#DBB090"/>
<path d="M167.635 63.5979C167.773 63.751 167.8 63.8094 167.854 63.972C167.907 64.1345 167.874 64.4908 167.788 64.6384C167.702 64.7861 167.564 64.6329 167.509 64.5624C167.453 64.4919 167.295 64.011 167.326 63.8389C167.356 63.6669 167.497 63.4447 167.635 63.5979Z" fill="#DBB090"/>
<path d="M170.936 58.0744C171.074 58.2276 171.102 58.2859 171.155 58.4485C171.209 58.6111 171.176 58.9673 171.09 59.115C171.003 59.2626 170.865 59.1094 170.81 59.0389C170.755 58.9685 170.597 58.4875 170.628 58.3155C170.658 58.1434 170.798 57.9212 170.936 58.0744Z" fill="#DBB090"/>
<path d="M169.231 57.4093C169.476 57.2131 169.537 57.1949 169.679 57.1935C169.822 57.1921 169.942 57.5254 169.9 57.8249C169.857 58.1244 169.613 58.3207 169.511 58.3921C169.409 58.4636 168.989 58.4657 168.95 58.2725C168.91 58.0794 168.986 57.6054 169.231 57.4093Z" fill="#DBB090"/>
<path d="M171.849 62.7879C171.676 63.161 171.59 63.2609 171.336 63.5022C171.082 63.7435 170.073 64.2886 170.126 63.8481C170.179 63.4075 170.845 62.6077 171.18 62.498C171.515 62.3884 172.023 62.4148 171.849 62.7879Z" fill="#DBB090"/>
<path d="M166.638 60.9832C166.464 61.3563 166.379 61.4562 166.124 61.6975C165.87 61.9388 164.861 62.4839 164.914 62.0434C164.967 61.6029 165.633 60.803 165.968 60.6933C166.303 60.5837 166.811 60.6101 166.638 60.9832Z" fill="#DBB090"/>
<path d="M167.688 61.5134C168.014 61.6353 168.07 61.6881 168.164 61.8408C168.258 61.9934 168.115 62.564 167.605 62.499C167.095 62.434 166.637 62.02 166.774 61.8367C166.912 61.6533 167.362 61.3914 167.688 61.5134Z" fill="#DBB090"/>
<path d="M173.015 60.8143C172.635 60.7554 172.693 60.2505 172.495 60.0628C172.296 59.8751 171.755 58.7415 171.873 58.3889C171.99 58.0364 172.16 58.2978 172.317 58.3363C172.473 58.3747 173.271 59.3646 173.288 59.6811C173.305 59.9975 173.396 60.8731 173.015 60.8143Z" fill="#DBB090"/>
<path d="M172.374 61.8682C172.158 62.1932 171.779 61.8565 171.541 61.9388C171.303 62.021 170.154 61.8975 169.924 61.5902C169.694 61.2828 169.891 61.2125 169.991 61.0869C170.092 60.9612 171.325 60.8201 171.586 60.9804C171.847 61.1406 172.589 61.5433 172.374 61.8682Z" fill="#DBB090"/>
<path d="M93.8259 121.785C93.793 121.57 93.9875 121.54 94.3601 121.373C94.7327 121.205 94.9272 121.176 95.1876 121.578C95.4479 121.98 94.9287 121.838 94.6534 121.99C94.378 122.143 93.8588 122.001 93.8259 121.785Z" fill="#DBB090"/>
<path d="M93.3635 123.293C93.6433 123.583 93.6847 123.684 93.7427 123.957C93.8008 124.231 93.5392 124.775 93.2444 124.974C92.9495 125.174 92.6695 124.884 92.5624 124.754C92.4554 124.624 92.2859 123.815 92.4495 123.557C92.613 123.299 93.0836 123.003 93.3635 123.293Z" fill="#DBB090"/>
<path d="M92.7284 119.173C93.1621 119.622 93.2262 119.778 93.3162 120.202C93.4062 120.626 93.0007 121.47 92.5438 121.779C92.0868 122.088 91.6528 121.639 91.4869 121.437C91.321 121.235 91.0584 119.982 91.3118 119.583C91.5653 119.183 92.2946 118.724 92.7284 119.173Z" fill="#DBB090"/>
<path d="M93.7831 126.108C93.9571 126.338 93.9826 126.418 94.0181 126.637C94.0536 126.856 93.8888 127.295 93.7042 127.457C93.5196 127.62 93.3456 127.39 93.2791 127.287C93.2126 127.183 93.109 126.537 93.2118 126.328C93.3146 126.12 93.6092 125.879 93.7831 126.108Z" fill="#DBB090"/>
<path d="M92.4605 125.879C92.6685 126.054 92.6993 126.114 92.743 126.278C92.7866 126.441 92.594 126.764 92.3759 126.88C92.1579 126.997 91.9497 126.822 91.8701 126.744C91.7905 126.665 91.6631 126.182 91.7837 126.029C91.9044 125.877 92.2524 125.704 92.4605 125.879Z" fill="#DBB090"/>
<path d="M91.2513 124.559C91.357 124.737 91.3724 124.799 91.3935 124.969C91.4147 125.139 91.3129 125.482 91.1997 125.61C91.0865 125.738 90.9807 125.561 90.9404 125.481C90.9 125.401 90.8384 124.899 90.9017 124.736C90.9651 124.573 91.1457 124.382 91.2513 124.559Z" fill="#DBB090"/>
<path d="M95.5629 119.782C95.6685 119.959 95.6839 120.022 95.7051 120.192C95.7262 120.362 95.6244 120.705 95.5112 120.833C95.398 120.961 95.2922 120.784 95.2519 120.704C95.2115 120.624 95.1499 120.121 95.2132 119.959C95.2766 119.796 95.4572 119.605 95.5629 119.782Z" fill="#DBB090"/>
<path d="M94.02 118.799C94.2982 118.655 94.3617 118.649 94.5015 118.675C94.6412 118.701 94.6942 119.051 94.5948 119.337C94.4954 119.623 94.217 119.768 94.1031 119.818C93.9892 119.868 93.5774 119.789 93.576 119.592C93.5746 119.394 93.7417 118.944 94.02 118.799Z" fill="#DBB090"/>
<path d="M95.544 124.584C95.3011 124.916 95.1981 124.998 94.9017 125.185C94.6054 125.372 93.51 125.711 93.6477 125.289C93.7854 124.867 94.594 124.212 94.9437 124.17C95.2935 124.127 95.787 124.252 95.544 124.584Z" fill="#DBB090"/>
<path d="M90.7813 121.801C90.5384 122.133 90.4354 122.214 90.139 122.402C89.8427 122.589 88.7473 122.928 88.885 122.506C89.0227 122.084 89.8313 121.429 90.1811 121.386C90.5308 121.344 91.0243 121.468 90.7813 121.801Z" fill="#DBB090"/>
<path d="M91.7091 122.524C92.0054 122.707 92.0495 122.77 92.1124 122.938C92.1754 123.106 91.9239 123.638 91.4364 123.475C90.9488 123.312 90.5797 122.817 90.7499 122.664C90.9201 122.511 91.4129 122.341 91.7091 122.524Z" fill="#DBB090"/>
<path d="M97.0715 122.874C96.7095 122.742 96.8651 122.258 96.7065 122.035C96.5479 121.813 96.2374 120.596 96.4215 120.273C96.6056 119.95 96.7213 120.239 96.8674 120.307C97.0134 120.375 97.6035 121.501 97.5589 121.815C97.5143 122.129 97.4334 123.005 97.0715 122.874Z" fill="#DBB090"/>
<path d="M96.2364 123.783C95.9618 124.06 95.6556 123.656 95.4058 123.691C95.1559 123.725 94.0537 123.381 93.8874 123.035C93.721 122.689 93.9286 122.658 94.0512 122.554C94.1738 122.45 95.4109 122.551 95.6361 122.759C95.8613 122.967 96.511 123.506 96.2364 123.783Z" fill="#DBB090"/>
<path d="M175.68 67.6028C175.8 67.7855 175.635 67.8932 175.365 68.1999C175.096 68.5066 174.931 68.6142 174.527 68.3564C174.124 68.0987 174.655 68.0124 174.843 67.7596C175.03 67.5067 175.561 67.4201 175.68 67.6028Z" fill="#DBB090"/>
<path d="M175.475 66.0389C175.1 65.8914 175.021 65.8166 174.854 65.5918C174.688 65.367 174.7 64.7631 174.886 64.4596C175.072 64.156 175.447 64.3034 175.598 64.3774C175.749 64.4515 176.239 65.1172 176.197 65.4195C176.155 65.7218 175.85 66.1863 175.475 66.0389Z" fill="#DBB090"/>
<path d="M177.761 69.5247C177.181 69.2962 177.057 69.1803 176.8 68.8319C176.542 68.4834 176.561 67.5476 176.849 67.0771C177.137 66.6066 177.718 66.835 177.952 66.9498C178.187 67.0646 178.946 68.0964 178.881 68.5648C178.816 69.0333 178.342 69.7532 177.761 69.5247Z" fill="#DBB090"/>
<path d="M173.926 63.65C173.672 63.5133 173.616 63.4505 173.493 63.2662C173.369 63.0819 173.337 62.6142 173.438 62.3898C173.539 62.1654 173.792 62.3021 173.896 62.3686C173.999 62.4351 174.361 62.9807 174.354 63.2126C174.347 63.4446 174.179 63.7867 173.926 63.65Z" fill="#DBB090"/>
<path d="M175.225 63.3129C174.963 63.2401 174.91 63.1978 174.802 63.0672C174.695 62.9365 174.736 62.5632 174.887 62.3668C175.037 62.1703 175.299 62.243 175.404 62.2814C175.509 62.3197 175.825 62.7067 175.778 62.8953C175.732 63.084 175.487 63.3856 175.225 63.3129Z" fill="#DBB090"/>
<path d="M176.872 64.0092C176.703 63.8919 176.663 63.8414 176.573 63.6955C176.483 63.5497 176.434 63.1953 176.484 63.0318C176.533 62.8683 176.703 62.9856 176.773 63.0416C176.843 63.0975 177.107 63.5292 177.117 63.7036C177.127 63.8781 177.042 64.1265 176.872 64.0092Z" fill="#DBB090"/>
<path d="M174.93 70.1459C174.76 70.0286 174.72 69.9781 174.631 69.8323C174.541 69.6864 174.491 69.3321 174.541 69.1686C174.591 69.005 174.761 69.1224 174.831 69.1783C174.9 69.2342 175.165 69.6659 175.175 69.8403C175.185 70.0148 175.099 70.2633 174.93 70.1459Z" fill="#DBB090"/>
<path d="M176.742 70.3993C176.549 70.6465 176.494 70.6783 176.356 70.7124C176.217 70.7465 176.024 70.4496 175.996 70.1485C175.968 69.8474 176.161 69.6 176.244 69.5071C176.327 69.4141 176.734 69.3155 176.818 69.4944C176.901 69.6733 176.935 70.1521 176.742 70.3993Z" fill="#DBB090"/>
<path d="M172.957 65.7691C173.04 65.366 173.1 65.2492 173.292 64.9559C173.484 64.6626 174.34 63.9 174.39 64.341C174.439 64.7819 173.975 65.7135 173.675 65.8972C173.374 66.081 172.873 66.1722 172.957 65.7691Z" fill="#DBB090"/>
<path d="M178.444 66.3257C178.527 65.9227 178.587 65.8059 178.779 65.5125C178.971 65.2192 179.828 64.4566 179.877 64.8976C179.927 65.3385 179.463 66.2702 179.162 66.4539C178.861 66.6376 178.361 66.7288 178.444 66.3257Z" fill="#DBB090"/>
<path d="M177.3 66.0512C176.955 66.0075 176.889 65.9689 176.762 65.842C176.635 65.7152 176.643 65.1269 177.154 65.0729C177.665 65.0189 178.206 65.3163 178.115 65.5263C178.024 65.7363 177.646 66.0948 177.3 66.0512Z" fill="#DBB090"/>
<path d="M172.276 67.9568C172.66 67.9265 172.719 68.4314 172.955 68.5683C173.192 68.7052 173.979 69.684 173.946 70.0542C173.912 70.4244 173.687 70.2091 173.525 70.2077C173.364 70.2062 172.361 69.4264 172.271 69.1223C172.181 68.8183 171.892 67.9871 172.276 67.9568Z" fill="#DBB090"/>
<path d="M172.657 66.7827C172.792 66.4169 173.238 66.6574 173.452 66.5225C173.665 66.3876 174.81 66.2438 175.105 66.4898C175.4 66.7359 175.224 66.8498 175.155 66.9951C175.087 67.1404 173.919 67.5615 173.628 67.4656C173.337 67.3698 172.522 67.1485 172.657 66.7827Z" fill="#DBB090"/>
<path d="M131.79 157.455C132 157.511 131.949 157.702 131.953 158.11C131.957 158.518 131.906 158.708 131.433 158.785C130.96 158.863 131.299 158.444 131.27 158.131C131.241 157.817 131.579 157.398 131.79 157.455Z" fill="#DBB090"/>
<path d="M130.593 156.426C130.215 156.566 130.106 156.563 129.832 156.507C129.558 156.45 129.165 155.992 129.101 155.642C129.036 155.292 129.414 155.152 129.576 155.106C129.739 155.06 130.547 155.23 130.718 155.483C130.888 155.736 130.97 156.286 130.593 156.426Z" fill="#DBB090"/>
<path d="M134.622 157.499C134.037 157.716 133.868 157.712 133.443 157.624C133.019 157.536 132.409 156.826 132.31 156.284C132.21 155.741 132.796 155.524 133.047 155.453C133.298 155.382 134.552 155.645 134.816 156.037C135.08 156.43 135.207 157.282 134.622 157.499Z" fill="#DBB090"/>
<path d="M127.846 155.68C127.566 155.747 127.482 155.738 127.267 155.683C127.053 155.628 126.717 155.3 126.642 155.066C126.567 154.832 126.848 154.765 126.969 154.745C127.09 154.726 127.724 154.891 127.873 155.068C128.023 155.246 128.126 155.613 127.846 155.68Z" fill="#DBB090"/>
<path d="M128.589 154.561C128.345 154.682 128.277 154.686 128.11 154.66C127.943 154.634 127.725 154.328 127.706 154.082C127.687 153.835 127.93 153.715 128.034 153.673C128.138 153.632 128.632 153.709 128.723 153.881C128.814 154.053 128.832 154.441 128.589 154.561Z" fill="#DBB090"/>
<path d="M130.281 153.983C130.077 154.009 130.013 153.998 129.849 153.949C129.685 153.9 129.412 153.669 129.34 153.514C129.268 153.359 129.473 153.333 129.562 153.328C129.651 153.324 130.136 153.469 130.26 153.592C130.384 153.716 130.486 153.958 130.281 153.983Z" fill="#DBB090"/>
<path d="M132.926 159.85C132.721 159.876 132.658 159.865 132.494 159.816C132.329 159.767 132.056 159.536 131.984 159.381C131.912 159.226 132.117 159.201 132.206 159.196C132.296 159.191 132.781 159.336 132.904 159.459C133.028 159.583 133.13 159.825 132.926 159.85Z" fill="#DBB090"/>
<path d="M134.446 158.831C134.467 159.144 134.447 159.205 134.367 159.322C134.287 159.44 133.944 159.348 133.723 159.142C133.501 158.936 133.48 158.623 133.48 158.498C133.479 158.374 133.717 158.029 133.899 158.106C134.08 158.184 134.425 158.518 134.446 158.831Z" fill="#DBB090"/>
<path d="M128.537 157.906C128.33 157.55 128.297 157.423 128.245 157.076C128.192 156.73 128.322 155.59 128.653 155.886C128.984 156.181 129.259 157.185 129.158 157.522C129.056 157.86 128.744 158.262 128.537 157.906Z" fill="#DBB090"/>
<path d="M132.998 154.662C132.791 154.306 132.758 154.179 132.706 153.832C132.653 153.486 132.783 152.346 133.114 152.642C133.445 152.937 133.72 153.941 133.619 154.278C133.517 154.616 133.205 155.018 132.998 154.662Z" fill="#DBB090"/>
<path d="M131.962 155.219C131.675 155.417 131.6 155.432 131.421 155.422C131.242 155.412 130.856 154.969 131.2 154.587C131.545 154.206 132.147 154.067 132.219 154.284C132.291 154.502 132.248 155.021 131.962 155.219Z" fill="#DBB090"/>
<path d="M129.489 159.989C129.754 159.711 130.135 160.047 130.403 159.992C130.67 159.936 131.91 160.14 132.132 160.438C132.354 160.737 132.042 160.726 131.921 160.833C131.8 160.939 130.532 161.028 130.262 160.861C129.993 160.694 129.223 160.268 129.489 159.989Z" fill="#DBB090"/>
<path d="M128.991 158.86C128.847 158.498 129.34 158.379 129.409 158.137C129.478 157.894 130.235 157.023 130.619 157.009C131.003 156.996 130.948 157.198 130.994 157.352C131.04 157.506 130.45 158.599 130.169 158.722C129.889 158.844 129.134 159.223 128.991 158.86Z" fill="#DBB090"/>
<path d="M117.71 132.567C117.78 132.36 117.966 132.423 118.374 132.445C118.782 132.468 118.968 132.531 119.015 133.008C119.061 133.484 118.665 133.12 118.351 133.129C118.036 133.137 117.64 132.773 117.71 132.567Z" fill="#DBB090"/>
<path d="M116.606 133.695C116.721 134.081 116.712 134.19 116.638 134.46C116.564 134.729 116.081 135.092 115.728 135.134C115.374 135.175 115.259 134.79 115.223 134.625C115.188 134.46 115.409 133.664 115.673 133.51C115.936 133.356 116.49 133.31 116.606 133.695Z" fill="#DBB090"/>
<path d="M117.936 129.743C118.115 130.341 118.1 130.509 117.985 130.927C117.87 131.345 117.123 131.908 116.575 131.972C116.027 132.037 115.848 131.438 115.793 131.183C115.739 130.928 116.081 129.694 116.49 129.455C116.899 129.217 117.757 129.145 117.936 129.743Z" fill="#DBB090"/>
<path d="M115.686 136.388C115.735 136.671 115.72 136.755 115.651 136.965C115.582 137.176 115.234 137.49 114.996 137.549C114.757 137.609 114.708 137.325 114.696 137.203C114.685 137.08 114.89 136.458 115.077 136.321C115.264 136.183 115.637 136.104 115.686 136.388Z" fill="#DBB090"/>
<path d="M114.617 135.575C114.721 135.826 114.721 135.894 114.684 136.059C114.648 136.225 114.329 136.423 114.081 136.426C113.834 136.429 113.73 136.178 113.695 136.072C113.66 135.966 113.769 135.478 113.946 135.398C114.123 135.318 114.512 135.325 114.617 135.575Z" fill="#DBB090"/>
<path d="M114.148 133.85C114.161 134.056 114.146 134.118 114.086 134.279C114.027 134.44 113.779 134.698 113.62 134.759C113.46 134.821 113.448 134.615 113.449 134.526C113.449 134.436 113.626 133.962 113.757 133.846C113.888 133.731 114.136 133.644 114.148 133.85Z" fill="#DBB090"/>
<path d="M120.174 131.586C120.186 131.792 120.171 131.855 120.112 132.015C120.052 132.176 119.804 132.434 119.645 132.496C119.486 132.557 119.473 132.351 119.474 132.262C119.475 132.173 119.651 131.698 119.782 131.582C119.913 131.467 120.161 131.38 120.174 131.586Z" fill="#DBB090"/>
<path d="M119.254 130.005C119.567 130.004 119.627 130.028 119.739 130.115C119.851 130.203 119.737 130.538 119.517 130.746C119.298 130.954 118.984 130.955 118.86 130.947C118.735 130.94 118.406 130.68 118.495 130.504C118.585 130.328 118.94 130.005 119.254 130.005Z" fill="#DBB090"/>
<path d="M117.95 135.842C117.582 136.025 117.453 136.05 117.103 136.081C116.754 136.111 115.625 135.908 115.942 135.597C116.258 135.286 117.277 135.075 117.607 135.198C117.937 135.321 118.318 135.658 117.95 135.842Z" fill="#DBB090"/>
<path d="M114.999 131.182C114.63 131.365 114.501 131.39 114.152 131.42C113.803 131.451 112.674 131.248 112.99 130.937C113.307 130.625 114.326 130.415 114.656 130.538C114.986 130.661 115.367 130.998 114.999 131.182Z" fill="#DBB090"/>
<path d="M115.49 132.252C115.669 132.551 115.679 132.626 115.658 132.805C115.637 132.983 115.169 133.34 114.811 132.971C114.453 132.602 114.352 131.993 114.574 131.935C114.795 131.877 115.311 131.953 115.49 132.252Z" fill="#DBB090"/>
<path d="M120.092 135.026C119.831 134.743 120.191 134.385 120.153 134.114C120.114 133.843 120.398 132.619 120.709 132.417C121.021 132.215 120.991 132.525 121.09 132.653C121.188 132.78 121.195 134.052 121.011 134.31C120.827 134.568 120.353 135.309 120.092 135.026Z" fill="#DBB090"/>
<path d="M118.932 135.449C118.561 135.569 118.474 135.07 118.237 134.985C117.999 134.901 117.178 134.089 117.189 133.705C117.201 133.321 117.399 133.389 117.556 133.353C117.712 133.318 118.765 133.976 118.869 134.264C118.974 134.552 119.303 135.329 118.932 135.449Z" fill="#DBB090"/>
<path d="M162.947 67.4257C162.814 67.3782 162.879 67.1928 162.944 66.7982C163.009 66.4036 163.074 66.2182 163.407 66.1277C163.74 66.0371 163.442 66.4531 163.41 66.755C163.378 67.0569 163.081 67.4731 162.947 67.4257Z" fill="#DBB090"/>
<path d="M163.588 68.38C163.867 68.2317 163.941 68.2306 164.117 68.276C164.294 68.3215 164.485 68.7509 164.471 69.0871C164.457 69.4232 164.178 69.5716 164.06 69.6214C163.943 69.6711 163.422 69.5348 163.348 69.2958C163.275 69.0569 163.309 68.5282 163.588 68.38Z" fill="#DBB090"/>
<path d="M161.033 67.479C161.465 67.2493 161.579 67.2476 161.852 67.318C162.126 67.3884 162.422 68.0539 162.401 68.5749C162.379 69.0959 161.946 69.3258 161.764 69.403C161.582 69.4801 160.775 69.2688 160.661 68.8984C160.546 68.5281 160.6 67.7087 161.033 67.479Z" fill="#DBB090"/>
<path d="M165.327 69.006C165.528 68.9316 165.584 68.9374 165.72 68.9835C165.857 69.0297 166.03 69.3344 166.042 69.5584C166.055 69.7823 165.854 69.8568 165.768 69.8797C165.683 69.9026 165.28 69.7648 165.208 69.5982C165.136 69.4315 165.126 69.0804 165.327 69.006Z" fill="#DBB090"/>
<path d="M164.64 70.1132C164.825 69.9885 164.871 69.9824 164.98 70.0014C165.09 70.0204 165.187 70.3085 165.159 70.546C165.131 70.7836 164.947 70.9084 164.869 70.952C164.792 70.9956 164.471 70.9378 164.437 70.7751C164.404 70.6124 164.455 70.2379 164.64 70.1132Z" fill="#DBB090"/>
<path d="M163.398 70.7283C163.541 70.6964 163.582 70.7049 163.685 70.7464C163.788 70.788 163.935 71.0018 163.958 71.1492C163.981 71.2966 163.838 71.3285 163.777 71.3363C163.716 71.3441 163.411 71.2204 163.348 71.1055C163.284 70.9905 163.255 70.7602 163.398 70.7283Z" fill="#DBB090"/>
<path d="M162.57 65.1482C162.713 65.1164 162.754 65.1248 162.857 65.1664C162.96 65.2079 163.107 65.4217 163.13 65.5691C163.153 65.7165 163.01 65.7484 162.949 65.7562C162.888 65.7641 162.583 65.6404 162.52 65.5254C162.456 65.4104 162.427 65.1801 162.57 65.1482Z" fill="#DBB090"/>
<path d="M161.37 66.1834C161.407 65.8816 161.431 65.8224 161.504 65.7062C161.578 65.59 161.795 65.6674 161.911 65.8586C162.028 66.0498 161.99 66.3517 161.97 66.472C161.95 66.5923 161.732 66.9341 161.622 66.8649C161.512 66.7958 161.333 66.4851 161.37 66.1834Z" fill="#DBB090"/>
<path d="M165.225 66.8785C165.306 67.2155 165.308 67.3371 165.286 67.6703C165.265 68.0035 164.99 69.1091 164.814 68.8348C164.639 68.5605 164.617 67.5998 164.741 67.2702C164.865 66.9407 165.143 66.5416 165.225 66.8785Z" fill="#DBB090"/>
<path d="M161.668 70.1676C161.749 70.5045 161.751 70.6262 161.73 70.9594C161.708 71.2926 161.433 72.3982 161.257 72.1239C161.082 71.8495 161.06 70.8888 161.185 70.5593C161.309 70.2297 161.586 69.8306 161.668 70.1676Z" fill="#DBB090"/>
<path d="M162.46 69.5904C162.687 69.3893 162.741 69.3719 162.86 69.3753C162.98 69.3786 163.168 69.7942 162.872 70.1744C162.576 70.5546 162.145 70.7099 162.132 70.5023C162.119 70.2947 162.234 69.7914 162.46 69.5904Z" fill="#DBB090"/>
<path d="M164.923 64.8958C164.697 65.1742 164.494 64.8616 164.304 64.9247C164.113 64.9878 163.306 64.8325 163.205 64.5518C163.103 64.271 163.313 64.2703 163.413 64.1633C163.512 64.0563 164.386 63.9278 164.542 64.0798C164.697 64.2319 165.149 64.6175 164.923 64.8958Z" fill="#DBB090"/>
<path d="M165.074 65.9714C165.112 66.3169 164.758 66.4482 164.672 66.685C164.585 66.9218 163.928 67.7898 163.666 67.8159C163.404 67.8421 163.475 67.6446 163.469 67.4974C163.463 67.3502 164.042 66.2743 164.253 66.146C164.463 66.0177 165.037 65.626 165.074 65.9714Z" fill="#DBB090"/>
<path d="M124.958 141.705C125.028 141.498 125.214 141.561 125.622 141.584C126.03 141.607 126.216 141.67 126.263 142.146C126.309 142.623 125.913 142.258 125.599 142.267C125.284 142.276 124.888 141.912 124.958 141.705Z" fill="#DBB090"/>
<path d="M123.854 142.834C123.97 143.22 123.96 143.329 123.886 143.598C123.812 143.868 123.329 144.231 122.976 144.273C122.622 144.314 122.507 143.928 122.471 143.763C122.436 143.599 122.657 142.802 122.921 142.649C123.184 142.495 123.738 142.448 123.854 142.834Z" fill="#DBB090"/>
<path d="M125.184 138.881C125.363 139.479 125.348 139.648 125.233 140.066C125.118 140.484 124.371 141.047 123.823 141.111C123.275 141.175 123.096 140.577 123.041 140.322C122.987 140.066 123.329 138.832 123.738 138.594C124.147 138.356 125.005 138.284 125.184 138.881Z" fill="#DBB090"/>
<path d="M122.934 145.526C122.983 145.81 122.968 145.893 122.899 146.104C122.83 146.315 122.482 146.629 122.244 146.688C122.005 146.748 121.956 146.464 121.945 146.341C121.933 146.219 122.138 145.597 122.325 145.459C122.512 145.322 122.885 145.243 122.934 145.526Z" fill="#DBB090"/>
<path d="M121.865 144.714C121.969 144.965 121.969 145.033 121.932 145.198C121.896 145.363 121.577 145.561 121.329 145.565C121.082 145.568 120.978 145.317 120.943 145.211C120.908 145.104 121.017 144.617 121.194 144.537C121.372 144.457 121.76 144.463 121.865 144.714Z" fill="#DBB090"/>
<path d="M121.396 142.989C121.409 143.194 121.394 143.257 121.334 143.418C121.275 143.578 121.027 143.836 120.868 143.898C120.708 143.96 120.696 143.754 120.697 143.664C120.697 143.575 120.874 143.1 121.005 142.985C121.136 142.869 121.384 142.783 121.396 142.989Z" fill="#DBB090"/>
<path d="M127.422 140.725C127.434 140.931 127.419 140.993 127.36 141.154C127.301 141.315 127.052 141.573 126.893 141.634C126.734 141.696 126.721 141.49 126.722 141.401C126.723 141.311 126.899 140.837 127.03 140.721C127.161 140.606 127.409 140.519 127.422 140.725Z" fill="#DBB090"/>
<path d="M126.502 139.143C126.815 139.142 126.875 139.166 126.987 139.254C127.099 139.341 126.985 139.677 126.765 139.885C126.546 140.093 126.232 140.094 126.108 140.086C125.983 140.078 125.654 139.819 125.743 139.643C125.833 139.467 126.188 139.144 126.502 139.143Z" fill="#DBB090"/>
<path d="M125.198 144.981C124.83 145.164 124.701 145.189 124.351 145.219C124.002 145.249 122.874 145.047 123.19 144.736C123.506 144.424 124.525 144.214 124.855 144.337C125.185 144.46 125.567 144.797 125.198 144.981Z" fill="#DBB090"/>
<path d="M122.247 140.32C121.878 140.504 121.75 140.529 121.4 140.559C121.051 140.589 119.922 140.387 120.238 140.075C120.555 139.764 121.574 139.554 121.904 139.677C122.234 139.8 122.615 140.137 122.247 140.32Z" fill="#DBB090"/>
<path d="M122.738 141.391C122.917 141.689 122.927 141.765 122.906 141.943C122.885 142.122 122.417 142.478 122.059 142.11C121.701 141.741 121.6 141.132 121.822 141.074C122.043 141.016 122.559 141.092 122.738 141.391Z" fill="#DBB090"/>
<path d="M127.34 144.165C127.079 143.882 127.439 143.523 127.401 143.253C127.362 142.982 127.646 141.758 127.958 141.556C128.269 141.354 128.239 141.664 128.338 141.792C128.436 141.919 128.443 143.19 128.259 143.448C128.075 143.707 127.601 144.448 127.34 144.165Z" fill="#DBB090"/>
<path d="M126.18 144.588C125.809 144.708 125.722 144.208 125.485 144.124C125.247 144.04 124.426 143.228 124.437 142.844C124.449 142.46 124.647 142.528 124.804 142.492C124.96 142.456 126.013 143.114 126.117 143.403C126.222 143.691 126.551 144.468 126.18 144.588Z" fill="#DBB090"/>
<path d="M187.508 76.9873C187.552 76.856 187.671 76.896 187.93 76.9104C188.188 76.9248 188.307 76.9648 188.336 77.2674C188.366 77.5699 188.114 77.3385 187.915 77.3441C187.715 77.3497 187.463 77.1185 187.508 76.9873Z" fill="#DBB090"/>
<path d="M186.806 77.704C186.88 77.9489 186.874 78.018 186.827 78.1892C186.78 78.3603 186.473 78.591 186.249 78.6173C186.024 78.6436 185.951 78.3986 185.929 78.294C185.906 78.1894 186.047 77.6839 186.214 77.5864C186.381 77.4888 186.733 77.4591 186.806 77.704Z" fill="#DBB090"/>
<path d="M187.651 75.1952C187.765 75.5747 187.755 75.6817 187.683 75.947C187.61 76.2123 187.135 76.5697 186.787 76.6106C186.439 76.6514 186.326 76.2717 186.291 76.1096C186.256 75.9474 186.474 75.164 186.733 75.0128C186.993 74.8616 187.538 74.8156 187.651 75.1952Z" fill="#DBB090"/>
<path d="M186.222 79.4124C186.253 79.5926 186.244 79.6455 186.2 79.7792C186.156 79.9129 185.936 80.1122 185.784 80.15C185.633 80.1878 185.601 80.0076 185.594 79.9299C185.587 79.8522 185.717 79.4573 185.836 79.37C185.954 79.2827 186.191 79.2323 186.222 79.4124Z" fill="#DBB090"/>
<path d="M185.544 78.8971C185.61 79.0563 185.61 79.0994 185.587 79.2043C185.564 79.3092 185.361 79.4348 185.204 79.4369C185.047 79.439 184.981 79.2797 184.959 79.2123C184.937 79.1449 185.006 78.8352 185.118 78.7845C185.231 78.7338 185.477 78.7379 185.544 78.8971Z" fill="#DBB090"/>
<path d="M185.247 77.8023C185.255 77.9329 185.245 77.9727 185.207 78.0747C185.17 78.1766 185.012 78.3403 184.911 78.3795C184.81 78.4187 184.802 78.288 184.802 78.2312C184.803 78.1745 184.915 77.8731 184.998 77.7998C185.081 77.7265 185.239 77.6716 185.247 77.8023Z" fill="#DBB090"/>
<path d="M189.072 76.3648C189.08 76.4954 189.07 76.5352 189.032 76.6372C188.995 76.7391 188.837 76.9028 188.736 76.942C188.635 76.9812 188.627 76.8505 188.628 76.7937C188.628 76.737 188.74 76.4356 188.823 76.3623C188.906 76.289 189.064 76.2341 189.072 76.3648Z" fill="#DBB090"/>
<path d="M188.488 75.3611C188.687 75.3606 188.725 75.3757 188.796 75.4312C188.867 75.4868 188.795 75.6998 188.655 75.8318C188.516 75.9639 188.317 75.9644 188.238 75.9595C188.159 75.9547 187.95 75.7898 188.006 75.6782C188.063 75.5666 188.289 75.3616 188.488 75.3611Z" fill="#DBB090"/>
<path d="M187.66 79.0657C187.426 79.1822 187.344 79.198 187.122 79.2172C186.901 79.2363 186.184 79.1078 186.385 78.9102C186.586 78.7125 187.233 78.5789 187.442 78.6569C187.652 78.735 187.894 78.9492 187.66 79.0657Z" fill="#DBB090"/>
<path d="M185.787 76.1087C185.553 76.2251 185.471 76.241 185.249 76.2601C185.028 76.2793 184.311 76.1508 184.512 75.9531C184.713 75.7555 185.36 75.6218 185.569 75.6999C185.779 75.778 186.021 75.9922 185.787 76.1087Z" fill="#DBB090"/>
<path d="M186.098 76.7876C186.212 76.9772 186.219 77.0253 186.205 77.1384C186.191 77.2515 185.894 77.4781 185.667 77.2441C185.44 77.01 185.376 76.6232 185.517 76.5865C185.657 76.5498 185.985 76.598 186.098 76.7876Z" fill="#DBB090"/>
<path d="M189.02 78.5478C188.854 78.368 189.083 78.1405 189.059 77.9687C189.034 77.7968 189.214 77.0199 189.412 76.8915C189.61 76.7632 189.591 76.9601 189.654 77.0411C189.716 77.1221 189.72 77.9291 189.604 78.093C189.487 78.257 189.186 78.7276 189.02 78.5478Z" fill="#DBB090"/>
<path d="M188.283 78.817C188.047 78.893 187.992 78.576 187.841 78.5225C187.691 78.469 187.169 77.9534 187.177 77.7097C187.184 77.4659 187.31 77.5092 187.409 77.4865C187.509 77.4637 188.177 77.8815 188.243 78.0645C188.309 78.2474 188.518 78.741 188.283 78.817Z" fill="#DBB090"/>
<path d="M174.247 57.9998C167.447 53.9998 163.747 51.4994 160.247 57.9998C156.747 64.5002 158.247 76.0002 162.747 77.5002C167.247 79.0002 172.747 79.5002 178.747 84.5002C184.747 89.5002 192.247 80.0002 191.747 76.5002C191.247 73.0002 182.747 62.9998 174.247 57.9998Z" stroke="black" stroke-linecap="round" stroke-dasharray="4 4"/>
<path d="M98.7895 143.455C99.0003 143.511 98.9495 143.702 98.953 144.11C98.9566 144.518 98.9056 144.708 98.433 144.785C97.9604 144.863 98.2987 144.444 98.2697 144.131C98.2407 143.817 98.5787 143.398 98.7895 143.455Z" fill="#DBB090"/>
<path d="M97.5926 142.426C97.215 142.566 97.1059 142.563 96.832 142.507C96.5582 142.45 96.1647 141.992 96.1006 141.642C96.0365 141.292 96.4141 141.152 96.5763 141.106C96.7385 141.06 97.5473 141.23 97.7176 141.483C97.8879 141.736 97.9701 142.286 97.5926 142.426Z" fill="#DBB090"/>
<path d="M101.622 143.499C101.037 143.716 100.868 143.712 100.443 143.624C100.019 143.536 99.409 142.826 99.3097 142.284C99.2103 141.741 99.7957 141.524 100.047 141.453C100.298 141.382 101.552 141.645 101.816 142.037C102.08 142.43 102.207 143.282 101.622 143.499Z" fill="#DBB090"/>
<path d="M94.8459 141.68C94.5659 141.747 94.4818 141.738 94.2672 141.683C94.0526 141.628 93.7169 141.3 93.6422 141.066C93.5675 140.832 93.8476 140.765 93.9689 140.745C94.0902 140.726 94.7242 140.891 94.8735 141.068C95.0228 141.246 95.1259 141.613 94.8459 141.68Z" fill="#DBB090"/>
<path d="M95.5887 140.561C95.3451 140.682 95.2773 140.686 95.11 140.66C94.9428 140.634 94.7248 140.328 94.7057 140.082C94.6865 139.835 94.9302 139.715 95.0339 139.673C95.1377 139.632 95.6315 139.709 95.7226 139.881C95.8136 140.053 95.8322 140.441 95.5887 140.561Z" fill="#DBB090"/>
<path d="M97.2812 139.983C97.0766 140.009 97.0132 139.998 96.849 139.949C96.6849 139.9 96.4117 139.669 96.3398 139.514C96.2679 139.359 96.4726 139.333 96.5619 139.328C96.6513 139.324 97.1362 139.469 97.2599 139.592C97.3836 139.716 97.4858 139.958 97.2812 139.983Z" fill="#DBB090"/>
<path d="M99.9257 145.85C99.7211 145.876 99.6577 145.865 99.4936 145.816C99.3295 145.767 99.0562 145.536 98.9843 145.381C98.9125 145.226 99.1171 145.201 99.2065 145.196C99.2958 145.191 99.7807 145.336 99.9044 145.459C100.028 145.583 100.13 145.825 99.9257 145.85Z" fill="#DBB090"/>
<path d="M101.446 144.831C101.467 145.144 101.447 145.205 101.367 145.322C101.287 145.44 100.944 145.348 100.723 145.142C100.501 144.936 100.48 144.623 100.48 144.498C100.479 144.374 100.717 144.029 100.899 144.106C101.08 144.184 101.425 144.518 101.446 144.831Z" fill="#DBB090"/>
<path d="M95.5371 143.906C95.3304 143.55 95.2972 143.423 95.2446 143.076C95.1921 142.73 95.3216 141.59 95.6526 141.886C95.9837 142.181 96.2592 143.185 96.1577 143.522C96.0561 143.86 95.7439 144.262 95.5371 143.906Z" fill="#DBB090"/>
<path d="M99.9981 140.662C99.7913 140.306 99.7581 140.179 99.7056 139.832C99.653 139.486 99.7825 138.346 100.114 138.642C100.445 138.937 100.72 139.941 100.619 140.278C100.517 140.616 100.205 141.018 99.9981 140.662Z" fill="#DBB090"/>
<path d="M98.9617 141.219C98.6752 141.417 98.6001 141.432 98.421 141.422C98.2418 141.412 97.8556 140.969 98.2005 140.587C98.5453 140.206 99.147 140.067 99.2189 140.284C99.2909 140.502 99.2482 141.021 98.9617 141.219Z" fill="#DBB090"/>
<path d="M96.4885 145.989C96.7545 145.711 97.1352 146.047 97.4028 145.992C97.6705 145.936 98.9099 146.14 99.1317 146.438C99.3536 146.737 99.0421 146.726 98.921 146.833C98.8 146.939 97.532 147.028 97.2624 146.861C96.9929 146.694 96.2226 146.268 96.4885 145.989Z" fill="#DBB090"/>
<path d="M95.9906 144.86C95.8473 144.498 96.34 144.379 96.4089 144.137C96.4777 143.894 97.2354 143.023 97.6193 143.009C98.0032 142.996 97.9479 143.198 97.9937 143.352C98.0396 143.506 97.4503 144.599 97.1694 144.722C96.8886 144.844 96.1339 145.223 95.9906 144.86Z" fill="#DBB090"/>
<path d="M84.4688 188.977C94.7033 203.517 125.156 233.034 165.089 234.78" stroke="black" stroke-linecap="round" stroke-linejoin="round"/>
<path d="M102.096 213.332C93.5606 209.083 94.6991 199.732 82.824 220.74C70.9489 241.747 73.1768 212.962 70.8907 207.714C67.826 200.68 49.672 204.6 53.8602 199.236C61.1725 189.871 40.7863 182.81 53.2508 174.848C65.7152 166.886 67.1097 181.005 71.9719 177.085C79.1205 171.321 61.739 163.49 74.2083 158.364C86.6776 153.237 94.6105 148.686 98.6014 160.59C102.592 172.494 94.1939 173.368 97.4956 177.041C100.944 180.876 110.52 165.107 116.217 179.277C121.913 193.447 118.445 221.47 102.096 213.332Z" fill="#FFD339"/>
<path d="M88.1763 191.083C102.726 200.35 115.916 187.591 120.541 180.19C126.323 170.938 94.677 172.892 88.9731 183.41C83.2692 193.928 102.82 181.284 101.491 159.764C100.162 138.245 82.175 176.205 83.9099 183.722C85.6448 191.239 93.0987 167.907 76.9702 153.654C60.8417 139.402 68.2503 177.066 77.6585 185.379C87.0668 193.693 74.1107 169.079 53.9351 171.596C33.7594 174.113 57.952 195.491 74.2518 191.943C90.5517 188.395 63.7342 186.239 46.6375 197.461C29.5408 208.682 67.9856 213.932 79.7843 199.226C91.583 184.519 65.7817 198.82 70.9082 220.105C76.0348 241.39 88.5522 217.745 86.1918 200.101C83.9573 183.397 77.4871 203.18 102.242 213.087C129.806 224.119 110.048 191.003 88.1763 191.083Z" stroke="black" stroke-linecap="round" stroke-linejoin="round"/>
<path d="M145.735 183.425C144.573 181.414 145.083 175.661 147.258 173.208C149.433 170.756 160.003 176.624 164.383 178.404C168.763 180.185 166.072 187.964 164.276 189C162.48 190.037 147.186 185.939 145.735 183.425Z" fill="#5C5C5C"/>
<path d="M165.552 196.212C161.701 195.18 150.597 193.115 142.065 188.704C133.533 184.293 125.477 223.419 126.494 226.424C127.51 229.428 151.17 235.161 155.079 235.297C158.989 235.434 170.367 197.502 165.552 196.212Z" fill="#625FFF"/>
<path d="M135.798 184.898C128.853 196.091 119.924 223.751 124.187 228.233C128.45 232.714 149.126 238.254 153.643 236.125C158.16 233.996 168.44 197.895 166.159 193.944C163.879 189.994 137.194 186.487 136.254 183.199C135.313 179.911 166.883 188.978 166.994 190.829C167.105 192.68 151.983 186.806 146.733 186.007C141.933 185.276 143.821 173.084 147.447 173.145C151.074 173.206 163.46 176.828 165.215 178.209C167.015 179.626 163.135 189.371 160.197 189.007" stroke="black" stroke-linecap="round"/>
</svg>