<?xml version="1.0" encoding="utf-8"?>
<svg xmlns="http://www.w3.org/2000/svg" viewBox="0 0 250 250" fill="none">
  <path d="M220.319 172.476C225.183 172.034 225.662 165.29 225.294 161.974C220.872 153.13 202.078 158.657 198.209 162.527C194.339 166.396 185.495 165.29 176.098 163.632C166.701 161.974 160.068 168.607 155.093 174.687C150.118 180.768 137.958 191.823 136.852 197.351C135.747 202.878 155.646 216.144 158.963 212.828C162.279 209.511 177.756 209.511 184.389 208.406C191.023 207.3 196.55 199.561 203.736 194.587C210.922 189.612 217.555 188.506 218.108 182.426C218.661 176.345 214.239 173.029 220.319 172.476Z" fill="#FFD339"/>
  <path d="M178.866 181.144C179.382 181.711 180.041 183.897 178.548 188.106C176.683 193.367 188.886 187.981 186.433 184.935C183.979 181.89 180.414 182.845 176.829 181.69C173.244 180.534 169.395 178.392 172.94 175.326C176.486 172.26 179.184 174.182 177.808 177.195C176.432 180.209 178.357 181.28 171.736 183.054C165.115 184.828 174.513 193.419 175.492 188.925C176.472 184.431 176.3 179.715 184.978 179.506C193.656 179.297 182.333 169.635 180.071 173.415C177.808 177.195 177.904 181.32 183.594 181.414" stroke="black" stroke-linecap="round"/>
  <path d="M179.918 203.306C179.674 202.58 179.949 200.313 183.007 197.059C186.83 192.991 173.491 193.019 174.514 196.793C175.536 200.568 179.185 201.127 182.003 203.625C184.821 206.124 187.485 209.633 183.006 211.016C178.527 212.398 176.829 209.554 179.3 207.347C181.771 205.14 180.439 203.386 187.215 204.423C193.991 205.459 188.838 193.816 186.135 197.537C183.432 201.259 181.694 205.646 173.664 202.35C165.633 199.053 172.118 212.451 175.709 209.899C179.3 207.347 181.038 202.961 182.544 200.089" stroke="black" stroke-linecap="round"/>
  <path d="M199.924 190.615C199.591 191.305 197.809 192.734 193.347 192.923C187.771 193.16 197.328 202.465 199.236 199.05C201.143 195.636 198.924 192.686 198.656 188.93C198.387 185.173 198.935 180.802 203.104 182.944C207.274 185.086 206.5 188.307 203.19 188.158C199.881 188.008 199.607 190.194 195.486 184.716C191.365 179.239 186.911 191.167 191.445 190.395C195.98 189.623 200.289 187.701 203.727 195.671C207.166 203.642 211.894 189.528 207.542 188.843C203.19 188.158 198.881 190.079 195.797 191.08" stroke="black" stroke-linecap="round"/>
  <path d="M197.097 171.031C197.068 171.644 196.204 173.252 192.981 174.788C188.952 176.707 198.896 180.562 199.231 177.453C199.565 174.344 197.01 172.868 195.636 170.188C194.263 167.508 193.298 164.121 197.036 164.392C200.774 164.663 201.213 167.275 198.731 168.201C196.249 169.127 196.732 170.82 191.985 168.08C187.239 165.34 187.696 175.51 190.79 173.523C193.885 171.536 196.453 168.773 201.478 173.561C206.502 178.349 205.564 166.485 202.147 167.343C198.731 168.201 196.162 170.964 194.207 172.665" stroke="black" stroke-linecap="round"/>
  <path d="M161.864 193C161.835 193.612 160.972 195.221 157.749 196.756C153.72 198.676 163.664 202.53 163.998 199.421C164.333 196.312 161.778 194.837 160.404 192.157C159.031 189.477 158.066 186.089 161.803 186.36C165.541 186.632 165.98 189.244 163.499 190.17C161.017 191.096 161.499 192.789 156.753 190.049C152.007 187.309 152.463 197.479 155.558 195.492C158.652 193.504 161.221 190.741 166.245 195.529C171.27 200.317 170.331 188.453 166.915 189.312C163.499 190.17 160.93 192.932 158.974 194.634" stroke="black" stroke-linecap="round"/>
  <path d="M162.052 169.9C162.651 169.769 164.428 170.187 166.745 172.903C169.642 176.298 170.792 165.695 167.702 166.177C164.612 166.658 163.848 169.509 161.615 171.529C159.382 173.549 156.36 175.358 155.654 171.677C154.949 167.997 157.358 166.897 158.895 169.054C160.431 171.212 161.943 170.307 160.524 175.601C159.106 180.895 168.811 177.821 166.091 175.347C163.37 172.872 160.037 171.106 163.361 165.014C166.685 158.921 155.469 162.898 157.182 165.976C158.895 169.054 162.228 170.82 164.378 172.269" stroke="black" stroke-linecap="round"/>
  <path d="M150.394 182.274C150.374 182.691 149.786 183.787 147.59 184.834C144.845 186.142 151.62 188.768 151.848 186.649C152.076 184.531 150.335 183.526 149.399 181.7C148.463 179.874 147.806 177.566 150.353 177.75C152.899 177.935 153.198 179.715 151.508 180.346C149.817 180.977 150.145 182.131 146.912 180.264C143.678 178.397 143.989 185.326 146.097 183.972C148.206 182.618 149.956 180.735 153.379 183.998C156.802 187.26 156.163 179.176 153.835 179.761C151.508 180.346 149.757 182.228 148.425 183.387" stroke="black" stroke-linecap="round"/>
  <path d="M143.761 197.751C143.742 198.168 143.153 199.264 140.957 200.31C138.212 201.618 144.987 204.244 145.215 202.126C145.443 200.008 143.702 199.002 142.766 197.176C141.831 195.35 141.173 193.042 143.72 193.227C146.267 193.412 146.566 195.191 144.875 195.822C143.184 196.453 143.512 197.607 140.279 195.74C137.045 193.873 137.356 200.802 139.464 199.448C141.573 198.094 143.323 196.212 146.746 199.474C150.17 202.736 149.53 194.653 147.202 195.238C144.875 195.822 143.124 197.705 141.792 198.864" stroke="black" stroke-linecap="round"/>
  <path d="M159.488 209.089C159.092 209.506 157.493 210.119 154.264 209.234C150.227 208.129 154.926 216.959 157.069 214.956C159.212 212.954 158.301 210.34 158.968 207.595C159.634 204.851 161.025 201.854 163.513 204.337C166.001 206.82 164.712 208.943 162.383 208.08C160.053 207.217 159.358 208.715 157.667 203.862C155.975 199.008 150.068 206.509 153.483 206.994C156.898 207.479 160.415 207.091 161.049 213.569C161.683 220.048 168.286 211.048 165.334 209.564C162.383 208.08 158.866 208.468 156.435 208.478" stroke="black" stroke-linecap="round"/>
  <path d="M213.858 181.202C213.927 180.71 214.768 179.525 217.58 178.723C221.095 177.72 213.046 173.229 212.539 175.703C212.032 178.178 214.065 179.725 215.02 182.087C215.975 184.448 216.537 187.327 213.425 186.593C210.314 185.86 210.136 183.682 212.283 183.272C214.429 182.863 214.149 181.424 217.925 184.297C221.701 187.171 222.06 178.864 219.323 180.049C216.586 181.235 214.233 183.122 210.373 178.55C206.513 173.977 206.434 183.724 209.358 183.498C212.283 183.272 214.636 181.386 216.399 180.275" stroke="black" stroke-linecap="round"/>
  <path d="M198.955 155.679C199.044 156.087 198.759 157.298 196.908 158.877C194.595 160.851 201.82 161.634 201.492 159.529C201.164 157.423 199.222 156.903 197.845 155.382C196.469 153.86 195.236 151.801 197.744 151.32C200.252 150.839 201.001 152.481 199.531 153.528C198.061 154.575 198.677 155.605 195.071 154.638C191.464 153.672 193.558 160.284 195.244 158.431C196.93 156.577 198.133 154.306 202.284 156.571C206.435 158.836 203.725 151.194 201.628 152.361C199.531 153.528 198.328 155.799 197.341 157.264" stroke="black" stroke-linecap="round"/>
  <path d="M218.412 164.503C217.837 165.026 215.622 165.693 211.357 164.181C206.026 162.29 211.484 174.656 214.57 172.17C217.656 169.684 216.688 166.071 217.859 162.439C219.029 158.806 221.201 154.906 224.307 158.498C227.414 162.091 225.467 164.825 222.413 163.431C219.359 162.037 218.273 163.987 216.476 157.278C214.678 150.569 205.973 160.092 210.527 161.084C215.081 162.076 219.859 161.902 220.071 170.696C220.283 179.489 230.074 168.016 226.243 165.723C222.413 163.431 217.635 163.605 214.358 163.377" stroke="black" stroke-linecap="round"/>
  <path d="M179.997 163.319C179.481 162.987 178.52 161.435 178.802 157.876C179.154 153.427 170.844 160.112 173.369 161.956C175.894 163.8 178.45 162.325 181.457 162.476C184.465 162.626 187.881 163.484 185.777 166.586C183.674 169.687 181.192 168.761 181.631 166.149C182.07 163.537 180.362 163.108 185.108 160.368C189.854 157.627 180.818 152.938 180.992 156.611C181.166 160.285 182.274 163.891 175.616 165.848C168.957 167.805 179.701 172.924 180.666 169.537C181.631 166.149 180.523 162.543 180.027 159.999" stroke="black" stroke-linecap="round"/>
  <path d="M110.31 211.732C116.059 205.983 119.707 194.227 120.812 189.068C123.327 180.528 107.546 197.913 105.335 204.546C103.124 211.179 103.124 218.917 110.31 211.732Z" fill="#C4E699"/>
  <path d="M105.245 225.447C108.882 231.746 117.049 238.285 120.679 240.766C126.624 245.41 115.481 227.613 110.886 223.805C106.291 219.996 100.698 217.572 105.245 225.447Z" fill="#C4E699"/>
  <path d="M160.621 193.48C153.988 193.848 139.064 196.686 132.431 205.088C124.139 215.59 95.9484 227.198 73.2852 202.324C59.9897 187.731 72.0972 199.898 85.4457 210.062C94.8508 217.224 101.851 226.97 114.189 210.063C144.039 169.158 97.0539 197.349 108.662 225.54C120.27 253.731 132.983 238.806 98.1594 209.51" stroke="black" stroke-linecap="round"/>
  <path d="M208.265 48.0987C222.921 61.1031 217.812 75.1912 213.426 80.6097C209.165 90.4146 199.751 56.8716 162.337 48.0987C124.924 39.3259 121.569 88.0925 109.184 87.5764C96.7991 87.0604 79.2518 107.186 88.7987 147.954C92.1382 162.214 116.987 197.769 109.183 211.428C94.6772 236.818 25.5309 224.099 30.2284 218.395C34.7136 212.948 32.9942 191.798 39.7753 173.24C43.9171 161.906 58.5492 153.965 58.3535 144.084C57.8375 118.023 52.935 51.453 105.572 31.3272C158.209 11.2013 189.946 31.8432 208.265 48.0987Z" fill="#666270"/>
  <path d="M117.182 68.4829C134.315 47.6346 156.143 42.938 183.494 50.4207C210.844 57.9034 216.779 76.2229 218.843 102.283C220.907 128.344 203.362 128.344 203.878 147.696C204.394 167.047 190.46 169.37 181.43 182.529C172.399 195.689 177.559 188.206 139.114 172.466C100.668 156.727 102.99 151.051 99.8941 133.505C96.7978 115.959 89.0572 131.957 73.3177 112.347C57.5783 92.7372 78.9942 84.2224 89.0572 91.189C99.1201 98.1557 95.7658 94.5433 117.182 68.4829Z" fill="#E7C9B3"/>
  <path d="M151.229 123.155C150.139 122.866 149.669 122.775 147.625 123.235M147.625 123.235C143.827 124.09 148.526 122.994 148.774 122.114M147.625 123.235C143.827 124.09 148.398 123.116 149.221 123.784" stroke="black" stroke-linecap="round" stroke-linejoin="round"/>
  <path d="M101.358 93.0712C102.031 93.7414 102.336 94.0057 104.022 94.5311M104.022 94.5311C107.153 95.5072 103.262 94.3276 102.711 94.8655M104.022 94.5311C107.153 95.5072 103.407 94.2926 103.088 93.4582" stroke="black" stroke-linecap="round" stroke-linejoin="round"/>
  <path d="M102.019 120.164C102.937 120.409 103.334 120.486 105.056 120.1M105.056 120.1C108.257 119.384 104.296 120.303 104.087 121.044M105.056 120.1C108.257 119.384 104.405 120.2 103.712 119.636" stroke="black" stroke-linecap="round" stroke-linejoin="round"/>
  <path d="M116.401 160.498C117.285 160.15 117.65 159.976 118.807 158.643M118.807 158.643C120.957 156.167 118.316 159.258 118.588 159.978M118.807 158.643C120.957 156.167 118.342 159.111 117.45 159.068" stroke="black" stroke-linecap="round" stroke-linejoin="round"/>
  <path d="M141.94 86.2138C139.844 87.2144 138.767 87.1271 136.829 87.2088M136.829 87.2088C132.238 87.4024 137.931 87.1884 138.499 88.106M136.829 87.2088C132.242 87.4794 137.746 87.0919 138.462 86.0648" stroke="black" stroke-linecap="round" stroke-linejoin="round"/>
  <path d="M162.167 145.181C160.79 147.063 159.799 147.515 158.126 148.532M158.126 148.532C154.165 150.942 159.09 147.976 160.026 148.485M158.126 148.532C154.204 151.006 158.88 147.984 159.026 146.753" stroke="black" stroke-linecap="round" stroke-linejoin="round"/>
  <path d="M117 77.5C121.073 74.3542 126.427 70.1475 131.5 67.0004C136.573 63.8532 133.427 83.9986 129.927 92.9986C126.427 101.999 129.927 110.146 138 117.999C146.073 125.853 141 134 143 138.5C145 143 151.927 148.646 154.5 154C157.073 159.354 163.5 173 160 177.5C156.5 182 145.073 171.354 138 167C130.927 162.646 117 155 110.5 150C104 145 103.573 135.854 107 126C110.426 116.146 104 109.354 106 102C108 94.6458 112.927 80.6458 117 77.5Z" fill="#D8BDA9"/>
  <path d="M119.319 136C117.819 136 117.319 139.5 119.319 139.5C121.819 139.5 120.819 136 119.319 136Z" fill="#8DA6FF"/>
  <path d="M118.848 136.917C118.482 137.502 118.778 137.958 119.266 137.177C119.876 136.201 119.214 136.331 118.848 136.917Z" fill="#B5CEFF"/>
  <path d="M157.319 173C155.819 173 155.319 176.5 157.319 176.5C159.819 176.5 158.819 173 157.319 173Z" fill="#8DA6FF"/>
  <path d="M156.848 173.917C156.482 174.502 156.778 174.958 157.266 174.177C157.876 173.201 157.214 173.331 156.848 173.917Z" fill="#B5CEFF"/>
  <path d="M114.29 120.18C113.468 120.655 114.301 122.732 115.398 122.099C116.768 121.307 115.112 119.705 114.29 120.18Z" fill="#8DA6FF"/>
  <path d="M114.291 120.643C114.086 120.971 114.435 121.342 114.708 120.904C115.051 120.356 114.496 120.314 114.291 120.643Z" fill="#B5CEFF"/>
  <path d="M135.723 120.481C134.901 120.956 135.735 123.032 136.831 122.399C138.201 121.608 136.545 120.006 135.723 120.481Z" fill="#8DA6FF"/>
  <path d="M135.724 120.943C135.519 121.272 135.868 121.642 136.142 121.204C136.484 120.657 135.93 120.615 135.724 120.943Z" fill="#B5CEFF"/>
  <path d="M128.085 115.723C126.851 116.436 128.102 119.552 129.747 118.602C131.804 117.415 129.319 115.011 128.085 115.723Z" fill="#8DA6FF"/>
  <path d="M128.087 116.418C127.778 116.911 128.302 117.467 128.713 116.809C129.227 115.987 128.395 115.925 128.087 116.418Z" fill="#B5CEFF"/>
  <path d="M113.143 100.081C112.804 99.4336 111.757 100.255 112.208 101.119C112.772 102.198 113.481 100.729 113.143 100.081Z" fill="#8DA6FF"/>
  <path d="M112.892 100.111C112.693 99.9626 112.526 100.274 112.791 100.472C113.122 100.719 113.09 100.259 112.892 100.111Z" fill="#B5CEFF"/>
  <path d="M108.082 140.498C107.516 140.036 106.877 141.204 107.633 141.82C108.577 142.589 108.649 140.959 108.082 140.498Z" fill="#8DA6FF"/>
  <path d="M107.863 140.625C107.622 140.567 107.592 140.92 107.913 140.997C108.315 141.093 108.105 140.683 107.863 140.625Z" fill="#B5CEFF"/>
  <path d="M119.948 112.906C120.635 113.155 120.853 111.842 119.938 111.509C118.793 111.093 119.261 112.656 119.948 112.906Z" fill="#8DA6FF"/>
  <path d="M119.51 111.589C119.654 111.477 119.866 111.979 119.673 112.129C119.432 112.317 119.365 111.702 119.51 111.589Z" fill="#B5CEFF"/>
  <path d="M109.85 110.802C109.59 110.119 108.453 110.811 108.799 111.722C109.233 112.861 110.11 111.485 109.85 110.802Z" fill="#8DA6FF"/>
  <path d="M109.139 111.994C108.96 111.959 109.202 111.471 109.441 111.518C109.741 111.578 109.319 112.03 109.139 111.994Z" fill="#B5CEFF"/>
  <path d="M126.341 88.6283C126.002 87.9804 124.955 88.802 125.406 89.6657C125.97 90.7453 126.679 89.2762 126.341 88.6283Z" fill="#8DA6FF"/>
  <path d="M126.089 88.6578C125.891 88.5094 125.723 88.8212 125.988 89.019C126.319 89.2662 126.288 88.8061 126.089 88.6578Z" fill="#B5CEFF"/>
  <path d="M121.62 96.3218C120.959 96.0092 121.739 94.9302 122.619 95.347C123.72 95.868 122.28 96.6344 121.62 96.3218Z" fill="#8DA6FF"/>
  <path d="M121.64 96.0699C121.484 95.8771 121.789 95.6977 121.997 95.9547C122.257 96.2759 121.796 96.2626 121.64 96.0699Z" fill="#B5CEFF"/>
  <path d="M147.73 147.493C147.011 147.357 147.007 148.688 147.964 148.869C149.161 149.096 148.448 147.629 147.73 147.493Z" fill="#8DA6FF"/>
  <path d="M147.598 147.707C147.358 147.771 147.499 148.096 147.819 148.011C148.218 147.904 147.837 147.643 147.598 147.707Z" fill="#B5CEFF"/>
  <path d="M136.94 136.474C136.293 136.135 135.901 137.407 136.764 137.859C137.843 138.425 137.588 136.813 136.94 136.474Z" fill="#8DA6FF"/>
  <path d="M136.751 136.642C136.503 136.634 136.544 136.985 136.874 136.997C137.287 137.011 136.999 136.651 136.751 136.642Z" fill="#B5CEFF"/>
  <path d="M127.631 127.744C127.39 126.634 125.483 127.434 125.804 128.914C126.206 130.764 127.872 128.854 127.631 127.744Z" fill="#8DA6FF"/>
  <path d="M127.242 127.687C127.005 127.383 126.626 127.782 126.942 128.187C127.337 128.694 127.479 127.991 127.242 127.687Z" fill="#B5CEFF"/>
  <path d="M186.694 147.251C183.949 146.395 168.172 148.712 165.49 151.214C162.808 153.715 176.388 151.799 180.849 152.802C185.309 153.805 187.446 158.838 188.162 161.894C188.877 164.95 189.991 166.171 190.747 165.863C191.502 165.556 195.288 160.138 194.763 156.035C194.238 151.932 192.676 151.775 191.098 151.361C189.519 150.946 190.125 148.321 186.694 147.251Z" fill="#CF807B"/>
  <path d="M182.719 158.017C178.384 154.921 168.012 152.083 166.722 152.341C166.029 152.479 171.603 160.89 177.817 165.5C183.171 169.472 189.208 169.891 189.686 168.338C190.718 164.984 188.138 161.887 182.719 158.017Z" fill="#DE908B"/>
  <path d="M113.827 161.371C99.1712 156.624 96.5393 135.311 97.0554 125.248C97.0554 120.271 92.6689 131.44 90.3467 138.923C88.0245 146.406 101.7 173.756 108.666 182.529C115.633 191.302 117.439 204.203 123.116 202.397C128.792 200.591 143.242 210.396 147.112 200.591C150.982 190.786 173.43 194.914 173.172 190.786C172.914 186.658 132.147 167.306 113.827 161.371Z" fill="#E7C9B3"/>
  <path d="M93.7007 105.897C89.252 112.863 91.1205 104.349 86.4761 94.5438C81.8316 84.7389 72.0267 87.5772 71.2527 98.9302C70.4786 110.283 84.9279 112.089 91.1205 114.67C97.3131 117.25 96.2811 120.604 93.7007 128.603C91.1204 136.602 80.7997 125.507 75.6392 120.604C70.4787 115.702 64.5442 100.994 68.6725 90.1574C72.8009 79.3204 91.3787 85.513 96.2811 92.9957C101.184 100.478 99.6354 144.6 101.958 153.115C104.28 161.63 148.918 179.176 165.948 188.206C182.977 197.237 179.107 188.723 180.913 184.852C182.719 180.982 190.46 171.177 195.878 166.016C201.297 160.856 203.103 146.923 203.103 142.536C203.103 138.15 203.361 137.633 204.651 134.021C205.941 130.409 209.812 126.796 211.102 122.41C212.392 118.024 217.81 116.734 218.068 112.089C218.326 107.445 216.778 90.6734 214.972 79.3204C213.527 70.2379 212.908 66.6773 204.651 58.9365C196.394 51.1957 179.003 43.9195 158.981 46.8094C133.952 50.4217 112.795 71.0637 101.958 85.513C91.1205 99.9623 93.7007 89.3834 87.7662 85.513" stroke="black" stroke-linecap="round"/>
  <path d="M81.6943 183.604C92.0907 200.498 123.97 235.46 168.316 240.15" stroke="black" stroke-linecap="round" stroke-linejoin="round"/>
  <path d="M99.6475 211.935C90.4354 206.617 92.3463 196.283 77.6785 218.858C63.0108 241.433 67.4711 209.534 65.2863 203.534C62.3574 195.49 41.8733 198.607 46.9056 192.922C55.692 182.997 33.4773 173.733 47.9042 165.724C62.331 157.715 62.9129 173.532 68.5965 169.502C76.9529 163.575 58.1369 153.66 72.3742 148.809C86.6115 143.958 95.7578 139.437 99.3832 152.966C103.009 166.495 93.5966 166.891 97.0205 171.207C100.597 175.715 112.345 158.815 117.713 174.985C123.082 191.155 117.292 222.121 99.6475 211.935Z" fill="#8482FF"/>
  <path d="M85.6779 186.203C101.242 197.523 116.806 184.222 122.466 176.299C129.54 166.394 94.1674 166.394 87.0928 177.714C80.0181 189.033 102.657 176.299 102.657 152.245C102.657 128.191 80.0183 169.224 81.4333 177.714C82.8482 186.203 92.7527 160.735 75.7735 143.755C58.7944 126.776 64.4539 169.224 74.3584 179.129C84.2629 189.033 71.5288 160.735 48.8899 162.15C26.251 163.564 51.7195 189.033 70.1136 186.203C88.5077 183.374 58.7944 179.129 38.9853 190.448C19.1763 201.768 61.624 210.257 75.7733 194.693C89.9227 179.129 60.2091 193.278 64.4539 217.332C68.6987 241.386 84.2629 215.917 82.848 196.108C81.5085 177.354 72.9435 198.938 99.8272 211.672C129.761 225.852 110.037 187.618 85.6779 186.203Z" stroke="black" stroke-linecap="round" stroke-linejoin="round"/>
  <path d="M94.7329 116.732C96.023 117.162 98.5517 119.055 98.3453 123.183C98.0872 128.343 94.2169 151.308 105.57 157.758C116.923 164.209 166.464 186.399 172.398 188.979C178.333 191.559 172.914 196.72 161.561 194.656C150.208 192.591 146.338 199.558 149.434 204.977C152.53 210.395 126.728 198.526 111.762 211.427C96.7971 224.328 134.469 219.684 113.827 194.656C93.1848 169.627 91.3136 137.374 94.7329 131.44C98.1523 125.505 101.958 121.893 98.3453 114.41" stroke="black" stroke-linecap="round"/>
  <path d="M165.431 101.251C160.27 98.413 155.627 93.2531 153.563 90.6728C151.499 88.0926 153.047 80.0938 153.563 83.1901C154.079 86.2864 161.621 97.4698 167.237 100.219C175.494 104.261 181.171 100.993 178.332 102.541C175.494 104.089 170.591 104.089 165.431 101.251Z" fill="#F89797"/>
  <path d="M156.143 89.8984C158.293 94.8009 165.845 104.193 178.849 102.542" stroke="black" stroke-linecap="round"/>
  <path d="M204.424 127.293C202.595 125.718 201.035 122.428 201.548 121.805C202.061 121.183 202.913 124.073 205.875 126.373C208.836 128.673 211.292 127.574 210.07 128.085C208.848 128.596 206.253 128.869 204.424 127.293Z" fill="#F89797"/>
  <path d="M202.329 122.41C202.673 124.13 204.497 127.725 209.038 128.345" stroke="black" stroke-linecap="round"/>
  <path d="M200.007 114.669C199.181 110.747 204.737 104.778 208.006 103.058C210.328 101.677 208.006 102.284 204.135 103.058C200.265 103.832 193.04 112.346 197.169 116.475C201.297 120.603 200.007 135.311 201.297 136.601C202.587 137.891 205.942 130.924 204.135 125.764C202.329 120.603 201.039 119.571 200.007 114.669Z" fill="#ECD2BF"/>
  <path d="M208.522 103.316C206.888 104.004 199.852 110.335 200.265 113.637C200.781 117.766 206.2 130.925 203.877 135.569C202.329 138.666 198.201 139.698 194.331 139.698" stroke="black" stroke-linecap="round"/>
  <path d="M133.5 74.4994C134.7 69.6994 137 64.4986 131 65.9994C125 67.5001 119.5 74.4994 116.5 78.4994C113.106 83.0249 102.5 102.499 106 108.999C109.5 115.499 108.5 126.999 105 136.999C101.5 146.999 115.5 153.499 121.5 155.999C127.5 158.499 139 167.499 143.5 170.999C148 174.499 154 179.999 159.5 177.999C165 175.999 160.5 157.999 150.5 147.999C140.5 137.999 142 130.999 142.5 125.499C143 119.999 131 110.499 129 104.499C127 98.4994 132 80.4994 133.5 74.4994Z" stroke="black" stroke-linecap="round" stroke-linejoin="round" stroke-dasharray="4 4"/>
</svg>